Music_DefeatedWildMon_Ch1:: ; 23b74 (8:7b74)
	tempo 112
	volume 7, 7
	executemusic
	duty 3
	vibrato 6, 3, 4
	toggleperfectpitch
	tempo 112
	notetype 12, 11, 3
	octave 2
	rest 2
	B_ 6
	octave 3
	E_ 6
	rest 2
.loop
	rest 12
	octave 2
	B_ 4
	rest 4
	octave 3
	C# 4
	rest 2
	octave 2
	B_ 4
	rest 1
	E_ 1
	rest 12
	octave 2
	B_ 4
	rest 4
	octave 3
	C# 4
	octave 2
	B_ 4
	rest 4
	rest 12
	octave 3
	C_ 4
	rest 4
	D_ 4
	rest 2
	C_ 4
	rest 1
	octave 2
	F_ 1
	rest 12
	octave 3 
	C_ 4
	rest 4
	D_ 4
	C_ 4
	rest 4
	loopchannel 0, .loop


Music_DefeatedWildMon_Ch2:: ; 23bc1 (8:7bc1)
	executemusic
	duty 2
	notetype 12, 12, 1
	octave 4
	C# 1
	D# 1
	E_ 1
	E_ 1
	E_ 1
	rest 1
	E_ 1
	E_ 1
	notetype 12, 12, 3
	E_ 4
	octave 3
	D# 4
.looppoint
	notetype 12, 12, 1
	octave 3
	B_ 2
	A_ 2
	G# 2
	A_ 2
	B_ 2
	B_ 2
	B_ 2
	E_ 1
	E_ 1
	octave 4
	C# 2
	C# 2
	C# 4
	octave 3
	B_ 2
	B_ 2
	B_ 4
	B_ 2
	A_ 2
	G# 2
	A_ 2
	B_ 2
	B_ 2
	B_ 4
	octave 4
	C# 2
	C# 2
	C# 4
	octave 3
	B_ 8
	octave 4
	C_ 2
	octave 3
	A# 2
	A_ 2
	A# 2
	octave 4
	C_ 2
	C_ 2
	C_ 2
	octave 3
	F_ 1
	F_ 1
	octave 4
	D_ 2
	D_ 2
	D_ 4
	C_ 2
	C_ 2
	C_ 4
	C_ 2
	octave 3
	A# 2
	A_ 2
	A# 2
	octave 4
	C_ 2
	C_ 2
	C_ 4
	D_ 2
	D_ 2
	D_ 4
	C_ 8
	loopchannel 0, .looppoint 
	 

Music_DefeatedWildMon_Ch3:: ; 23c0e (8:7c0e)
	executemusic
	notetype 12, 1, 0
	octave 3
	rest 2
	E_ 6
	octave 2
	E_ 8
.loop
	octave 3
	E_ 1
	rest 1
	octave 4
	E_ 1
	rest 1
	octave 3
	E_ 1
	rest 1
	octave 4
	E_ 1
	rest 1
	octave 3
	E_ 1
	rest 1
	octave 4
	E_ 1
	rest 1
	E_ 2
	octave 3
	E_ 1
	rest 1
	F# 1
	rest 1
	octave 4
	F# 1
	rest 1
	F# 2
	octave 3
	F# 1
	rest 1
	E_ 1
	rest 1
	octave 4
	E_ 1
	rest 1
	E_ 2
	octave 3
	E_ 1
	rest 1
	E_ 1
	rest 1
	octave 4
	E_ 1
	rest 1
	octave 3
	E_ 1
	rest 1
	octave 4
	E_ 1
	rest 1
	octave 3
	E_ 1
	rest 1
	octave 4
	E_ 1
	rest 1
	E_ 2
	octave 3
	E_ 1
	rest 1
	F# 1
	rest 1
	octave 4
	F# 1
	rest 1
	F# 2
	octave 3
	F# 1
	rest 1
	octave 4
	E_ 1
	rest 1
	E_ 1
	rest 1
	E_ 2
	octave 3
	E_ 1 
	rest 1
	F_ 1
	rest 1
	octave 4
	F_ 1
	rest 1
	octave 3
	F_ 1
	rest 1
	octave 4
	F_ 1
	rest 1
	octave 3
	F_ 1
	rest 1
	octave 4
	F_ 1
	rest 1
	F_ 2
	octave 3
	F_ 1
	rest 1
	G_ 1
	rest 1
	octave 4
	G_ 1
	rest 1
	G_ 2
	octave 3
	G_ 1
	rest 1
	F_ 1
	rest 1
	octave 4
	F_ 1
	rest 1
	F_ 2
	octave 3
	F_ 1
	rest 1
	F_ 1
	rest 1
	octave 4
	F_ 1
	rest 1
	octave 3
	F_ 1
	rest 1
	octave 4
	F_ 1
	rest 1
	octave 3
	F_ 1
	rest 1
	octave 4
	F_ 1
	rest 1
	F_ 2
	octave 3
	F_ 1
	rest 1
	G_ 1
	rest 1
	octave 4
	G_ 1
	rest 1
	G_ 2
	octave 3
	G_ 1
	rest 1
	octave 4
	F_ 1
	rest 1
	F_ 1
	rest 1
	F_ 2
	octave 3
	F_ 1 
	rest 1
	loopchannel 0, .loop 
