Pinch_Ch1_sub_0:
	C# 1
	D# 1
	C# 1
	D# 1
	G# 1
	D# 1
	C# 1
	D# 1
	C# 1
	D# 1
	C# 1
	D# 1
	G# 1
	A# 1
	octave 4
	C_ 1
	C# 1
	D# 1
	C# 1
	C_ 1
	octave 3
	A# 1
	G# 1
	G_ 1
	F_ 1
	D# 1
	endchannel
Pinch_Ch1::
	tempo 118
	vibrato 6, 3, 4
	duty 3
	toggleperfectpitch
	notetype 6, 12, 2
	octave 3
	D# 1
	rest 1
	D# 1
	rest 1
	notetype 6, 12, 6
	octave 2
	D# 8
	notetype 6, 12, 0
	G_ 8
	notetype 6, 12, 6
	G_ 8
	octave 3
	notetype 6, 12, 0
	F# 8
	notetype 6, 12, 6
	F# 8
	C# 8
	notetype 8, 12, 6
	F# 5
	B_ 4
	octave 4
	E_ 3
	notetype 12, 12, 1
	duty 2
	octave 3
	callchannel Pinch_Ch1_sub_0
	C# 1
	C_ 1
	octave 2
	A# 1
	G# 1
	A# 1
	octave 3
	C_ 1
	C# 1
	D# 1
	callchannel Pinch_Ch1_sub_0
	duty 3
	notetype 8, 12, 2
	G_ 1
	rest 1
	octave 4
	C# 1
	rest 1
	G_ 1
	rest 1
	octave 5
	C# 1
	rest 1
	octave 4
	G_ 1
	rest 1
	C# 2
Pinch_Ch1_loop:
	notetype 12, 12, 6
	octave 3
	D# 6
	C_ 2
	D# 4
	C_ 4
	callchannel Pinch_Ch1_loop_sub_1
	octave 4
	C# 6
	callchannel Pinch_Ch1_loop_sub_0
	D# 6
	C_ 2
	D# 4
	C_ 4
	callchannel Pinch_Ch1_loop_sub_1
	notetype 8, 12, 6
	G# 4
	D# 4
	G# 4
	A# 6
	G# 6
	notetype 12, 12, 6
	octave 4
	C# 3
	octave 3
	A# 3
	G# 2
	A# 5
	rest 1
	notetype 12, 12, 2
	A# 1
	A# 1
	notetype 12, 12, 6
	A# 2
	C_ 2
	C# 2
	D# 2
	D# 6
	C_ 2
	D# 4
	C_ 4
	F# 2
	F_ 1
	E_ 1
	D# 6
	octave 4
	C# 4
	callchannel Pinch_Ch1_loop_sub_0
	D# 6
	C_ 2
	D# 4
	C_ 4
	callchannel Pinch_Ch1_loop_sub_1
	C# 4
	F_ 4
	D# 6
	F# 2
	G# 2
	D# 4
	G# 2
	notetype 12, 12, 6
	C# 4
	notetype 12, 12, 1
	C# 1
	D# 1
	F_ 1
	G_ 1
	notetype 12, 12, 3
	C# 1
	C_ 1
	C# 1
	rest 3
	A# 1
	rest 1
	notetype 12, 12, 1
	duty 2
	G# 1
	rest 1
	G# 1
	rest 3
	G# 1
	G# 1
	G# 1
	rest 1
	G# 1
	rest 3
	G# 1
	G# 1
	A# 1
	rest 1
	A# 1
	rest 3
	A# 1
	G_ 1
	octave 4
	D# 1
	F_ 1
	D_ 1
	D# 1
	G_ 1
	rest 1
	D# 1
	rest 1
	C_ 1
	rest 1
	C_ 1
	rest 3
	C_ 1
	C_ 1
	C_ 1
	rest 1
	C_ 1
	rest 1
	octave 3
	G_ 1
	octave 4
	C_ 1
	octave 3
	A# 1
	rest 1
	octave 4
	C_ 1
	rest 1
	C_ 1
	rest 3
	C_ 1
	rest 1
	C_ 1
	rest 1
	C_ 1
	rest 1
	G# 1
	rest 1
	G_ 1
	G# 1
	octave 3
	G# 1
	rest 1
	G# 1
	rest 3
	G# 2
	octave 4
	C# 1
	rest 1
	octave 3
	G# 1
	rest 1
	G# 1
	G# 1
	G# 1
	rest 3
	A# 1
	rest 3
	A# 1
	rest 1
	A# 1
	octave 4
	C_ 1
	octave 3
	A_ 1
	A# 1
	octave 4
	G_ 1
	rest 1
	C_ 1
	rest 1
	D# 1
	rest 1
	C_ 1
	rest 3
	octave 3
	C_ 1
	rest 1
	C_ 1
	rest 1
	C_ 1
	rest 1
	C_ 1
	C_ 1
	rest 2
	F_ 1
	rest 1
	F_ 1
	rest 3
	F_ 1
	rest 1
	F_ 1
	rest 1
	F_ 1
	rest 1
	A_ 4
	octave 4
	duty 3
	notetype 12, 12, 3
	F_ 1
	rest 2
	D# 1
	notetype 12, 12, 6
	C# 8
	rest 1
	notetype 12, 12, 3
	octave 3
	G# 1
	A# 1
	octave 4
	C_ 1
	notetype 12, 12, 3
	F_ 1
	rest 2
	E_ 1
	notetype 12, 12, 6
	D_ 8
	rest 3
	D_ 1
	notetype 12, 12, 0
	D# 8
	notetype 12, 12, 6
	D# 8
	notetype 12, 12, 6
	octave 3
	G_ 5
	notetype 12, 12, 1
	rest 1
	G_ 1
	G_ 1
	notetype 12, 12, 6
	G_ 8
	loopchannel 0, Pinch_Ch1_loop
Pinch_Ch1_loop_sub_0:
	C_ 1
	octave 3
	B_ 1
	F_ 6
	D# 1
	D_ 1
	C# 2
	D# 2
	E_ 1
	rest 1
	E_ 1
	rest 1
	E_ 5
	rest 3
	E_ 1
	rest 1
	E_ 1
	rest 1
	C# 4
	endchannel
Pinch_Ch1_loop_sub_1:
	F# 2
	F_ 1
	E_ 1
	D# 4
	endchannel
Pinch_Ch2_sub_0:
	C# 1
	rest 1
	C# 3
	rest 1
	C# 1
	rest 1
	C# 2
	C# 1
	rest 1
	C# 1
	C# 1
	C# 1
	rest 1
	endchannel
Pinch_Ch2::
	vibrato 16, 4, 6
	duty 3
	notetype 6, 12, 2
	octave 2
	D# 1
	rest 1
	D# 1
	rest 1
	notetype 6, 12, 0
	octave 1
	D# 8
	notetype 6, 12, 6
	D# 8
	notetype 6, 12, 0
	octave 3
	C# 8
	notetype 6, 12, 6
	C# 8
	B_ 8
	octave 4
	E_ 8
	notetype 8, 12, 5
	A_ 5
	octave 5
	D_ 4
	G_ 3
	notetype 12, 12, 5
	callchannel Pinch_Ch2_sub_0
	C_ 1
	rest 1
	C_ 3
	rest 1
	C_ 1
	rest 1
	C_ 2
	C_ 1
	rest 1
	C_ 1
	C_ 1
	C_ 1
	rest 1
	callchannel Pinch_Ch2_sub_0
	octave 4
	G# 1
	G_ 1
	G# 1
	rest 5
	notetype 8, 11, 1
	F# 2
	F# 2
	notetype 8, 12, 1
	F# 2
	F# 2
	notetype 8, 13, 1
	F# 2
	G_ 2
Pinch_Ch2_loop:
	notetype 12, 14, 7
	octave 3
	G# 6
	octave 4
	C_ 2
	D# 8
	notetype 12, 9, 5
	octave 3
	C# 8
	notetype 12, 14, 7
	octave 4
	F# 6
	callchannel Pinch_Ch2_loop_sub_0
	C# 4
	octave 3
	A# 4
	octave 4
	C# 4
	notetype 12, 14, 7
	D# 16
	D# 5
	rest 1
	notetype 12, 14, 1
	D# 1
	D# 1
	notetype 12, 14, 6
	D# 8
	notetype 12, 14, 7
	octave 3
	G# 6
	octave 4
	C_ 2
	D# 8
	notetype 12, 9, 5
	octave 3
	C# 10
	notetype 12, 12, 7
	octave 4
	F# 4
	callchannel Pinch_Ch2_loop_sub_0
	F# 4
	F_ 4
	F# 4
	G# 9
	B_ 3
	G# 12
	notetype 8, 12, 7
	G# 6
	notetype 12, 12, 1
	G# 1
	A# 1
	F_ 1
	G_ 1
	A# 1
	A_ 1
	A# 1
	rest 3
	A# 1
	rest 1
	notetype 12, 12, 7
	F_ 1
	rest 2
	G_ 1
	G# 5
	G_ 1
	F_ 1
	G_ 1
	G# 2
	octave 5
	C_ 1
	rest 1
	octave 4
	A# 1
	rest 2
	G_ 1
	D# 8
	C_ 1
	C# 1
	octave 3
	B_ 1
	octave 4
	C_ 1
	D# 1
	rest 2
	F_ 1
	G_ 8
	D# 1
	G_ 1
	A# 2
	G# 1
	rest 2
	A# 1
	octave 5
	C_ 8
	rest 4
	octave 4
	G# 1
	rest 2
	F_ 1
	G# 6
	F_ 2
	G# 2
	octave 5
	C_ 1
	rest 1
	octave 4
	A# 1
	rest 2
	octave 5
	C_ 1
	octave 4
	A# 8
	D# 1
	C# 1
	C_ 1
	C# 1
	D# 1
	rest 2
	F_ 1
	G_ 6
	D# 2
	A# 4
	A_ 1
	rest 2
	A# 1
	octave 5
	C_ 8
	rest 2
	octave 4
	G# 1
	octave 5
	C_ 1
	C# 1
	rest 2
	C_ 1
	octave 4
	A# 8
	G_ 1
	G# 1
	A# 1
	octave 5
	C_ 1
	C# 1
	rest 2
	C_ 1
	octave 4
	A# 8
	rest 2
	G# 1
	notetype 14, 13, 0
	A# 7
	notetype 14, 13, 7
	A# 7
	notetype 8, 13, 0
	rest 1
	notetype 12, 14, 7
	D# 5
	notetype 12, 14, 1
	rest 1
	D# 1
	D# 1
	notetype 12, 14, 7
	D# 8
	loopchannel 0, Pinch_Ch2_loop
Pinch_Ch2_loop_sub_0:
	F_ 1
	E_ 1
	D# 16
	C# 5
	rest 3
	C# 3
	C_ 3
	C# 2
	notetype 12, 12, 7
	octave 3
	G# 6
	octave 4
	C_ 2
	D# 8
	notetype 12, 9, 5
	octave 3
	C# 8
	notetype 8, 12, 7
	octave 4
	endchannel
Pinch_Ch3_sub_0:
	rest 1
	D# 1
	rest 1
	D# 1
	rest 1
	D# 1
	endchannel
Pinch_Ch3::
	notetype 12, 1, 0
	octave 3
	D# 1
	D# 1
	octave 2
	D# 16
	D# 8
	notetype 6, 1, 0
	octave 3
	D# 1
	callchannel Pinch_Ch3_sub_0
	callchannel Pinch_Ch3_sub_0
	rest 1
	D# 2
	G# 8
	octave 4
	D# 4
	octave 3
	G# 8
	D# 4
	G# 4
	D# 4
	G# 8
	D# 4
	G# 8
	D# 4
	G# 8
	G# 8
	D# 2
	D# 2
	G# 8
	D# 2
	rest 2
	G# 2
	rest 2
	D# 2
	rest 2
	D# 2
	D_ 2
	D# 4
	G# 2
	rest 2
	D# 12
	D# 1
	callchannel Pinch_Ch3_sub_0
	rest 1
Pinch_Ch3_loop:
	notetype 12, 1, 0
	G# 4
	D# 2
	G# 4
	D# 2
	G# 2
	D# 2
	F# 4
	C# 2
	F# 4
	C# 2
	F# 2
	C# 2
	G# 4
	D# 2
	G# 4
	D# 2
	G# 2
	callchannel Pinch_Ch3_loop_sub_1
	A# 4
	D# 2
	A# 4
	D# 2
	A# 2
	callchannel Pinch_Ch3_loop_sub_1
	G# 4
	D# 2
	G# 4
	D# 2
	G# 2
	callchannel Pinch_Ch3_loop_sub_1
	G# 4
	D# 2
	G# 4
	D# 2
	G# 2
	D# 2
	G# 4
	D# 2
	A# 4
	D# 2
	A# 2
	D# 2
	notetype 12, 1, 0
	C# 4
	callchannel Pinch_Ch3_loop_sub_0
	E_ 4
	D# 4
	D_ 4
	C# 4
	callchannel Pinch_Ch3_loop_sub_0
	C_ 4
	A_ 4
	octave 4
	C_ 4
	octave 3
	C# 4
	octave 2
	G# 2
	octave 3
	C# 4
	octave 2
	G# 2
	octave 3
	G# 2
	octave 2
	G# 2
	A# 4
	F_ 2
	octave 3
	F_ 4
	D_ 2
	G# 2
	octave 2
	A# 2
	octave 3
	D# 4
	octave 2
	A# 2
	octave 3
	D# 4
	octave 2
	A# 2
	octave 3
	G_ 2
	D# 1
	D# 1
	D# 16
	loopchannel 0, Pinch_Ch3_loop
Pinch_Ch3_loop_sub_0:
	octave 2
	G# 2
	octave 3
	C# 4
	octave 2
	G# 2
	octave 3
	C# 2
	octave 2
	G# 2
	octave 3
	D# 4
	octave 2
	A# 2
	octave 3
	D# 4
	octave 2
	A# 2
	octave 3
	D# 2
	octave 2
	A# 2
	octave 3
	C_ 4
	octave 2
	G_ 2
	octave 3
	C_ 4
	octave 2
	G_ 2
	octave 3
	C_ 2
	octave 2
	G_ 2
	octave 3
	F_ 4
	endchannel
Pinch_Ch3_loop_sub_1:
	D# 2
	A# 4
	D# 2
	A# 4
	D# 2
	A# 2
	D# 2
	G# 4
	D# 2
	G# 4
	D# 2
	G# 2
	D# 2
	F# 4
	C# 2
	F# 4
	C# 2
	F# 2
	C# 2
	endchannel