Music_HaidenBattle_Ch1:
	tempo 216
	volume 7, 7
	vibrato 6, 3, 4
	toggleperfectpitch
	notetype 12, 11, 3
	callchannel Music_HaidenBattle_Ch1_pt1
.looppoint
	callchannel Music_HaidenBattle_Ch1_pt1
	callchannel Music_HaidenBattle_Ch1_pt1
	callchannel Music_HaidenBattle_Ch1_pt2
	loopchannel 2, .looppoint
	callchannel Music_HaidenBattle_Ch1_pt3
	callchannel Music_HaidenBattle_Ch1_pt4
	octave 2
	B_ 8
	callchannel Music_HaidenBattle_Ch1_pt4
	octave 3
	notetype 12, 11, 3
	G_ 1
	G_ 1
	G_ 1
	G_ 1
	G_ 1
	G_ 1
	G_ 1
	G_ 1
	F# 1
	F# 1
	F# 1
	F# 1
	F# 1
	F# 1
	F# 1
	F# 1
	loopchannel 0, .looppoint
	
Music_HaidenBattle_Ch2:
	vibrato 10, 2, 5
	notetype 12, 12, 5
	callchannel Music_HaidenBattle_Ch2_pt1
.looppoint
	callchannel Music_HaidenBattle_Ch2_pt1
	callchannel Music_HaidenBattle_Ch2_pt1
	callchannel Music_HaidenBattle_Ch2_pt2
	loopchannel 2, .looppoint
	callchannel Music_HaidenBattle_Ch2_pt3
	callchannel Music_HaidenBattle_Ch2_pt4
	octave 3
	B_ 8
	callchannel Music_HaidenBattle_Ch2_pt4
	notetype 12, 12, 7
	octave 4
	E_ 8
	D# 8
	notetype 12, 12, 5
	loopchannel 0, .looppoint
	
Music_HaidenBattle_Ch3:
	vibrato 0, 2, 0
	callchannel Music_HaidenBattle_Ch3_pt1
.looppoint
	callchannel Music_HaidenBattle_Ch3_pt2
	callchannel Music_HaidenBattle_Ch3_pt2
	callchannel Music_HaidenBattle_Ch3_pt3
	callchannel Music_HaidenBattle_Ch3_pt3
	loopchannel 2, .looppoint
	callchannel Music_HaidenBattle_Ch3_pt4
	callchannel Music_HaidenBattle_Ch3_pt5
	callchannel Music_HaidenBattle_Ch3_pt5
	callchannel Music_HaidenBattle_Ch3_pt6
	loopchannel 0, .looppoint
	
Music_HaidenBattle_Ch1_pt1:
	duty 0
	octave 3
	rest 1
	G_ 1
	rest 1
	E_ 1
	F# 1
	rest 1
	A_ 1
	rest 1
	rest 1
	G_ 1
	rest 1
	E_ 1
	F# 1
	rest 1
	E_ 1
	rest 1
	rest 1
	G_ 1
	rest 1
	E_ 1
	F# 1
	rest 1
	A_ 1
	rest 1
	E_ 2
	F# 2
	E_ 2
	D# 2
	endchannel
	
Music_HaidenBattle_Ch2_pt1:
	duty 2
	octave 3
	rest 1
	B_ 1
	rest 1
	G_ 1
	A_ 1
	rest 1
	octave 4
	C_ 1
	octave 3
	rest 1
	rest 1
	B_ 1
	rest 1
	G_ 1
	A_ 1
	rest 1
	G_ 1
	rest 1
	rest 1
	B_ 1
	rest 1
	G_ 1
	A_ 1
	rest 1
	octave 4
	C_ 1
	octave 3
	rest 1
	G_ 2
	A_ 2
	G_ 2
	F# 2
	endchannel
	
Music_HaidenBattle_Ch3_pt1:
	notetype 12, 1, 4
	octave 2
	E_ 1
	rest 1
	E_ 1
	rest 1
	E_ 1
	rest 1
	E_ 1
	rest 1
	E_ 1
	rest 1
	E_ 1
	rest 1
	E_ 1
	rest 1
	E_ 1
	rest 1
	E_ 1
	rest 1
	E_ 1
	rest 1
	E_ 1
	rest 1
	E_ 1
	rest 1
	E_ 2
	F# 2
	D# 2
	D_ 2
	endchannel
	
Music_HaidenBattle_Ch1_pt2:
	duty 3
	octave 1
	F# 1
	octave 2
	F# 1
	A_ 1
	F# 1
	octave 1
	F# 1
	octave 2
	D_ 1
	G# 1
	E_ 1
	octave 1
	F# 1
	octave 2
	C# 1
	F# 1
	C# 1
	octave 1
	F# 1
	octave 2
	D_ 1
	G# 1
	E_ 1
	octave 1
	F# 1
	octave 2
	F# 1
	A_ 1
	F# 1
	octave 1
	F# 1
	octave 2
	D_ 1
	G# 1
	E_ 1
	octave 1
	D_ 1
	octave 2
	F# 1
	A_ 1
	F# 1
	E_ 1
	B_ 1
	A_ 1
	E_ 1
	octave 1
	F# 1
	octave 2
	F# 1
	A_ 1
	F# 1
	octave 1
	F# 1
	octave 2
	D_ 1
	G# 1
	E_ 1
	octave 1
	F# 1
	octave 2
	C# 1
	F# 1
	C# 1
	octave 1
	F# 1
	octave 2
	D_ 1
	G# 1
	E_ 1
	octave 1
	F# 1
	octave 2
	F# 1
	A_ 1
	F# 1
	octave 1
	F# 1
	octave 2
	D_ 1
	G# 1
	E_ 1
	octave 1
	D_ 1
	octave 2
	E_ 1
	A_ 1
	F# 1
	A_ 2
	B_ 2
	endchannel
	
Music_HaidenBattle_Ch2_pt2:
	duty 3
	octave 3
	notetype 6, 12, 5
	A_ 2
	B_ 1
	A_ 1
	B_ 2
	octave 4
	C# 2
	octave 3
	B_ 2
	A_ 2
	G# 2
	F# 2
	E_ 2
	F# 2
	G# 2
	A_ 2
	G# 2
	A_ 1
	G# 1
	notetype 12, 12, 5
	F# 2
	notetype 6, 12, 5
	A_ 2
	B_ 1
	A_ 1
	B_ 2
	octave 4
	C# 2
	D_ 2
	C# 2
	octave 3
	B_ 2
	A_ 2
	G# 2
	F# 2
	G# 2
	A_ 2
	B_ 2
	octave 4
	C# 1
	octave 3
	B_ 1
	G# 2
	E_ 2
	A_ 2
	B_ 1
	A_ 1
	B_ 2
	octave 4
	C# 2
	octave 3
	B_ 2
	A_ 2
	G# 2
	F# 2
	E_ 2
	F# 2
	G# 2
	A_ 2
	G# 2
	A_ 1
	G# 1
	notetype 12, 12, 5
	F# 2
	notetype 6, 12, 5
	A_ 2
	B_ 1
	A_ 1
	B_ 2
	octave 4
	C# 2
	D_ 2
	C# 2
	octave 3
	B_ 2
	A_ 2
	G# 2
	F# 2
	G# 2
	A_ 2
	octave 4
	D_ 1
	C# 3
	notetype 12, 12, 5
	octave 3
	B_ 2
	endchannel
	
Music_HaidenBattle_Ch3_pt2:
	notetype 12, 1, 4
	octave 2
	E_ 1
	octave 3
	E_ 1
	octave 2
	E_ 1
	octave 3
	E_ 1
	octave 2
	E_ 1
	octave 3
	E_ 1
	octave 2
	E_ 1
	octave 3
	E_ 1
	octave 2
	E_ 1
	octave 3
	E_ 1
	octave 2
	E_ 1
	octave 3
	E_ 1
	octave 2
	E_ 1
	octave 3
	E_ 1
	octave 2
	E_ 1
	E_ 1
	octave 2
	E_ 1
	octave 3
	E_ 1
	octave 2
	E_ 1
	octave 3
	E_ 1
	octave 2
	E_ 1
	octave 3
	E_ 1
	octave 2
	E_ 1
	octave 3
	E_ 1
	octave 2
	E_ 1
	octave 3
	E_ 1
	octave 2
	E_ 1
	octave 3
	F# 1
	octave 2
	E_ 1
	octave 3
	E_ 1
	octave 2
	E_ 1
	octave 3
	D# 1
	endchannel
	
Music_HaidenBattle_Ch1_pt3:
	duty 3
	octave 2
	G# 1
	G# 1
	rest 1
	G# 1
	rest 1
	G# 1
	G# 2
	octave 3
	D_ 1
	C# 1
	octave 2
	B_ 1
	octave 3
	C# 1
	octave 2
	B_ 1
	A_ 1
	F# 1
	A_ 1
	endchannel
	
Music_HaidenBattle_Ch2_pt3:
	duty 3
	octave 3
	C# 1
	C# 1
	rest 1
	C# 1
	rest 1
	C# 1
	C# 2
	G_ 1
	F# 1
	E_ 1
	F# 1
	E_ 1
	D_ 1
	octave 2
	B_ 1
	octave 3
	D_ 1
	endchannel
	
Music_HaidenBattle_Ch3_pt3:
	notetype 12, 1, 1
	octave 2
	F# 1
	F# 1
	octave 3
	F# 1
	octave 2
	F# 1
	F# 1
	octave 3
	F# 1
	octave 2
	F# 1
	octave 3
	F# 1
	octave 2
	F# 1
	F# 1
	octave 3
	F# 1
	octave 2
	F# 1
	F# 1
	octave 3
	F# 1
	octave 2
	F# 1
	octave 3
	F# 1
	octave 2
	F# 1
	F# 1
	octave 3
	F# 1
	octave 2
	F# 1
	F# 1
	octave 3
	F# 1
	octave 2
	F# 1
	octave 3
	F# 1
	octave 2
	D_ 1
	D_ 1
	octave 3
	F# 1
	octave 2
	E_ 1
	E_ 1
	octave 3
	F# 1
	octave 2
	E_ 1
	octave 3
	F# 1
	endchannel
	
Music_HaidenBattle_Ch1_pt4:
	duty 3
.loop
	octave 2
	E_ 3
	E_ 1
	notetype 6, 11, 3
	E_ 3
	E_ 3
	E_ 2
	notetype 12, 11, 4
	A_ 1
	A_ 1
	A_ 1
	E_ 5
	loopchannel 2, .loop
	octave 3
	C_ 3
	C_ 1
	notetype 6, 11, 3
	C_ 3
	C_ 3
	C_ 2
	notetype 12, 11, 4
	octave 2
	B_ 1
	B_ 1
	B_ 1
	E_ 5
	A_ 4
	A# 4
	endchannel
	
Music_HaidenBattle_Ch2_pt4:
	duty 3
	octave 3
	B_ 3
	A_ 1
	notetype 6, 12, 5
	G_ 3
	A_ 3
	B_ 2
	notetype 12, 12, 5
	octave 4
	C# 1
	D_ 1
	C# 1
	octave 3
	A_ 5
	B_ 3
	A_ 1
	notetype 6, 12, 5
	G_ 3
	A_ 3
	B_ 2
	notetype 12, 12, 5
	octave 4
	C# 1
	D_ 1
	E_ 1
	C# 5
	C_ 3
	C_ 1
	notetype 6, 12, 5
	C_ 3
	octave 3
	B_ 3
	A_ 2
	notetype 12, 12, 5
	B_ 1
	A_ 1
	B_ 1
	G_ 5
	notetype 6, 12, 5
	A_ 3
	G_ 3
	A_ 2
	B_ 3
	octave 4
	C# 3
	octave 3
	A_ 2
	notetype 12, 12, 5
	endchannel
	
Music_HaidenBattle_Ch3_pt4:
	notetype 12, 1, 4
	octave 2
	C# 1
	C# 2
	C# 2
	C# 1
	C# 2
	G_ 1
	F# 1
	E_ 1
	F# 1
	E_ 1
	D_ 1
	octave 1
	B_ 1
	octave 2
	D_ 1
	endchannel
	
Music_HaidenBattle_Ch3_pt5:
	notetype 12, 1, 4
	octave 2
	E_ 1
	octave 3
	E_ 1
	octave 2
	E_ 1
	octave 3
	E_ 1
	octave 2
	E_ 1
	octave 3
	E_ 1
	octave 2
	E_ 1
	octave 3
	E_ 1
	octave 2
	A_ 1
	octave 3
	A_ 1
	octave 2
	A_ 1
	octave 3
	A_ 1
	octave 2
	A_ 1
	octave 3
	A_ 1
	octave 2
	A_ 1
	octave 3
	A_ 1
	octave 2
	E_ 1
	octave 3
	E_ 1
	octave 2
	E_ 1
	octave 3
	E_ 1
	octave 2
	E_ 1
	octave 3
	E_ 1
	octave 2
	E_ 1
	octave 3
	E_ 1
	octave 2
	A_ 1
	octave 3
	A_ 1
	octave 2
	A_ 1
	octave 3
	A_ 1
	octave 2
	A_ 1
	octave 3
	A_ 1
	octave 2
	A_ 1
	octave 3
	A_ 1
	octave 2
	C_ 1
	octave 3
	C_ 1
	octave 2
	C_ 1
	octave 3
	C_ 1
	octave 2
	C_ 1
	octave 3
	C_ 1
	octave 2
	C_ 1
	octave 3
	C_ 1
	octave 1
	B_ 1
	octave 2
	B_ 1
	octave 1
	B_ 1
	octave 2
	B_ 1
	octave 1
	B_ 1
	octave 2
	B_ 1
	octave 1
	B_ 1
	octave 2
	B_ 1
	octave 1
	A_ 1
	octave 2
	A_ 1
	octave 1
	A_ 1
	octave 2
	A_ 1
	octave 1
	A_ 1
	octave 2
	A_ 1
	octave 1
	A_ 1
	octave 2
	A_ 1
	octave 1
	B_ 1
	octave 2
	B_ 1
	octave 1
	B_ 1
	octave 2
	B_ 1
	octave 1
	B_ 1
	octave 2
	B_ 1
	octave 1
	B_ 1
	octave 2
	B_ 1
	endchannel
	
Music_HaidenBattle_Ch3_pt6:
	notetype 12, 1, 4
	octave 1
	B_ 1
	octave 2
	B_ 1
	octave 1
	B_ 1
	octave 2
	B_ 1
	octave 1
	B_ 1
	octave 2
	B_ 1
	octave 1
	B_ 1
	octave 2
	B_ 1
	endchannel
