Music_HallOfFame2_Ch1: ; f05cb
	tempo 112
	volume 7,7 
	duty 2
	vibrato 12, 2, 2
	toggleperfectpitch
	notetype 12, 9, 3
	rest 16
	rest 16
	rest 16
	rest 12
	octave 3
	D_ 1
	E_ 1
	F_ 1
	F# 1
Music_HallOfFame_branch_f05e6: ; f05e6
	notetype 12, 9, 7
	octave 4
	C_ 8
	notetype 12, 7, 7
	C_ 8
	notetype 12, 9, 7
	E_ 8
	notetype 12, 7, 7
	E_ 8
	notetype 12, 9, 7
	F# 8
	notetype 12, 7, 7
	F# 8
	notetype 12, 7, 7
	F_ 8
	notetype 12, 5, 7
	F_ 8
	loopchannel 3, Music_HallOfFame_branch_f05e6
	rest 16
	rest 16
	rest 16
	rest 16
	loopchannel 0, Music_HallOfFame_branch_f05e6
; f060b

Music_HallOfFame2_Ch2: ; f060b
	vibrato 8, 2, 5
	duty 3
Music_HallOfFame_branch_f0610: ; f0610
	notetype 12, 12, 4
	octave 3
	G_ 2
	D_ 2
	G_ 2
	A_ 10
	G_ 2
	D_ 2
	G_ 2
	octave 4
	C_ 4
	octave 3
	B_ 4
	A_ 2
	G_ 2
	D_ 2
	G_ 2
	A_ 10
	F_ 2
	C_ 2
	F_ 2
	A# 4
	A_ 4
	F_ 2
	loopchannel 0, Music_HallOfFame_branch_f0610
; f062e

Music_HallOfFame2_Ch3: ; f062e
Music_HallOfFame_branch_f062e: ; f062e
	notetype 12, 1, 4
Music_HallOfFame_branch_f0631: ; f0631
	octave 3
	D_ 2
	G_ 2
	D_ 2
	G_ 2
	D_ 2
	G_ 2
	D_ 2
	G_ 2
	octave 3
	D_ 2
	G_ 2
	D_ 2
	G_ 2
	D_ 2
	G_ 2
	D_ 2
	G_ 2
	octave 3
	D_ 2
	G_ 2
	D_ 2
	G_ 2
	D_ 2
	G_ 2
	D_ 2
	G_ 2
	octave 3
	C_ 2
	F_ 2
	C_ 2
	F_ 2
	C_ 2
	F_ 2
	C_ 2
	F_ 2
	loopchannel 3, Music_HallOfFame_branch_f0631
	D_ 4
	G_ 4
	D_ 4
	G_ 4
	E_ 4
	G_ 4
	E_ 4
	G_ 4
	F# 4
	A_ 4
	F# 4
	A_ 4
	E_ 4
	G_ 4
	E_ 4
	G_ 4
	loopchannel 0, Music_HallOfFame_branch_f062e
; f066d

Music_HallOfFame2_Ch4: ; f066d
	dspeed 12
	rest 16
	rest 16
	rest 16
	rest 16
	dspeed 6
Music_HallOfFame_branch_f0677: ; f0677
	stereopanning %01111110
	mutedsnare3 4
	mutedsnare4 8
	mutedsnare3 4
	mutedsnare4 4
	mutedsnare3 4
	stereopanning %11100111
	mutedsnare2 2
	mutedsnare2 2
	mutedsnare3 2
	mutedsnare3 2
	mutedsnare3 4
	mutedsnare3 4
	mutedsnare4 8
	mutedsnare3 4
	mutedsnare4 4
	stereopanning %01111110
	mutedsnare2 1
	mutedsnare2 1
	mutedsnare3 1
	mutedsnare3 1
	mutedsnare3 1
	mutedsnare4 1
	mutedsnare4 1
	mutedsnare4 1
	loopchannel 0, Music_HallOfFame_branch_f0677
; f0697


