HoennChamp_Ch1:
	tempo 91
	volume 7, 7
	duty 3
	vibrato 12, 1, 5
	notetype 12, 11, 6
	toggleperfectpitch
	octave 4
	D# 1
	D_ 1
	C# 1
	C_ 1
	A# 1
	A_ 1
	G# 1
	G_ 1
	C_ 1
	octave 3
	B_ 1
	A# 1
	A_ 1
	octave 4
	F# 1
	F_ 1
	E_ 1
	D# 1
	octave 3
	A_ 1
	G# 1
	G_ 1
	F# 1
	octave 4
	D_ 1
	C# 1
	C_ 1
	octave 3
	B_ 1
	F# 1
	F_ 1
	E_ 1
	D# 1
	A# 1
	A_ 1
	A# 1
	B_ 1
	G_ 2
	rest 4
	G# 2
	rest 4
	A# 4
	E_ 2
	rest 4
	F_ 2
	rest 4
	G_ 4
	G_ 2
	rest 4
	G# 2
	rest 4
	A# 4
	A# 2
	rest 4
	octave 4
	C_ 2
	rest 4
	C# 4
	C_ 2
	rest 4
	C# 2
	rest 4
	D# 4
	octave 3
	G_ 2
	rest 4
	G# 2
	rest 4
	A# 4
	octave 4
	C_ 2
	rest 4
	C# 2
	rest 4
	D# 4
	D# 2
	rest 4
	F_ 2
	rest 4
	G_ 4
	octave 3
	
.looppoint
	callchannel HoennChamp_Ch1_sub1
	callchannel HoennChamp_Ch1_sub1
	E_ 6
	F_ 6
	A# 4
	G# 2
	A# 2
	G# 2
	G_ 4
	F_ 2
	D# 2
	C# 2
	F_ 8
	D# 8
	C# 8
	C_ 8
	octave 4
	G_ 8
	F_ 8
	D# 8
	C# 8
	notetype 15, 10, 0
	C_ 16
	notetype 12, 10, 0
	rest 16
	rest 16
	rest 12
	callchannel HoennChamp_Ch1_sub0
	callchannel HoennChamp_Ch1_sub0
	octave 3
	G# 4
	octave 4
	D# 4
	E_ 4
	D# 2
	C# 2
	D# 2
	octave 3
	B_ 2
	A_ 4
	B_ 4
	A_ 4
	G# 2
	G# 2
	octave 4
	D# 4
	E_ 4
	D# 2
	C# 2
	E_ 2
	C# 2
	G# 4
	A_ 4
	F# 4
	octave 3
	B_ 4
	octave 4
	F# 4
	G_ 4
	F# 2
	E_ 2
	F# 2
	D_ 2
	C_ 4
	D_ 4
	C_ 4
	octave 3
	B_ 2
	B_ 2
	octave 4
	F# 4
	G_ 4
	F# 2
	E_ 2
	G_ 2
	E_ 2
	B_ 4
	octave 5
	C_ 4
	F_ 4
	E_ 4
	octave 4
	E_ 4
	octave 3
	E_ 4
	octave 5
	D_ 4
	octave 4
	D_ 4
	octave 3
	D_ 4
	octave 4
	G_ 4
	octave 3
	G_ 4
	octave 2
	G_ 4
	octave 5
	C_ 4
	octave 4
	C_ 4
	octave 3
	C_ 4
	octave 4
	A_ 4
	octave 3
	A_ 4
	octave 2
	A_ 4
	octave 4
	B_ 4
	octave 3
	B_ 4
	octave 2
	B_ 4
	octave 5
	C_ 4
	octave 4
	C_ 4
	octave 3
	C_ 4
	octave 5
	D_ 4
	octave 4
	D_ 4
	octave 3
	D_ 4
	notetype 15, 10, 0
	octave 5
	D# 16
	notetype 12, 10, 0
	rest 12
	notetype 15, 10, 0
	octave 3
	F_ 16
	notetype 12, 10, 0
	rest 12
	notetype 15, 10, 0
	D_ 16
	notetype 12, 10, 0
	rest 12
	notetype 15, 10, 0
	F_ 16
	rest 10
	notetype 12, 11, 6
	loopchannel 0, .looppoint

HoennChamp_Ch1_sub0:
	octave 3
	G_ 2
	G_ 2
	G_ 2
	G# 6
	A# 4
	E_ 2
	E_ 2
	E_ 2
	F_ 6
	G# 4
	G_ 2
	G_ 2
	G_ 2
	G# 6
	A# 4
	octave 4
	C_ 2
	C_ 2
	C_ 2
	C# 6
	D# 4
	endchannel
	
HoennChamp_Ch1_sub1:
	E_ 14
	C_ 2
	octave 2
	E_ 4
	G_ 2
	octave 3
	C_ 4
	E_ 4
	G# 2
	A# 14
	A_ 2
	A# 2
	A_ 2
	A# 4
	A# 1
	rest 1
	A# 1
	rest 1
	G# 4
	endchannel

HoennChamp_Ch3:
	notetype 12, 1, 4
	octave 4
	C_ 2
	octave 3
	G_ 2
	B_ 2
	F# 2
	A# 2
	F_ 2
	G# 2
	E_ 2
	G_ 2
	D# 2
	F# 2
	D_ 2
	F_ 2
	C# 2
	D# 2
	C# 2
	C_ 2
	F# 2
	A# 2
	F# 2
	F_ 2
	D# 2
	callchannel HoennChamp_Ch3_sub1
	callchannel HoennChamp_Ch3_sub1
	callchannel HoennChamp_Ch3_sub1
	octave 2
	B_ 2
	octave 3
	F# 2
	F_ 2
	D# 2
	C_ 2
	A# 2
	C_ 2
	F# 2
	F_ 2
	D# 2
	
.looppoint
	callchannel HoennChamp_Ch3_sub7
	callchannel HoennChamp_Ch3_sub7
	C_ 2
	octave 4
	C_ 2
	octave 3
	G_ 2
	E_ 2
	callchannel HoennChamp_Ch3_sub6
	C# 2
	G# 2
	F_ 2
	callchannel HoennChamp_Ch3_sub7
	C_ 2
	G_ 2
	C_ 2
	G_ 2
	octave 4
	C_ 2
	octave 3
	G_ 2
	E_ 2
	G_ 2
	E_ 2
	G_ 2
	callchannel HoennChamp_Ch3_sub6
	G# 2
	C# 2
	G# 2
	callchannel HoennChamp_Ch3_sub0
	G# 2
	C# 2
	G# 2
	D# 2
	A# 2
	D# 2
	A# 2
	D# 2
	A# 2
	D# 2
	A# 2
	D# 2
	A# 2
	D# 2
	A# 2
	D# 2
	A# 2
	D# 2
	A# 2
	callchannel HoennChamp_Ch3_sub5
	F_ 2
	G_ 2
	F_ 2
	G_ 2
	F_ 2
	C_ 2
	octave 3
	G_ 2
	callchannel HoennChamp_Ch3_sub5
	G_ 2
	octave 3
	B_ 2
	octave 4
	F# 2
	octave 3
	A# 2
	octave 4
	F_ 2
	octave 3
	A_ 2
	octave 4
	E_ 2
	octave 3
	C_ 2
	C_ 2
	C_ 2
	C# 6
	D# 4
	octave 2
	G_ 2
	G_ 2
	G_ 2
	callchannel HoennChamp_Ch3_sub3
	callchannel HoennChamp_Ch3_sub3
	callchannel HoennChamp_Ch3_sub3
	octave 3
	C# 4
	G# 2
	D_ 4
	callchannel HoennChamp_Ch3_sub4
	octave 3
	callchannel HoennChamp_Ch3_sub4
	callchannel HoennChamp_Ch3_sub2
	C_ 2
	callchannel HoennChamp_Ch3_sub2
	F_ 2
	callchannel HoennChamp_Ch3_sub2
	C_ 2
	callchannel HoennChamp_Ch3_sub2
	F_ 2
	octave 3
	A_ 4
	E_ 4
	octave 2
	A_ 4
	octave 3
	G_ 4
	D_ 4
	octave 2
	G_ 4
	octave 3
	C_ 4
	E_ 4
	G_ 4
	F_ 4
	C_ 4
	octave 2
	F_ 4
	G_ 2
	octave 3
	D_ 2
	octave 2
	G_ 2
	octave 3
	D_ 2
	octave 2
	G_ 2
	octave 3
	D_ 2
	octave 2
	A_ 2
	octave 3
	E_ 2
	octave 2
	A_ 2
	octave 3
	E_ 2
	octave 2
	A_ 2
	octave 3
	E_ 2
	octave 2
	A# 2
	octave 3
	F_ 2
	octave 2
	A# 2
	octave 3
	F_ 2
	octave 2
	A# 2
	octave 3
	F_ 2
	callchannel HoennChamp_Ch3_sub7
	callchannel HoennChamp_Ch3_sub0
	G# 2
	C# 2
	G# 2
	callchannel HoennChamp_Ch3_sub0
	C# 2
	G# 2
	F_ 2
	loopchannel 0, .looppoint
	
HoennChamp_Ch3_sub0:
	C_ 2
	G_ 2
	C_ 2
	G_ 2
	C_ 2
	G_ 2
	C_ 2
	G_ 2
	C_ 2
	G_ 2
	C_ 2
	G_ 2
	C_ 2
	G_ 2
	C_ 2
	G_ 2
	C# 2
	G# 2
	C# 2
	G# 2
	C# 2
	G# 2
	C# 2
	G# 2
	C# 2
	G# 2
	C# 2
	G# 2
	C# 2
	endchannel
	
HoennChamp_Ch3_sub1:
	octave 2
	B_ 2
	octave 3
	F# 2
	F_ 2
	D# 2
	C_ 2
	D# 2
	F_ 2
	D# 2
	F_ 2
	octave 2
	B_ 2
	octave 3
	C_ 2
	F# 2
	A# 2
	F# 2
	F_ 2
	D# 2
	endchannel
	
HoennChamp_Ch3_sub2:
	octave 3
	E_ 2
	B_ 2
	E_ 2
	octave 4
	C_ 2
	octave 3
	E_ 2
	octave 4
	E_ 2
	octave 3
	E_ 2
	octave 4
	endchannel
	
HoennChamp_Ch3_sub3:
	G# 6
	octave 3
	C# 4
	C_ 2
	C_ 2
	C_ 2
	C# 6
	D# 4
	octave 2
	G_ 2
	G_ 2
	G_ 2
	endchannel

HoennChamp_Ch3_sub4:
	C# 2
	G# 2
	C# 2
	A_ 2
	C# 2
	octave 4
	C# 2
	octave 3
	C# 2
	A_ 2
	C# 2
	G# 2
	C# 2
	A_ 2
	C# 2
	octave 4
	C# 2
	octave 3
	C# 2
	octave 4
	D_ 2
	endchannel

HoennChamp_Ch3_sub5:
	C_ 2
	G_ 2
	octave 4
	C_ 2
	octave 3
	C_ 2
	G_ 2
	octave 4
	C_ 2
	octave 3
	C_ 2
	G_ 2
	octave 4
	C_ 2
	endchannel

HoennChamp_Ch3_sub6:
	C# 2
	G# 2
	C# 2
	G# 2
	C# 2
	G# 2
	C# 2
	G# 2
	C# 2
	G# 2
	C# 2
	G# 2
	C# 2
	endchannel

HoennChamp_Ch3_sub7:
	C_ 2
	G_ 2
	C_ 2
	G_ 2
	C_ 2
	G_ 2
	endchannel
	
HoennChamp_Ch2_sub0:
	C_ 2
	C# 6
	D# 4
	octave 3
	G_ 2
	G_ 2
	G_ 2
	G# 6
	octave 4
	C# 4
	C_ 2
	C_ 2
	C_ 2
	C# 6
	D# 4
	D# 2
	D# 2
	D# 2
	F_ 6
	F# 4
	endchannel
	
HoennChamp_Ch2:
	duty 3
	vibrato 8, 3, 6
	notetype 12, 12, 6
	octave 5
	G_ 1
	callchannel HoennChamp_Ch2_sub2
	G_ 1
	callchannel HoennChamp_Ch2_sub2
	octave 4
	C_ 2
	rest 4
	C# 2
	rest 4
	D# 4
	octave 3
	G_ 2
	rest 4
	G# 2
	rest 4
	A# 4
	octave 4
	callchannel HoennChamp_Ch2_sub3
	F# 4
	octave 5
	C_ 2
	rest 4
	C# 2
	rest 4
	D# 4
	octave 4
	G_ 2
	rest 4
	G# 2
	rest 4
	A# 4
	octave 5
	callchannel HoennChamp_Ch2_sub3
	G_ 4
	
.looppoint
	octave 4
	callchannel HoennChamp_Ch2_sub1
	callchannel HoennChamp_Ch2_sub1
	octave 3
	G_ 6
	G# 6
	octave 4
	C# 4
	C_ 2
	C# 2
	C_ 2
	octave 3
	A# 4
	G# 2
	G_ 2
	F_ 2
	notetype 15, 10, 0
	G# 16
	notetype 12, 10, 0
	rest 12
	A# 6
	G# 2
	G_ 2
	F_ 2
	D# 2
	F_ 2
	G_ 6
	F_ 2
	D# 2
	C# 2
	C_ 2
	octave 2
	A# 2
	notetype 15, 10, 0
	octave 3
	F_ 16
	notetype 12, 10, 0
	rest 4
	G_ 4
	F_ 4
	notetype 15, 10, 0
	octave 4
	E_ 16
	notetype 12, 10, 0
	rest 12
	C_ 2
	C_ 2
	callchannel HoennChamp_Ch2_sub0
	C_ 2
	C_ 2
	callchannel HoennChamp_Ch2_sub0
	C# 4
	G# 4
	A_ 4
	G# 2
	F# 2
	G# 2
	E_ 2
	D_ 4
	E_ 4
	D_ 4
	C# 2
	C# 2
	G# 4
	A_ 4
	G# 2
	F# 2
	A_ 2
	F# 2
	octave 5
	C# 4
	D_ 4
	octave 4
	B_ 4
	E_ 4
	B_ 4
	octave 5
	C_ 4
	octave 4
	B_ 2
	A_ 2
	B_ 2
	G_ 2
	F_ 4
	G_ 4
	F_ 4
	E_ 2
	E_ 2
	B_ 4
	octave 5
	C_ 4
	octave 4
	B_ 2
	A_ 2
	octave 5
	C_ 2
	octave 4
	A_ 2
	octave 5
	E_ 4
	F_ 4
	A# 4
	A_ 4
	octave 4
	A_ 4
	octave 3
	A_ 4
	octave 5
	G_ 4
	octave 4
	G_ 4
	octave 3
	G_ 4
	octave 5
	C_ 4
	octave 4
	C_ 4
	octave 3
	C_ 4
	octave 5
	F_ 4
	octave 4
	F_ 4
	octave 3
	F_ 4
	octave 5
	D_ 4
	octave 4
	D_ 4
	octave 3
	D_ 4
	octave 5
	E_ 4
	octave 4
	E_ 4
	octave 3
	E_ 4
	octave 5
	F_ 4
	octave 4
	F_ 4
	octave 3
	F_ 4
	octave 5
	G_ 4
	octave 4
	G_ 4
	octave 3
	G_ 4
	notetype 15, 10, 0
	octave 5
	G# 16
	notetype 12, 10, 0
	rest 12
	notetype 15, 10, 0
	octave 3
	A# 16
	notetype 12, 10, 0
	rest 12
	notetype 15, 10, 0
	G_ 16
	notetype 12, 10, 0
	rest 12
	notetype 15, 10, 0
	A# 16
	rest 10
	notetype 12, 12, 6
	loopchannel 0, .looppoint
	
HoennChamp_Ch2_sub1:
	C_ 14
	octave 3
	G_ 2
	octave 4
	C_ 2
	octave 3
	G_ 2
	C_ 2
	G_ 4
	C_ 2
	octave 4
	C_ 2
	F_ 2
	F# 14
	F_ 2
	F# 2
	F_ 2
	F# 12
	endchannel

HoennChamp_Ch2_sub2:
	G# 1
	A# 2
	G_ 1
	G# 1
	A# 2
	G_ 1
	G# 1
	A# 2
	G_ 1
	G# 1
	A# 2
	endchannel

HoennChamp_Ch2_sub3:
	C_ 2
	rest 4
	C# 2
	rest 4
	D# 4
	D# 2
	rest 4
	F_ 2
	rest 4
	endchannel
