IrisBattle_Ch1::
	tempo 200
	vibrato 9, 3, 4
	duty 3
	notetype 12, 10, 0
	toggleperfectpitch
	octave 4
	G_ 8
	notetype 12, 10, 5
	G_ 5
	notetype 12, 10, 2
	F_ 1
	E_ 1
	D_ 1
	notetype 12, 10, 5
	C_ 4
	E_ 4
	rest 2
	D_ 2
	D# 1
	D_ 2
	octave 3
	A_ 1
	octave 4
	notetype 12, 10, 0
	G_ 8
	notetype 12, 10, 5
	G_ 5
	notetype 12, 10, 2
	F_ 1
	E_ 1
	D_ 1
	notetype 12, 10, 5
	C_ 3
	E_ 5
	rest 1
	octave 3
	A_ 1
	B_ 1
	A_ 1
	notetype 8, 10, 6
	octave 4
	D# 2
	D_ 2
	C_ 2
	octave 3
	B_ 6
	octave 4
	G_ 6
	D_ 6
	A_ 6
	G_ 6
	D_ 6
	E_ 6
	octave 3
	A_ 6
	octave 2
	B_ 6
	octave 3
	G_ 6
	D_ 6
	A_ 6
	G_ 6
	D_ 6
	E_ 6
	octave 2
	G_ 6
IrisBattle_Ch1_loop:
	notetype 12, 10, 2
	octave 3
	D_ 1
	D_ 1
	rest 1
	C_ 1
	C_ 1
	rest 1
	F_ 1
	F_ 1
	rest 1
	D_ 1
	D_ 1
	rest 1
	octave 4
	B_ 2	
	notetype 8, 10, 2
	G# 1
	B_ 1
	G# 1
	notetype 12, 10, 7
	G_ 7
	octave 3
	F_ 1
	rest 1
	D_ 1
	D_ 1
	rest 1
	notetype 6, 10, 2
	octave 5
	C_ 1
	octave 4
	G_ 1
	F_ 1
	D_ 1
	C_ 1
	octave 3
	A_ 1
	G_ 1
	F_ 1
	D_ 8
	C_ 2
	C_ 2
	rest 2
	F_ 2
	F_ 2
	rest 2
	octave 4
	F_ 4
	notetype 8, 10, 2
	D# 1
	F_ 1
	D# 1
	notetype 12, 10, 2
	D_ 1
	C_ 1
	octave 3
	B_ 2
	D_ 1
	C_ 1
	C_ 1
	rest 2
	F_ 1
	F_ 1
	notetype 6, 10, 2
	rest 3
	G_ 1
	G# 1
	octave 4
	C_ 1
	D_ 1
	F_ 1
	G_ 1
	G# 1
	octave 5
	C_ 1
	D_ 1
	octave 4
	D_ 2
	notetype 12, 10, 0
	G_ 12
	octave 2
	notetype 12, 10, 2
	F_ 1
	C# 1
	C_ 1
	octave 1
	A# 1
	G_ 1
	octave 2
	G_ 1
	octave 1
	F_ 1
	octave 2
	F_ 1
	octave 1
	G_ 1
	octave 2
	G_ 1
	octave 1
	A# 1
	octave 2
	A# 1
	notetype 6, 10, 5
	G_ 1
	rest 1
	C# 1
	rest 1
	G_ 1
	rest 1
	F_ 4
	octave 3
	A_ 2
	octave 4
	C_ 2
	octave 3
	B_ 2
	octave 1
	callchannel IrisBattle_Ch1_loop_sub_0
	G_ 1
	rest 1
	octave 1
	G_ 1
	rest 1
	octave 2
	G_ 1
	rest 1
	F_ 2
	octave 3
	B_ 4
	octave 2
	C_ 2
	octave 1
	A# 2
	callchannel IrisBattle_Ch1_loop_sub_0
	D# 1
	notetype 6, 7, 1
	D# 1
	D# 1
	notetype 6, 8, 1
	D# 1
	notetype 6, 10, 4
	D# 4
	notetype 6, 10, 1
	F_ 1
	notetype 6, 6, 1
	F_ 1
	F_ 1
	notetype 6, 8, 1
	F_ 1
	notetype 6, 10, 4
	F_ 4
	octave 1
	G_ 2
	G_ 2
	rest 2
	A# 4
	A_ 2
	G# 2
	G_ 2
	D# 2
	octave 2
	D# 2
	octave 1
	D# 2
	A# 2
	F_ 2
	octave 2
	F_ 2
	octave 1
	F_ 2
	octave 2
	C_ 2
	octave 4
	D_ 2
	octave 3
	D_ 2
	rest 2
	octave 4
	callchannel IrisBattle_Ch1_loop_sub_1
	octave 1
	C_ 2
	D_ 2
	octave 3
	D_ 2
	rest 2
	callchannel IrisBattle_Ch1_loop_sub_1
	A# 2
	A_ 2
	rest 4
	A_ 2
	rest 4
	D_ 4
	rest 2
	octave 3
	G_ 4
	G# 2
	A_ 4
	octave 4
	C_ 4
	octave 2
	A_ 8
	G# 4
	G_ 4
	F# 8
	D# 8
	D_ 16
	C_ 8
	D# 8
	notetype 12, 10, 7
	D_ 12
	rest 4
	octave 1
	G_ 8
	octave 2
	G_ 4
	octave 3
	G_ 2
	octave 4
	D_ 2
	C_ 1
	C_ 1
	C_ 1
	E_ 1
	rest 1
	E_ 1
	D_ 2
	F# 2
	F# 2
	C_ 1
	C_ 1
	C_ 1
	E_ 1
	rest 1
	E_ 1
	D_ 2
	F_ 2
	F_ 2
	octave 3
	A_ 1
	A_ 1
	A_ 1
	B_ 1
	rest 1
	B_ 1
	A_ 2
	B_ 2
	octave 4
	C_ 2
	octave 3
	G_ 8
	G_ 4
	A_ 12
	A_ 4
	rest 8
	octave 5
	F_ 1
	E_ 1
	F_ 1
	F# 1
	rest 1
	F_ 1
	F# 2
	octave 4
	G_ 12
	rest 1
	octave 3
	F# 1
	G_ 1
	octave 4
	callchannel IrisBattle_Ch1_loop_sub_2
	A_ 1
	octave 4
	D_ 1
	D# 2
	callchannel IrisBattle_Ch1_loop_sub_3
	D_ 1
	C_ 1
	D# 2
	G# 1
	octave 5
	D# 1
	D_ 6
	rest 1
	octave 3
	A_ 2
	octave 4
	A_ 12
	rest 1
	E_ 1
	D_ 1
	callchannel IrisBattle_Ch1_loop_sub_2
	B_ 1
	octave 4
	D_ 1
	E_ 2
	callchannel IrisBattle_Ch1_loop_sub_3
	octave 2
	F_ 1
	D# 1
	G_ 2
	A# 1
	octave 3
	F_ 1
	D# 2
	C_ 1
	octave 2
	A# 1
	A_ 2
	octave 3
	C_ 1
	A_ 1
	notetype 15, 10, 0
	octave 4
	G_ 16
	G_ 4
	notetype 12, 10, 7
	G_ 8
	octave 1
	F_ 4
	G_ 4
	C_ 4
	G# 4
	G_ 1
	rest 2
	G_ 1
	rest 1
	F_ 1
	G_ 1
	D_ 1
	rest 1
	G_ 1
	rest 1
	G_ 1
	rest 1
	F_ 1
	G_ 1
	octave 2
	D_ 1
	loopchannel 0, IrisBattle_Ch1_loop
IrisBattle_Ch1_loop_sub_0:
	G_ 2
	octave 2
	G_ 2
	octave 1
	F_ 2
	octave 2
	F_ 2
	octave 1
	G_ 2
	octave 2
	G_ 2
	octave 1
	A# 2
	octave 2
	A# 2
	endchannel
IrisBattle_Ch1_loop_sub_1:
	F_ 4
	E_ 2
	D# 2
	D_ 2
	rest 2
	octave 1
	B_ 2
	A# 2
	rest 2
	octave 2
	C# 2
	C_ 2
	rest 2
	endchannel
IrisBattle_Ch1_loop_sub_2:
	C_ 1
	octave 3
	B_ 2
	octave 4
	C_ 1
	octave 3
	B_ 9
	rest 1
	octave 4
	F_ 4
	octave 3
	endchannel
IrisBattle_Ch1_loop_sub_3:
	A_ 1
	B_ 1
	D_ 2
	octave 3
	A_ 1
	B_ 1
	octave 4
	D_ 5
	rest 1
	endchannel
IrisBattle_Ch3_sub_0:
	G_ 2
	G_ 4
	octave 2
	G_ 1
	octave 1
	F_ 1
	rest 2
	F_ 4
	octave 2
	G_ 1
	octave 1
	E_ 1
	rest 2
	E_ 4
	octave 2
	G_ 1
	octave 1
	D# 5
	F_ 4
	endchannel
IrisBattle_Ch3::
	vibrato 0, 0, 0
	notetype 12, 1, 4
	octave 1
	callchannel IrisBattle_Ch3_sub_0
	callchannel IrisBattle_Ch3_sub_0
	G_ 1
	rest 2
	G_ 1
	rest 1
	F_ 1
	G_ 1
	D_ 1
	rest 1
	G_ 1
	rest 1
	G_ 1
	rest 1
	F_ 1
	G_ 1
	octave 2
	D_ 1
	octave 1
	G_ 1
	rest 2
	G_ 1
	rest 1
	F_ 1
	G_ 2
	rest 1
	G_ 1
	rest 1
	G_ 1
	octave 2
	D_ 1
	rest 1
	octave 1
	G_ 1
	D_ 1
	G_ 3
	octave 2
	D_ 3
	G_ 3
	D_ 3
	G_ 2
	A_ 2
	octave 1
	G_ 3
	octave 2
	D_ 3
	G_ 3
	D_ 3
	G_ 2
	A_ 2
IrisBattle_Ch3_loop:
	notetype 12, 1, 4
	octave 1
	G_ 1
	octave 2
	callchannel IrisBattle_Ch3_loop_sub_0
	callchannel IrisBattle_Ch3_loop_sub_0
	callchannel IrisBattle_Ch3_loop_sub_0
	callchannel IrisBattle_Ch3_loop_sub_0
	callchannel IrisBattle_Ch3_loop_sub_0
	callchannel IrisBattle_Ch3_loop_sub_0
	callchannel IrisBattle_Ch3_loop_sub_0
	callchannel IrisBattle_Ch3_loop_sub_0
	G_ 1
	octave 1
	F_ 1
	octave 2
	F_ 1
	octave 1
	G_ 1
	octave 2
	G_ 1
	octave 1
	A# 1
	octave 2
	A# 1
	notetype 6, 1, 4
	G_ 1
	rest 1
	G_ 1
	rest 1
	callchannel IrisBattle_Ch3_loop_sub_4
	G_ 1
	rest 1
	C# 1
	rest 1
	G_ 1
	rest 1
	F_ 4
	C# 2
	C_ 2
	octave 1
	A# 2
	notetype 6, 1, 4
	G_ 2
	octave 2
	G_ 2
	octave 1
	F_ 2
	octave 2
	F_ 2
	octave 1
	G_ 2
	octave 2
	G_ 2
	octave 1
	A# 2
	octave 2
	A# 2
	G_ 1
	rest 1
	octave 1
	G_ 2
	octave 2
	callchannel IrisBattle_Ch3_loop_sub_4
	callchannel IrisBattle_Ch3_loop_sub_5
	callchannel IrisBattle_Ch3_loop_sub_6
	callchannel IrisBattle_Ch3_loop_sub_2
	callchannel IrisBattle_Ch3_loop_sub_2
	callchannel IrisBattle_Ch3_loop_sub_2
	octave 1
	D_ 2
	octave 2
	D_ 2
	octave 1
	C_ 2
	octave 2
	C_ 2
	octave 1
	D_ 2
	octave 2
	D_ 2
	octave 1
	F_ 2
	octave 2
	F_ 2
	octave 1
	D_ 2
	octave 2
	C_ 4
	C# 2
	D_ 4
	F_ 4
	callchannel IrisBattle_Ch3_loop_sub_1
	callchannel IrisBattle_Ch3_loop_sub_1
	callchannel IrisBattle_Ch3_loop_sub_1
	callchannel IrisBattle_Ch3_loop_sub_1
	callchannel IrisBattle_Ch3_loop_sub_1
	callchannel IrisBattle_Ch3_loop_sub_1
	callchannel IrisBattle_Ch3_loop_sub_9
	callchannel IrisBattle_Ch3_loop_sub_9
	callchannel IrisBattle_Ch3_loop_sub_1
	callchannel IrisBattle_Ch3_loop_sub_1
	callchannel IrisBattle_Ch3_loop_sub_1
	callchannel IrisBattle_Ch3_loop_sub_1
	callchannel IrisBattle_Ch3_loop_sub_1
	callchannel IrisBattle_Ch3_loop_sub_6
	octave 1
	callchannel IrisBattle_Ch3_loop_sub_3
	B_ 2
	octave 2
	B_ 2
	octave 1
	B_ 2
	octave 2
	B_ 2
	C_ 2
	C_ 2
	C_ 2
	D_ 2
	rest 2
	D_ 2
	C_ 4
	octave 1
	B_ 2
	octave 2
	D_ 2
	F# 2
	callchannel IrisBattle_Ch3_loop_sub_10
	octave 2
	D_ 2
	F_ 2
	callchannel IrisBattle_Ch3_loop_sub_10
	G_ 2
	octave 2
	D_ 2
	G_ 2
	D# 2
	A# 2
	D# 2
	A# 2
	D# 2
	A# 2
	D# 2
	octave 3
	D# 2
	octave 2
	D# 2
	A# 2
	D# 2
	octave 3
	D# 2
	octave 2
	callchannel IrisBattle_Ch3_loop_sub_8
	octave 2
	callchannel IrisBattle_Ch3_loop_sub_8
	octave 1
	D_ 2
	octave 2
	D_ 2
	rest 4
	D_ 2
	octave 1
	D_ 6
	octave 2
	C# 2
	C_ 2
	C# 2
	D_ 2
	rest 2
	C# 2
	D_ 2
	rest 2
	octave 1
	callchannel IrisBattle_Ch3_loop_sub_3
	G_ 2
	octave 2
	G_ 2
	octave 1
	G_ 2
	octave 2
	G_ 2
	callchannel IrisBattle_Ch3_loop_sub_1
	callchannel IrisBattle_Ch3_loop_sub_5
	octave 1
	callchannel IrisBattle_Ch3_loop_sub_7
	octave 0
	B_ 2
	octave 1
	B_ 2
	octave 0
	B_ 2
	octave 1
	B_ 2
	octave 0
	B_ 2
	octave 1
	B_ 2
	octave 0
	B_ 2
	octave 1
	B_ 2
	octave 2
	C_ 4
	octave 3
	C_ 2
	octave 1
	B_ 4
	B_ 2
	octave 2
	B_ 2
	E_ 4
	octave 3
	E_ 2
	octave 2
	E_ 2
	D_ 4
	octave 1
	D_ 2
	octave 2
	D_ 2
	octave 1
	B_ 2
	octave 2
	D# 2
	octave 3
	D# 2
	octave 2
	D# 2
	octave 3
	D# 2
	octave 2
	D# 2
	octave 3
	F_ 2
	octave 2
	D# 2
	octave 3
	D# 2
	rest 2
	octave 2
	D_ 2
	rest 4
	D_ 2
	octave 1
	D_ 2
	E_ 2
	F# 2
	callchannel IrisBattle_Ch3_loop_sub_3
	callchannel IrisBattle_Ch3_loop_sub_3
	F# 2
	octave 2
	F# 2
	octave 1
	F# 2
	octave 2
	F# 2
	octave 1
	F# 2
	octave 2
	F# 2
	octave 1
	F# 2
	octave 2
	F# 2
	octave 1
	callchannel IrisBattle_Ch3_loop_sub_7
	callchannel IrisBattle_Ch3_loop_sub_1
	callchannel IrisBattle_Ch3_loop_sub_1
	callchannel IrisBattle_Ch3_loop_sub_9
	callchannel IrisBattle_Ch3_loop_sub_1
	octave 1
	callchannel IrisBattle_Ch3_loop_sub_3
	F_ 2
	octave 2
	E_ 2
	octave 1
	F_ 2
	octave 2
	E_ 2
	callchannel IrisBattle_Ch3_loop_sub_5
	callchannel IrisBattle_Ch3_loop_sub_5
	callchannel IrisBattle_Ch3_loop_sub_6
	callchannel IrisBattle_Ch3_loop_sub_6
	G_ 8
	octave 1
	G_ 16
	F_ 8
	G# 16
	G_ 16
	F_ 8
	G_ 8
	C_ 8
	G# 8
	G_ 2
	rest 4
	G_ 2
	rest 2
	F_ 2
	G_ 2
	D_ 2
	rest 2
	G_ 2
	rest 2
	G_ 2
	rest 2
	F_ 2
	G_ 2
	octave 2
	D_ 2
	loopchannel 0, IrisBattle_Ch3_loop
IrisBattle_Ch3_loop_sub_0:
	D_ 1
	octave 1
	G_ 1
	octave 2
	G_ 1
	octave 1
	G_ 1
	octave 2
	F_ 1
	octave 1
	G_ 1
	octave 2
	D_ 1
	octave 1
	G_ 1
	octave 2
	endchannel
IrisBattle_Ch3_loop_sub_1:
	octave 1
	D_ 2
	octave 2
	D_ 2
	octave 1
	D_ 2
	octave 2
	D_ 2
	endchannel
IrisBattle_Ch3_loop_sub_2:
	octave 1
	G_ 2
	G_ 2
	rest 2
	A# 4
	A_ 2
	G# 2
	G_ 2
	D# 2
	octave 2
	D# 2
	octave 1
	D# 2
	A# 2
	F_ 2
	octave 2
	F_ 2
	octave 1
	F_ 2
	octave 2
	C_ 2
	endchannel
IrisBattle_Ch3_loop_sub_3:
	G_ 2
	octave 2
	G_ 2
	octave 1
	G_ 2
	octave 2
	G_ 2
	octave 1
	endchannel
IrisBattle_Ch3_loop_sub_4:
	G_ 1
	rest 1
	F_ 4
	C# 2
	C_ 2
	octave 1
	A# 2
	G_ 2
	octave 2
	G_ 2
	octave 1
	F_ 2
	octave 2
	F_ 2
	octave 1
	G_ 2
	octave 2
	G_ 2
	octave 1
	A# 2
	octave 2
	A# 2
	endchannel
IrisBattle_Ch3_loop_sub_5:
	octave 1
	D# 2
	octave 2
	D# 2
	octave 1
	D# 2
	octave 2
	D# 2
	endchannel
IrisBattle_Ch3_loop_sub_6:
	octave 1
	F_ 2
	octave 2
	F_ 2
	octave 1
	F_ 2
	octave 2
	F_ 2
	endchannel
IrisBattle_Ch3_loop_sub_7:
	E_ 2
	octave 2
	E_ 2
	octave 1
	E_ 2
	octave 2
	E_ 2
	octave 1
	E_ 2
	octave 2
	E_ 2
	octave 1
	E_ 2
	octave 2
	E_ 2
	endchannel
IrisBattle_Ch3_loop_sub_8:
	D_ 2
	octave 3
	D_ 2
	octave 2
	D_ 2
	octave 3
	D_ 2
	octave 2
	D_ 2
	octave 3
	D_ 2
	octave 2
	D_ 2
	octave 3
	D_ 2
	endchannel
IrisBattle_Ch3_loop_sub_9:
	octave 1
	C_ 2
	octave 2
	C_ 2
	octave 1
	C_ 2
	octave 2
	C_ 2
	endchannel
IrisBattle_Ch3_loop_sub_10:
	octave 1
	G_ 2
	octave 2
	C_ 2
	C_ 2
	C_ 2
	D_ 2
	rest 2
	D_ 2
	C_ 4
	octave 1
	B_ 2
	endchannel
IrisBattle_Ch2::
	vibrato 9, 3, 4
	duty 3
	notetype 12, 12, 0
	octave 5
	D_ 8
	notetype 12, 12, 6
	D_ 5
	C_ 1
	octave 4
	notetype 12, 12, 4
	B_ 1
	A_ 1
	G_ 4
	B_ 4
	rest 2
	G_ 2
	A_ 1
	G_ 2
	D_ 1
	octave 5
	notetype 12, 12, 0
	D_ 8
	notetype 12, 12, 6
	D_ 5
	C_ 1
	octave 4
	notetype 12, 12, 4
	B_ 1
	A_ 1
	G_ 3
	B_ 5
	rest 1
	D_ 1
	E_ 1
	D_ 1
	notetype 8, 12, 6
	A_ 2
	G_ 2
	F_ 2
	G_ 6
	octave 5
	D_ 6
	octave 4
	A_ 6
	octave 5
	E_ 6
	D_ 6
	octave 4
	A_ 6
	B_ 6
	E_ 6
	octave 3
	G_ 6
	octave 4
	D_ 6
	octave 3
	A_ 6
	octave 4
	E_ 6
	D_ 6
	octave 3
	A_ 6
	B_ 6
	D_ 6
IrisBattle_Ch2_loop:
	notetype 12, 12, 2
	G_ 1
	callchannel IrisBattle_Ch2_loop_sub_2
	G_ 1
	callchannel IrisBattle_Ch2_loop_sub_2
	rest 1
	G_ 1
	G_ 1
	rest 1
	F_ 1
	F_ 1
	rest 1
	A_ 1
	A_ 1
	rest 1
	G_ 1
	F_ 1
	F_ 1
	G# 1
	G# 1
	rest 2
	G_ 1
	G_ 1
	F_ 1
	F_ 1
	rest 2
	A_ 1
	A_ 1
	rest 1
	G_ 1
	G_ 1
	octave 4
	F_ 1
	G# 1
	G# 1
	G_ 1
	octave 2
	G_ 1
	octave 3
	G_ 1
	octave 2
	F_ 1
	octave 3
	F_ 1
	octave 2
	G_ 1
	octave 3
	G_ 1
	octave 2
	A# 1
	octave 3
	A# 1
	notetype 6, 12, 2
	G_ 1
	rest 1
	G_ 1
	rest 1
	G_ 1
	rest 1
	F_ 4
	C# 2
	C_ 2
	octave 2
	A# 2
	callchannel IrisBattle_Ch2_loop_sub_1
	C# 1
	rest 1
	G_ 1
	rest 1
	F_ 4
	octave 4
	F_ 2
	G# 2
	G_ 2
	octave 2
	callchannel IrisBattle_Ch2_loop_sub_1
	octave 2
	G_ 1
	rest 1
	octave 3
	G_ 1
	rest 1
	F_ 2
	octave 4
	G_ 4
	octave 3
	C_ 2
	octave 2
	A# 2
	octave 3
	G_ 2
	octave 4
	G_ 2
	octave 3
	F_ 2
	octave 4
	F_ 2
	octave 3
	G_ 2
	octave 4
	G_ 2
	octave 3
	A# 2
	octave 4
	A# 2
	octave 3
	G# 1
	octave 4
	G# 1
	C_ 1
	octave 5
	C_ 1
	octave 4
	D# 1
	octave 5
	D# 1
	octave 4
	G# 1
	octave 5
	G# 1
	octave 4
	C_ 1
	octave 5
	C_ 1
	octave 4
	F_ 1
	octave 5
	F_ 1
	octave 4
	A_ 1
	octave 5
	A_ 1
	C_ 1
	octave 6
	C_ 1
	octave 2
	G_ 2
	G_ 2
	rest 2
	A# 4
	A_ 2
	G# 2
	G_ 2
	D# 2
	octave 5
	G_ 2
	C# 2
	C_ 2
	octave 4
	A# 2
	F_ 2
	D# 2
	octave 3
	A# 2
	octave 4
	G_ 2
	octave 3
	G_ 4
	octave 4
	callchannel IrisBattle_Ch2_loop_sub_3
	octave 1
	F_ 2
	G_ 2
	octave 3
	G_ 2
	rest 2
	callchannel IrisBattle_Ch2_loop_sub_3
	octave 3
	G_ 2
	F# 2
	rest 4
	F# 2
	rest 4
	octave 2
	A_ 4
	rest 2
	octave 4
	C_ 4
	C# 2
	D_ 4
	F_ 4
	octave 3
	D_ 8
	C# 4
	C_ 4
	octave 2
	B_ 8
	G# 8
	G_ 16
	F_ 8
	G# 8
	G_ 8
	octave 4
	F_ 16
	D# 6
	F_ 1
	D# 1
	D_ 8
	octave 2
	D_ 12
	octave 3
	D_ 12
	callchannel IrisBattle_Ch2_loop_sub_4
	callchannel IrisBattle_Ch2_loop_sub_4
	octave 4
	D_ 2
	D_ 2
	D_ 2
	E_ 2
	rest 2
	E_ 2
	D_ 4
	G_ 4
	A_ 4
	F_ 16
	F_ 8
	notetype 12, 12, 0
	F# 12
	notetype 12, 12, 4
	F# 4
	octave 3
	D_ 1
	octave 4
	D_ 1
	rest 2
	D_ 1
	octave 3
	D_ 3
	octave 4
	C# 1
	C_ 1
	C# 1
	D_ 1
	rest 1
	C# 1
	D_ 1
	D_ 1
	octave 5
	D_ 12
	rest 1
	octave 4
	D_ 1
	E_ 1
	callchannel IrisBattle_Ch2_loop_sub_0
	F_ 1
	D# 1
	G# 2
	octave 5
	C_ 1
	G_ 1
	F# 6
	rest 1
	octave 4
	D_ 2
	octave 5
	D_ 12
	rest 1
	C_ 1
	octave 4
	B_ 1
	callchannel IrisBattle_Ch2_loop_sub_0
	octave 3
	F_ 1
	D# 1
	G_ 2
	A# 1
	octave 4
	F_ 1
	D# 2
	C_ 1
	octave 3
	A# 1
	A_ 2
	octave 4
	C_ 1
	A_ 1
	notetype 15, 12, 0
	octave 5
	D_ 16
	notetype 15, 12, 4
	D_ 4
	notetype 12, 12, 7
	D_ 8
	octave 2
	notetype 12, 12, 5
	F_ 4
	G_ 4
	C_ 4
	G# 4
	G_ 1
	rest 2
	G_ 1
	rest 1
	F_ 1
	G_ 1
	D_ 1
	rest 1
	G_ 1
	rest 1
	G_ 1
	rest 1
	F_ 1
	G_ 1
	octave 3
	D_ 1
	loopchannel 0, IrisBattle_Ch2_loop
IrisBattle_Ch2_loop_sub_0:
	A_ 1
	G_ 2
	A_ 1
	G_ 9
	rest 1
	octave 5
	D_ 4
	octave 4
	E_ 1
	G_ 1
	A_ 2
	octave 5
	D_ 1
	E_ 1
	octave 4
	G_ 2
	D_ 1
	E_ 1
	G_ 5
	rest 1
	endchannel
IrisBattle_Ch2_loop_sub_1:
	G_ 2
	octave 3
	G_ 2
	octave 2
	F_ 2
	octave 3
	F_ 2
	octave 2
	G_ 2
	octave 3
	G_ 2
	octave 2
	A# 2
	octave 3
	A# 2
	G_ 1
	rest 1
	endchannel
IrisBattle_Ch2_loop_sub_2:
	G_ 1
	rest 1
	F_ 1
	F_ 1
	rest 1
	A_ 1
	A_ 1
	rest 1
	G_ 1
	G_ 1
	rest 1
	F_ 1
	F_ 1
	G# 1
	G# 1
	endchannel
IrisBattle_Ch2_loop_sub_3:
	A# 4
	A_ 2
	G# 2
	G_ 2
	rest 2
	octave 2
	E_ 2
	D# 2
	rest 2
	F# 2
	F_ 2
	rest 2
	endchannel
IrisBattle_Ch2_loop_sub_4:
	octave 4
	G_ 2
	G_ 2
	G_ 2
	B_ 2
	rest 2
	B_ 2
	A_ 4
	octave 5
	D_ 4
	D_ 4
	endchannel
