MaskedBattle_Ch1_sub_0:
	D# 1
	C_ 1
	D# 1
	G_ 1
	D# 1
	C_ 1
	D# 1
	G_ 1
	D# 1
	C_ 1
	D# 1
	endchannel
MaskedBattle_Ch1::
	tempo 137
	notetype 12, 0, 0
	rest 8
	vibrato 4, 3, 4
	toggleperfectpitch
	duty 0
	notetype 12, 8, 0
	octave 2
	G# 8
	A# 8
	D# 8
	F_ 8
	G_ 16
	F_ 16
	tempo 128
	notetype 12, 13, 2
	duty 3
	G# 1
	G# 2
	G_ 1
	G_ 2
	G# 1
	G# 2
	G_ 1
	G_ 2
	G# 1
	G# 1
	G_ 1
	G_ 1
	notetype 12, 8, 1
	duty 2
	octave 4
	G_ 1
	callchannel MaskedBattle_Ch1_sub_0
	G_ 1
	callchannel MaskedBattle_Ch1_sub_0
	notetype 12, 13, 2
	duty 3
	octave 2
	G_ 1
	G_ 2
	G_ 1
	G_ 2
	G_ 1
	G_ 1
MaskedBattle_Ch1_loop:
	notetype 12, 8, 1
	octave 4
	duty 2
	G_ 1
	callchannel MaskedBattle_Ch1_loop_sub_0
	G_ 1
	callchannel MaskedBattle_Ch1_loop_sub_0
	G# 1
	D# 1
	C_ 1
	D# 1
	G# 1
	D# 1
	C_ 1
	D# 1
	G# 1
	D# 1
	C_ 1
	D# 1
	G# 1
	D# 1
	C_ 1
	D# 1
	G_ 1
	D_ 1
	C_ 1
	D_ 1
	G_ 1
	D_ 1
	C_ 1
	D_ 1
	G_ 1
	D_ 1
	C_ 1
	D_ 1
	G_ 1
	D_ 1
	C_ 1
	D_ 1
	octave 3
	duty 3
	notetype 12, 13, 5
	callchannel MaskedBattle_Ch1_loop_sub_1
	octave 4
	C_ 1
	octave 3
	callchannel MaskedBattle_Ch1_loop_sub_1
	G_ 1
	octave 4
	C_ 1
	octave 3
	A# 2
	G_ 1
	A# 2
	octave 4
	C_ 1
	octave 3
	A# 2
	G_ 1
	A# 1
	G_ 1
	octave 4
	C_ 1
	octave 3
	A# 1
	octave 4
	C_ 1
	D# 1
	F_ 1
	D_ 2
	C_ 1
	D_ 2
	F_ 1
	D_ 2
	C_ 1
	D_ 1
	C_ 1
	F_ 1
	D_ 1
	F_ 1
	D_ 1
	octave 3
	notetype 12, 13, 3
	G# 1
	G# 1
	G# 1
	A# 1
	octave 4
	C_ 1
	C_ 1
	octave 3
	A# 1
	G# 1
	G_ 1
	G_ 1
	rest 1
	D# 2
	D# 1
	D# 1
	D# 1
	G# 1
	G# 1
	G# 1
	A# 1
	octave 4
	C_ 1
	C_ 1
	D_ 1
	C_ 1
	D_ 1
	D# 1
	rest 1
	D# 2
	D# 1
	D# 1
	notetype 6, 13, 3
	C_ 1
	octave 3
	A# 1
	G# 2
	G# 2
	G# 2
	A# 2
	octave 4
	C_ 2
	C_ 2
	octave 3
	A# 2
	G# 2
	F_ 2
	G_ 2
	rest 2
	D# 4
	D# 2
	D# 2
	C_ 1
	D# 1
	G# 2
	G# 2
	G# 2
	A# 2
	G# 2
	G# 2
	F_ 2
	D_ 2
	D_ 2
	D# 2
	octave 2
	A# 2
	G_ 6
	octave 3
	D_ 2
	D_ 2
	notetype 12, 13, 5
	rest 16
	rest 12
	D# 2
	G_ 2
	octave 4
	C_ 2
	octave 3
	A# 1
	G# 1
	notetype 8, 13, 4
	G_ 2
	F_ 2
	G_ 2
	A# 3
	notetype 12, 13, 4
	G# 1
	G_ 1
	notetype 8, 13, 4
	F_ 2
	D# 2
	F_ 2
	G_ 2
	G# 2
	G_ 2
	G# 2
	G_ 2
	G# 2
	notetype 12, 13, 2
	G_ 1
	G_ 1
	G_ 1
	G_ 1
	notetype 6, 13, 1
	G_ 1
	G_ 1
	G_ 1
	G_ 1
	G_ 1
	G_ 1
	G_ 1
	G_ 1
	loopchannel 0, MaskedBattle_Ch1_loop
MaskedBattle_Ch1_loop_sub_0:
	D# 1
	C_ 1
	D# 1
	G_ 1
	D# 1
	C_ 1
	D# 1
	G_ 1
	D# 1
	C_ 1
	D# 1
	G_ 1
	D# 1
	C_ 1
	D# 1
	endchannel
MaskedBattle_Ch1_loop_sub_1:
	A# 1
	G_ 2
	F_ 1
	G_ 2
	A# 1
	G_ 2
	F_ 1
	G_ 2
	A# 1
	G_ 1
	A# 1
	endchannel
MaskedBattle_Ch2::
	vibrato 6, 6, 3
	duty 3
	notetype 12, 13, 5
	octave 3
	C_ 4
	G_ 4
	octave 4
	C_ 4
	octave 3
	A# 2
	G# 2
	notetype 8, 13, 5
	G_ 4
	F_ 4
	G_ 4
	A# 6
	G# 3
	G_ 3
	F_ 4
	D# 4
	F_ 4
	notetype 8, 12, 3
	G_ 3
	G# 3
	notetype 8, 10, 3
	G_ 3
	G# 3
	G_ 3
	G# 3
	notetype 8, 8, 3
	G_ 3
	G# 3
	notetype 8, 10, 3
	G_ 3
	G# 3
	G_ 3
	notetype 8, 12, 3
	F_ 3
	G_ 3
	G# 3
	G_ 3
	G# 3
	notetype 12, 13, 2
	octave 4
	C_ 1
	C_ 2
	octave 3
	B_ 1
	B_ 2
	octave 4
	C_ 1
	C_ 2
	octave 3
	B_ 1
	B_ 2
	octave 4
	C_ 1
	C_ 1
	octave 3
	B_ 1
	B_ 1
	octave 2
	notetype 12, 13, 0
	C_ 16
	notetype 12, 13, 5
	C_ 8
	octave 3
	notetype 12, 13, 3
	G_ 1
	G_ 2
	G_ 1
	G_ 2
	G_ 1
	G_ 1
MaskedBattle_Ch2_loop:
	notetype 12, 13, 4
	octave 4
	duty 3
	callchannel MaskedBattle_Ch2_loop_sub_0
	callchannel MaskedBattle_Ch2_loop_sub_0
	notetype 12, 13, 3
	C_ 1
	C_ 1
	C_ 1
	D_ 1
	D# 1
	D# 1
	D_ 1
	C_ 1
	octave 3
	A# 1
	octave 4
	C_ 1
	rest 1
	octave 3
	G_ 2
	G_ 1
	G_ 1
	G_ 1
	octave 4
	C_ 1
	C_ 1
	C_ 1
	D_ 1
	D# 1
	D# 1
	F_ 1
	D# 1
	F_ 1
	G_ 1
	rest 1
	G_ 2
	G_ 1
	G_ 1
	notetype 6, 13, 5
	D# 1
	D_ 1
	C_ 2
	C_ 2
	C_ 2
	D_ 2
	D# 2
	D# 2
	D_ 2
	C_ 2
	octave 3
	A# 2
	octave 4
	C_ 2
	rest 2
	octave 3
	G_ 4
	G_ 2
	G_ 2
	F_ 1
	G_ 1
	octave 4
	C_ 2
	C_ 2
	C_ 2
	D_ 2
	C_ 2
	C_ 2
	octave 3
	A# 2
	G_ 2
	F_ 2
	G_ 2
	D# 2
	C_ 6
	duty 2
	A# 2
	octave 4
	C_ 2
	D_ 4
	C_ 2
	D_ 2
	octave 3
	A# 4
	octave 4
	A_ 2
	F_ 2
	D# 4
	F_ 4
	G_ 4
	C_ 2
	C# 2
	D_ 4
	C_ 2
	D_ 2
	notetype 8, 13, 5
	octave 3
	A# 2
	octave 4
	A_ 2
	F_ 2
	octave 5
	C_ 6
	duty 3
	octave 4
	D# 3
	G_ 3
	octave 5
	C_ 3
	notetype 12, 13, 5
	octave 4
	A# 1
	G# 1
	notetype 8, 13, 5
	G_ 2
	F_ 2
	G_ 2
	A# 3
	notetype 12, 13, 5
	G# 1
	G_ 1
	notetype 8, 13, 4
	F_ 2
	D# 2
	F_ 2
	G_ 2
	G# 2
	G_ 2
	G# 2
	G_ 2
	G# 2
	notetype 12, 13, 2
	G_ 1
	G_ 1
	G_ 1
	G_ 1
	notetype 6, 13, 1
	G_ 1
	G_ 1
	G_ 1
	G_ 1
	G_ 1
	G_ 1
	G_ 1
	G_ 1
	loopchannel 0, MaskedBattle_Ch2_loop
MaskedBattle_Ch2_loop_sub_0:
	D# 1
	C_ 2
	octave 3
	A# 1
	octave 4
	C_ 2
	D# 1
	C_ 2
	octave 3
	A# 1
	octave 4
	C_ 2
	D# 1
	C_ 1
	F_ 1
	G_ 1
	D# 1
	C_ 2
	octave 3
	A# 1
	octave 4
	C_ 2
	D# 1
	C_ 2
	octave 3
	A# 1
	octave 4
	C_ 2
	D# 1
	C_ 1
	D# 1
	C_ 1
	F_ 1
	D# 2
	C_ 1
	D# 2
	F_ 1
	D# 2
	C_ 1
	D# 1
	C_ 1
	F_ 1
	D# 1
	F_ 1
	G_ 1
	A# 1
	G_ 2
	F_ 1
	G_ 2
	A# 1
	G_ 2
	F_ 1
	G_ 1
	F_ 1
	A# 1
	G_ 1
	A# 1
	G_ 1
	endchannel
MaskedBattle_Ch3_sub_0:
	C_ 1
	octave 3
	C_ 2
	octave 2
	C_ 1
	C_ 1
	octave 3
	C_ 2
	octave 2
	C_ 1
	C_ 1
	octave 3
	C_ 2
	octave 2
	C_ 1
	C_ 1
	octave 3
	C_ 2
	endchannel
MaskedBattle_Ch3::
	notetype 12, 0, 0
	rest 8
	vibrato 0, 0, 0
	notetype 12, 1, 4
	octave 3
	C_ 8
	D_ 8
	octave 2
	A# 8
	octave 3
	D# 8
	D_ 16
	D_ 16
	octave 2
	G# 1
	G# 1
	rest 1
	G_ 1
	G_ 1
	rest 1
	G# 1
	G# 1
	rest 1
	G_ 1
	G_ 1
	rest 1
	G# 1
	G# 1
	G_ 1
	G_ 1
	C_ 1
	callchannel MaskedBattle_Ch3_sub_0
	octave 2
	C_ 1
	callchannel MaskedBattle_Ch3_sub_0
MaskedBattle_Ch3_loop:
	octave 2
	C_ 1
	callchannel MaskedBattle_Ch3_loop_sub_0
	C_ 1
	callchannel MaskedBattle_Ch3_loop_sub_0
	callchannel MaskedBattle_Ch3_loop_sub_1
	callchannel MaskedBattle_Ch3_loop_sub_1
	callchannel MaskedBattle_Ch3_loop_sub_1
	callchannel MaskedBattle_Ch3_loop_sub_1
	callchannel MaskedBattle_Ch3_loop_sub_2
	octave 1
	F_ 1
	F_ 1
	octave 2
	F_ 2
	octave 1
	F_ 1
	F_ 1
	octave 2
	F_ 2
	callchannel MaskedBattle_Ch3_loop_sub_2
	C_ 1
	C_ 1
	octave 3
	C_ 2
	octave 2
	C_ 1
	C_ 1
	octave 3
	C_ 2
	octave 1
	F_ 1
	F_ 1
	octave 2
	F_ 2
	octave 1
	A# 1
	A# 1
	octave 2
	A# 2
	octave 1
	D# 1
	D# 1
	octave 2
	D# 2
	octave 1
	G# 1
	G# 1
	octave 2
	G# 2
	callchannel MaskedBattle_Ch3_loop_sub_2
	octave 1
	G_ 1
	G_ 1
	octave 2
	G_ 2
	G_ 1
	G_ 1
	G_ 1
	G_ 1
	loopchannel 0, MaskedBattle_Ch3_loop
MaskedBattle_Ch3_loop_sub_0:
	C_ 1
	octave 3
	C_ 2
	octave 2
	C_ 1
	C_ 1
	octave 3
	C_ 2
	octave 2
	C_ 1
	C_ 1
	octave 3
	C_ 2
	octave 2
	C_ 1
	C_ 1
	octave 3
	C_ 2
	octave 1
	A# 1
	A# 1
	octave 2
	A# 2
	octave 1
	A# 1
	A# 1
	octave 2
	A# 2
	octave 1
	A# 1
	A# 1
	octave 2
	A# 2
	octave 1
	A# 1
	A# 1
	octave 2
	A# 2
	octave 1
	G# 1
	G# 1
	octave 2
	G# 2
	octave 1
	G# 1
	G# 1
	octave 2
	G# 2
	octave 1
	G# 1
	G# 1
	octave 2
	G# 2
	octave 1
	G# 1
	G# 1
	octave 2
	G# 2
	octave 1
	G_ 1
	G_ 1
	octave 2
	G_ 2
	octave 1
	G_ 1
	G_ 1
	octave 2
	G_ 2
	octave 1
	G_ 1
	G_ 1
	octave 2
	G_ 2
	octave 1
	G_ 1
	G_ 1
	octave 2
	G_ 2
	endchannel
MaskedBattle_Ch3_loop_sub_1:
	octave 1
	G# 1
	G# 1
	octave 2
	G# 2
	octave 1
	A# 1
	A# 1
	octave 2
	A# 2
	C_ 1
	C_ 1
	octave 3
	C_ 2
	octave 2
	C_ 1
	C_ 1
	octave 3
	C_ 2
	endchannel
MaskedBattle_Ch3_loop_sub_2:
	octave 1
	G_ 1
	G_ 1
	octave 2
	G_ 2
	octave 1
	G_ 1
	G_ 1
	octave 2
	G_ 2
	endchannel
