Music_NuggetBridge_Ch1::
	tempo 168
	volume 7, 7
	toggleperfectpitch
	duty 1
	notetype 12, 11, 5
;Channel1_Bar1:
	octave 2
	G# 6
	G# 1
	B_ 1
	A_ 4
	F# 2
	octave 3
	C# 2
;Channel1_Bar2:
Music_NuggetBridge_Loop1:
	octave 2
	B_ 3
	G# 1
	A_ 6
	duty 2
	A_ 1
	G# 1
	F# 4
;Channel1_Bar3:
	duty 1
	G# 6
	G# 1
	B_ 1
	A_ 4
	F# 2
	octave 3
	C# 2
;Channel1_Bar4:
	octave 2
	B_ 3
	G# 1
	octave 3
	E_ 6
	duty 2
	octave 2
	B_ 1
	octave 3
	C# 1
	D_ 4
;Channel1_Bar5:
	A_ 2
	E_ 2
	octave 2
	A_ 4
	octave 3
	G# 2
	E_ 2
	octave 2
	G# 4
;Channel1_Bar6:
	octave 3
	F# 2
	C# 2
	octave 2
	F# 4
	octave 3
	E_ 2
	C# 2
	D# 2
	C# 2
;Channel1_Bar7:
	octave 2
	F# 2
	F# 1
	G# 1
	A_ 6
	F# 2
	octave 3
	D_ 4
;Channel1_Bar8:
	E_ 3
	octave 2
	A_ 1
	G# 6
	E_ 2
	A_ 2
	G# 2
;Channel1_Bar9:
	notetype 12, 11, 2
	B_ 2
	B_ 1
	octave 3
	C# 1
	D_ 2
	D_ 1
	E_ 1
	F# 2
	D_ 2
	A_ 4
;Channel1_Bar10:
	G# 3
	F# 1
	E_ 6
	notetype 12, 11, 1
	octave 2
	E_ 1
	F# 1
	G# 2
	F# 1
	E_ 1
;Channel1_Bar11:
	notetype 12, 11, 2
	B_ 2
	B_ 1
	octave 3
	C# 1
	D_ 2
	D_ 1
	E_ 1
	F# 2
	D_ 2
	A_ 4
;Channel1_Bar12:
	G# 3
	F# 1
	E_ 6
	notetype 12, 11, 1
	octave 2
	G# 1
	A_ 1
	B_ 2
	A_ 1
	G# 1
;Channel1_Bar13:
	notetype 12, 11, 2
	B_ 2
	B_ 1
	octave 3
	C# 1
	D_ 2
	D_ 1
	E_ 1
	F# 2
	F# 1
	G# 1
	A_ 4
;Channel1_Bar14:
	octave 2
	B_ 2
	B_ 1
	octave 3
	C# 1
	D# 2
	D# 1
	E_ 1
	F# 2
	F# 1
	G# 1
	notetype 12, 11, 5
	A_ 4
;Channel1_Bar15:
	duty 1
	G# 6
	octave 2
	G# 1
	B_ 1
	A_ 4
	F# 2
	octave 3
	C# 2
;Channel1_Bar16:
	loopchannel 0, Music_NuggetBridge_Loop1

Music_NuggetBridge_Ch2::
	duty 1
	notetype 12, 12, 5
;Channel2_Bar1:
	octave 3
	E_ 6
	octave 2
	B_ 1
	octave 3
	E_ 1
	F# 6
	A_ 2
;Channel2_Bar2:
Music_NuggetBridge_Loop2:
	G# 3
	E_ 1
	F# 12
;Channel2_Bar3:
	E_ 6
	octave 2
	B_ 1
	octave 3
	E_ 1
	F# 6
	A_ 2
;Channel2_Bar4:
	G# 3
	E_ 1
	B_ 12
;Channel2_Bar5:
	duty 0
	octave 4
	C# 6
	octave 3
	B_ 1
	A_ 1
	B_ 6
	A_ 1
	G# 1
;Channel2_Bar6:
	A_ 6
	G# 1
	F# 1
	G# 4
	duty 2
	F# 2
	E_ 2
;Channel2_Bar7:
	D_ 2
	D_ 1
	E_ 1
	F# 8
	A_ 4
;Channel2_Bar8:
	G# 3
	F# 1
	E_ 8
	duty 1
	F# 2
	E_ 2
;Channel2_Bar9:
	D_ 2
	D_ 1
	E_ 1
	F# 2
	F# 1
	G# 1
	A_ 4
	octave 4
	C# 4
;Channel2_Bar10:
	octave 3
	B_ 3
	A_ 1
	G# 12
;Channel2_Bar11:
	duty 0
	D_ 2
	D_ 1
	E_ 1
	F# 2
	F# 1
	G# 1
	A_ 4
	octave 4
	C# 4
;Channel2_Bar12:
	octave 3
	B_ 3
	A_ 1
	G# 12
;Channel2_Bar13:
	duty 2
	D_ 2
	D_ 1
	E_ 1
	F# 2
	F# 1
	G# 1
	A_ 2
	A_ 1
	B_ 1
	octave 4
	C# 4
;Channel2_Bar14:
	octave 3
	D# 2
	D# 1
	E_ 1
	F# 2
	F# 1
	G# 1
	A_ 2
	B_ 1
	octave 4
	C# 1
	notetype 6, 12, 5
	D# 4
	octave 3
	B_ 1
	octave 4
	C_ 1
	C# 1
	D# 1
;Channel2_Bar15:
	notetype 12, 12, 5
	duty 1
	E_ 6
	octave 2
	B_ 1
	octave 3
	E_ 1
	F# 6
	A_ 2
;Channel2_Bar16:
	loopchannel 0, Music_NuggetBridge_Loop2

Music_NuggetBridge_Ch3::
	notetype 12, 1, 4
;Channel3_Bar1:
	octave 2
	E_ 4
	rest 8
	D_ 4
;Channel3_Bar2:
Music_NuggetBridge_Loop3:
	E_ 1
	rest 11
	octave 1
	B_ 4
;Channel3_Bar3:
	octave 2
	E_ 4
	rest 8
	D_ 4
;Channel3_Bar4:
	E_ 1
	rest 11
	G# 4
;Channel3_Bar5:
	notetype 4, 2, 4
	octave 3
	A_ 2
	octave 5
	C# 2
	E_ 2
	A_ 2
	octave 6
	C# 2
	E_ 2
	A_ 2
	E_ 2
	C# 2
	octave 5
	A_ 2
	E_ 2
	C# 2
	octave 3
	G# 2
	octave 4
	B_ 2
	octave 5
	E_ 2
	G# 2
	B_ 2
	octave 6
	E_ 2
	G# 2
	E_ 2
	octave 5
	B_ 2
	G# 2
	E_ 2
	octave 4
	B_ 2
;Channel3_Bar6:
	octave 3
	F# 2
	octave 4
	A_ 2
	octave 5
	C# 2
	F# 2
	A_ 2
	octave 6
	C# 2
	F# 2
	C# 2
	octave 5
	A_ 2
	F# 2
	C# 2
	octave 4
	A_ 2
	octave 3
	C# 2
	octave 4
	E_ 2
	G# 2
	octave 5
	C# 2
	E_ 2
	G# 2
	octave 6
	C# 3
	rest 9
	notetype 12, 1, 4
	callchannel Music_NuggetBridge_Bar7
	callchannel Music_NuggetBridge_Bar7
	callchannel Music_NuggetBridge_Bar7
	callchannel Music_NuggetBridge_Bar7
	callchannel Music_NuggetBridge_Bar8
	callchannel Music_NuggetBridge_Bar8
	callchannel Music_NuggetBridge_Bar8
	callchannel Music_NuggetBridge_Bar8
	callchannel Music_NuggetBridge_Bar9
	callchannel Music_NuggetBridge_Bar9
	callchannel Music_NuggetBridge_Bar9
	callchannel Music_NuggetBridge_Bar9
	callchannel Music_NuggetBridge_Bar10
	callchannel Music_NuggetBridge_Bar10
	callchannel Music_NuggetBridge_Bar10
	callchannel Music_NuggetBridge_Bar10
	callchannel Music_NuggetBridge_Bar11
	callchannel Music_NuggetBridge_Bar11
	callchannel Music_NuggetBridge_Bar11
	callchannel Music_NuggetBridge_Bar11
	callchannel Music_NuggetBridge_Bar12
	callchannel Music_NuggetBridge_Bar12
	callchannel Music_NuggetBridge_Bar12
	callchannel Music_NuggetBridge_Bar12
;Channel3_Bar13:
	notetype 6, 1, 4
	octave 1
	B_ 2
	rest 16
	rest 2
	B_ 1
	rest 1
	B_ 1
	rest 1
	B_ 6
	rest 2
;Channel3_Bar14:
	B_ 2
	rest 16
	rest 2
	B_ 1
	rest 1
	B_ 1
	rest 1
	B_ 6
	rest 2
;Channel3_Bar15:
	notetype 12, 1, 4
	octave 2
	E_ 4
	rest 8
	D_ 4
;Channel3_Bar16:
	loopchannel 0, Music_NuggetBridge_Loop3

Music_NuggetBridge_Bar7:
	octave 2
	D_ 1
	rest 1
	notetype 12, 2, 4
	octave 5
	A_ 1
	octave 4
	D_ 1
	notetype 12, 1, 4
	endchannel 
Music_NuggetBridge_Bar8:
	octave 2
	E_ 1
	rest 1
	notetype 12, 2, 4
	octave 5
	B_ 1
	octave 4
	E_ 1
	notetype 12, 1, 4
	endchannel 
Music_NuggetBridge_Bar9:
	octave 1
	B_ 1
	rest 1
	notetype 12, 2, 4
	octave 6
	D_ 1
	octave 4
	F# 1
	notetype 12, 1, 4
	endchannel 
Music_NuggetBridge_Bar10:
	octave 2
	E_ 1
	rest 1
	notetype 12, 2, 4
	octave 6
	E_ 1
	octave 4
	B_ 1
	notetype 12, 1, 4
	endchannel 
Music_NuggetBridge_Bar11:
	octave 1
	B_ 1
	notetype 12, 2, 4
	octave 4
	A_ 1
	octave 6
	F# 1
	octave 5
	D_ 1
	notetype 12, 1, 4
	endchannel 
Music_NuggetBridge_Bar12:
	octave 2
	E_ 1
	notetype 12, 2, 4
	octave 4
	B_ 1
	octave 6
	G# 1
	octave 5
	E_ 1
	notetype 12, 1, 4
	endchannel 

Music_NuggetBridge_Ch4::
	dspeed 4
;Channel4_Bar1:
	cymbal3 16
	rest 2
	snare2 3
	snare2 3
	snare2 12
	snare2 2
	snare2 2
	snare2 2
	snare2 2
	snare2 2
	snare2 2
;Channel4_Bar2:
Music_NuggetBridge_Loop4:
	snare2 16
	rest 2
	snare2 3
	snare2 3
	snare2 12
	snare2 3
	snare2 3
	snare2 3
	snare2 3
;Channel4_Bar3:
	snare2 16
	rest 2
	snare2 3
	snare2 3
	snare2 12
	snare2 2
	snare2 2
	snare2 2
	snare2 2
	snare2 2
	snare2 2
;Channel4_Bar4:
	snare2 16
	rest 2
	snare2 3
	snare2 3
	snare2 12
	snare2 3
	snare2 3
	snare2 3
	snare2 3
;Channel4_Bar5:
	cymbal3 16
	rest 16
	rest 16
;Channel4_Bar6:
	rest 16
	rest 16
	rest 16
;Channel4_Bar7:
	snare2 12
	snare2 12
	snare2 12
	snare2 6
	snare2 3
	snare2 3
;Channel4_Bar8:
	snare2 12
	snare2 12
	snare2 12
	snare2 6
	snare2 2
	snare2 2
	snare2 2
;Channel4_Bar9:
	snare2 12
	snare2 12
	snare2 12
	snare2 6
	snare2 3
	snare2 3
;Channel4_Bar10:
	snare2 12
	snare2 12
	snare2 12
	snare2 6
	snare2 2
	snare2 2
	snare2 2
;Channel4_Bar11:
	snare2 12
	snare2 12
	snare2 12
	snare2 6
	snare2 3
	snare2 3
;Channel4_Bar12:
	snare2 12
	snare2 12
	snare2 6
	snare2 2
	snare2 2
	snare2 2
	snare2 3
	snare2 3
	snare2 3
	snare2 3
;Channel4_Bar13:
	snare2 16
	rest 14
	snare2 3
	snare2 3
	cymbal3 6
	snare2 2
	snare2 2
	snare2 2
;Channel4_Bar14:
	snare2 16
	rest 14
	snare2 2
	snare2 2
	snare2 2
	snare2 3
	snare2 3
	snare2 3
	snare2 3
;Channel4_Bar15:
	cymbal3 16
	rest 2
	snare2 3
	snare2 3
	snare2 12
	snare2 2
	snare2 2
	snare2 2
	snare2 2
	snare2 2
	snare2 2
;Channel4_Bar16:
	loopchannel 0, Music_NuggetBridge_Loop4
