OceanDriesUp_Ch1_sub_0:
	octave 3
	G# 1
	C_ 1
	D# 1
	octave 2
	G# 1
	octave 4
	G# 1
	C_ 1
	D# 1
	octave 3
	G# 1
	octave 2
	G# 1
	octave 3
	C_ 1
	D# 1
	octave 2
	G# 1
	rest 4
	octave 3
	G# 1
	C_ 1
	D# 1
	octave 2
	G# 1
	octave 4
	G# 1
	C_ 1
	D# 1
	octave 3
	G# 1
	octave 2
	G# 1
	octave 3
	C_ 1
	D# 1
	octave 2
	G# 1
	rest 4
	octave 3
	G# 1
	C_ 1
	D# 1
	octave 2
	G# 1
	octave 4
	G# 1
	C_ 1
	D# 1
	octave 3
	G# 1
	octave 2
	G# 1
	octave 3
	C_ 1
	D# 1
	octave 2
	G# 1
	rest 4
	octave 3
	G# 1
	C_ 1
	D# 1
	octave 2
	G# 1
	octave 4
	G# 1
	C_ 1
	D# 1
	octave 3
	G# 1
	octave 2
	G# 1
	octave 3
	C_ 1
	D# 1
	octave 2
	G# 1
	octave 3
	D# 12
	D_ 12
	C_ 12
	octave 2
	G_ 12
	F_ 8
	D# 8
	rest 4
	octave 3
	G# 1
	C_ 1
	D# 1
	octave 2
	G# 1
	octave 4
	G# 1
	C_ 1
	D# 1
	octave 3
	G# 1
	octave 2
	G# 1
	octave 3
	C_ 1
	D# 1
	octave 2
	G# 1
	rest 4
	octave 3
	G# 1
	C_ 1
	D# 1
	octave 2
	G# 1
	octave 4
	G# 1
	C_ 1
	D# 1
	octave 3
	G# 1
	octave 2
	G# 1
	octave 3
	C_ 1
	D# 1
	octave 2
	G# 1
	rest 4
	octave 3
	G# 1
	C_ 1
	D# 1
	octave 2
	G# 1
	octave 4
	G# 1
	C_ 1
	D# 1
	octave 3
	G# 1
	octave 2
	G# 1
	octave 3
	C_ 1
	D# 1
	octave 2
	G# 1
	rest 4
	octave 3
	G# 1
	C_ 1
	D# 1
	octave 2
	G# 1
	octave 4
	G# 1
	C_ 1
	D# 1
	octave 3
	G# 1
	octave 2
	G# 1
	octave 3
	C_ 1
	D# 1
	octave 2
	G# 1
	octave 3
	C_ 12
	D_ 12
	D# 12
	octave 4
	C_ 4
	octave 3
	A# 4
	octave 4
	C_ 4
	octave 3
	G_ 4
	F_ 4
	D# 4
	F_ 4
	C_ 4
	D# 4
	D_ 4
	D# 4
	C_ 4
	D# 4
	D_ 4
	D# 4
	C_ 4
	octave 2
	A# 4
	octave 3
	C_ 4
	octave 2
	A# 4
	octave 3
	C_ 4
	octave 2
	A# 4
	octave 3
	C_ 4
	octave 2
	A# 4
	octave 3
	C_ 4
	D# 4
	D_ 4
	D# 4
	C_ 4
	D# 4
	D_ 4
	D# 4
	C_ 4
	D# 4
	D_ 4
	D# 4
	C_ 4
	D# 4
	D_ 4
	D# 4
	C_ 4
	D# 4
	D_ 4
	D# 4
	C_ 4
	D# 4
	D_ 4
	D# 4
	octave 2
	G_ 4
	B_ 4
	octave 3
	D_ 4
	octave 2
	A_ 8
	A_ 4
	A# 4
	A_ 4
	octave 3
	C_ 4
	D# 4
	D_ 4
	D# 4
	C_ 4
	D# 4
	D_ 4
	D# 4
	C_ 4
	D# 4
	D_ 4
	D# 4
	C_ 4
	D# 4
	D_ 4
	D# 4
	C_ 4
	D# 4
	D_ 4
	D# 4
	C_ 4
	D# 4
	D_ 4
	D# 4
	D_ 4
	F_ 4
	D# 4
	F_ 4
	D_ 4
	F_ 4
	D# 4
	F_ 4
	D# 4
	G_ 4
	F_ 4
	G_ 4
	D# 4
	G_ 4
	F_ 4
	G_ 4
	D# 4
	G_ 4
	F_ 4
	G_ 4
	D# 4
	G_ 4
	F_ 4
	G_ 4
	octave 2
	G_ 4
	F_ 4
	G_ 4
	D# 4
	G_ 4
	F_ 4
	D# 4
	D_ 4
	G_ 4
	C_ 4
	G_ 4
	D# 4
	C_ 8
	C_ 8
	octave 3
	D# 4
	F# 4
	F_ 4
	F# 4
	D# 4
	F# 4
	F_ 4
	F# 4
	D# 4
	C# 4
	D# 4
	C# 4
	D# 4
	C# 4
	D# 4
	C# 4
	D# 4
	F# 4
	F_ 4
	F# 4
	D# 4
	F# 4
	F_ 4
	F# 4
	D# 4
	F# 4
	F_ 4
	F# 4
	D# 4
	F# 4
	F_ 4
	F# 4
	D# 4
	F# 4
	F_ 4
	F# 4
	D# 4
	F# 4
	F_ 4
	F# 4
	endchannel
OceanDriesUp_Ch1_sub_1:
	C_ 2
	D# 2
	D_ 2
	D# 2
	C_ 2
	D# 2
	D_ 2
	D# 2
	C_ 2
	D# 2
	D_ 2
	D# 2
	endchannel
OceanDriesUp_Ch1_sub_2:
	F# 4
	F_ 4
	F# 4
	D# 4
	F# 4
	F_ 4
	F# 4
	D# 4
	F# 4
	F_ 4
	F# 4
	endchannel
OceanDriesUp_Ch1_sub_3:
	octave 2
	F# 2
	B_ 2
	octave 3
	D# 2
	octave 2
	F# 2
	B_ 2
	octave 3
	D# 2
	octave 2
	F# 2
	endchannel
OceanDriesUp_Ch1_sub_4:
	G# 2
	octave 3
	D# 2
	octave 2
	F_ 2
	endchannel
OceanDriesUp_Ch1_sub_5:
	A# 4
	G# 4
	A# 4
	F# 4
	A# 4
	G# 4
	endchannel
OceanDriesUp_Ch1_sub_6:
	G_ 2
	F_ 2
	G_ 2
	D# 2
	G_ 2
	F_ 2
	endchannel
OceanDriesUp_Ch1_sub_7:
	A# 6
	A# 3
	A# 3
	A# 3
	A# 6
	A# 6
	A# 3
	A# 6
	endchannel
OceanDriesUp_Ch1::
	tempo 114
	notetype 12, 0, 0
	rest 1
	rest 16
	rest 16
	rest 16
	rest 16
	rest 16
	rest 16
	rest 12
	vibrato 0, 0, 0
	duty 2
	toggleperfectpitch
	notetype 12, 10, 4
	octave 3
	D_ 3
	notetype 6, 10, 4
	D_ 3
	D_ 3
	D_ 3
	D_ 6
	D_ 6
	D_ 3
	D_ 6
	octave 2
	callchannel OceanDriesUp_Ch1_sub_7
	G_ 6
	G_ 3
	G_ 3
	G_ 3
	G_ 6
	G_ 6
	G_ 3
	G_ 6
	callchannel OceanDriesUp_Ch1_sub_7
	A_ 6
	A_ 3
	A_ 3
	A_ 3
	A_ 6
	A_ 6
	A_ 3
	A_ 6
	octave 3
	C_ 6
	C_ 3
	C_ 3
	C_ 3
	C_ 6
	C_ 6
	C_ 3
	C_ 6
	notetype 15, 10, 0
	octave 2
	G_ 16
	notetype 12, 10, 0
	G_ 4
	notetype 12, 10, 7
	G_ 16
	octave 3
	notetype 12, 10, 4
	callchannel OceanDriesUp_Ch1_sub_1
	callchannel OceanDriesUp_Ch1_sub_1
	callchannel OceanDriesUp_Ch1_sub_1
	callchannel OceanDriesUp_Ch1_sub_1
	callchannel OceanDriesUp_Ch1_sub_1
	callchannel OceanDriesUp_Ch1_sub_1
	octave 2
	G_ 2
	octave 3
	D_ 2
	C_ 2
	D_ 2
	octave 2
	G_ 2
	octave 3
	D_ 2
	octave 2
	B_ 2
	octave 3
	D_ 2
	callchannel OceanDriesUp_Ch1_sub_1
	callchannel OceanDriesUp_Ch1_sub_1
	callchannel OceanDriesUp_Ch1_sub_1
	C_ 2
	D# 2
	D_ 2
	D# 2
	C_ 2
	G_ 2
	D_ 2
	G_ 2
	octave 2
	B_ 2
	octave 3
	G_ 2
	D_ 2
	G_ 2
	C_ 2
	D# 2
	D_ 2
	D# 2
	C_ 2
	D# 2
	D_ 2
	D# 2
	C_ 2
	octave 2
	A# 2
	octave 3
	C_ 2
	octave 2
	A# 2
	octave 3
	C_ 2
	octave 2
	A# 2
	octave 3
	C_ 2
	octave 2
	A# 2
	octave 3
	callchannel OceanDriesUp_Ch1_sub_1
	callchannel OceanDriesUp_Ch1_sub_1
	octave 2
	G_ 2
	B_ 2
	octave 3
	D_ 2
	octave 2
	A_ 4
	A_ 2
	A# 2
	A_ 2
	octave 3
	callchannel OceanDriesUp_Ch1_sub_1
	callchannel OceanDriesUp_Ch1_sub_1
	D_ 2
	F_ 2
	D# 2
	F_ 2
	D_ 2
	F_ 2
	D# 2
	F_ 2
	D# 2
	callchannel OceanDriesUp_Ch1_sub_6
	G_ 2
	D# 2
	callchannel OceanDriesUp_Ch1_sub_6
	G_ 2
	octave 2
	callchannel OceanDriesUp_Ch1_sub_6
	D# 2
	D_ 2
	G_ 2
	C_ 2
	G_ 2
	D# 2
	C_ 4
	C_ 4
	rest 2
	notetype 6, 12, 4
	callchannel OceanDriesUp_Ch1_sub_0
	octave 2
	A# 4
	octave 3
	D_ 4
	F_ 4
	C_ 8
	C_ 4
	C# 4
	C_ 4
	D# 4
	callchannel OceanDriesUp_Ch1_sub_2
	D# 4
	callchannel OceanDriesUp_Ch1_sub_2
	F_ 4
	G# 4
	F# 4
	G# 4
	F_ 4
	G# 4
	F# 4
	G# 4
	F# 4
	callchannel OceanDriesUp_Ch1_sub_5
	A# 4
	F# 4
	callchannel OceanDriesUp_Ch1_sub_5
	A# 4
	octave 2
	callchannel OceanDriesUp_Ch1_sub_5
	F# 4
	F_ 4
	A# 4
	D# 4
	A# 4
	F# 4
	D# 8
	D# 8
	rest 4
	callchannel OceanDriesUp_Ch1_sub_0
	F_ 4
	octave 2
	F_ 4
	G# 4
	A_ 4
	A# 4
	F_ 4
	octave 3
	D# 4
	D_ 4
	D# 4
	callchannel OceanDriesUp_Ch1_sub_2
	D# 4
	F# 4
	F_ 4
	F# 4
	callchannel OceanDriesUp_Ch1_sub_3
	B_ 2
	octave 3
	D# 2
	callchannel OceanDriesUp_Ch1_sub_3
	F_ 2
	callchannel OceanDriesUp_Ch1_sub_4
	callchannel OceanDriesUp_Ch1_sub_4
	callchannel OceanDriesUp_Ch1_sub_4
	callchannel OceanDriesUp_Ch1_sub_4
	callchannel OceanDriesUp_Ch1_sub_4
	D# 8
	A# 8
	G_ 8
	octave 3
	D# 8
	octave 2
	G_ 2
	octave 3
	D# 2
	G_ 4
	G# 2
	G_ 2
	D# 2
	octave 2
	A# 2
	G_ 8
	endchannel
OceanDriesUp_Ch2_sub_0:
	D_ 1
	notetype 14, 12, 0
	D# 14
	notetype 8, 12, 4
	rest 1
	D_ 3
	D# 3
	D_ 3
	D# 3
	D_ 3
	D# 3
	D_ 3
	notetype 12, 12, 0
	octave 2
	B_ 1
	notetype 14, 12, 0
	octave 3
	C_ 14
	notetype 8, 12, 4
	rest 1
	octave 2
	G_ 3
	G# 3
	octave 3
	G_ 3
	G# 3
	G_ 3
	F_ 3
	D# 3
	notetype 12, 12, 0
	octave 2
	B_ 1
	octave 3
	C_ 15
	C# 1
	D_ 1
	F_ 2
	B_ 2
	C_ 4
	E_ 1
	F_ 1
	D# 2
	D_ 2
	octave 2
	B_ 1
	notetype 14, 12, 0
	octave 3
	C_ 14
	notetype 8, 12, 0
	rest 1
	G_ 3
	F_ 3
	G_ 3
	G# 3
	G_ 3
	F_ 3
	G_ 3
	notetype 12, 12, 0
	G_ 1
	G# 9
	G_ 2
	G# 2
	A_ 2
	A# 10
	D# 2
	D_ 2
	octave 2
	A# 2
	octave 3
	C_ 4
	octave 2
	A# 4
	octave 3
	C_ 4
	octave 2
	A# 4
	G_ 4
	A# 4
	G_ 4
	octave 3
	E_ 1
	F_ 3
	D# 2
	D_ 2
	D# 2
	F_ 2
	D# 2
	D_ 2
	C_ 2
	octave 2
	A# 2
	octave 3
	C_ 2
	G_ 2
	A# 2
	G_ 2
	C_ 4
	octave 2
	E_ 4
	octave 3
	endchannel
OceanDriesUp_Ch2_sub_1:
	octave 2
	G_ 3
	G_ 3
	G_ 3
	G_ 6
	G_ 6
	G_ 3
	G_ 3
	D_ 3
	F_ 3
	D_ 3
	G_ 3
	G_ 3
	G_ 3
	G_ 6
	G_ 6
	G_ 3
	G_ 3
	D_ 3
	F_ 3
	D_ 3
	D# 3
	D# 3
	D# 3
	D# 6
	D# 6
	D# 3
	D# 3
	octave 1
	A# 3
	octave 2
	C# 3
	octave 1
	A# 3
	octave 2
	C_ 3
	C_ 3
	C_ 3
	C_ 6
	C_ 6
	C_ 3
	C_ 3
	octave 1
	G_ 3
	A# 3
	G_ 3
	octave 2
	D_ 3
	D_ 3
	D_ 3
	D_ 6
	D_ 6
	D_ 3
	D_ 3
	octave 1
	A_ 3
	octave 2
	C_ 3
	octave 1
	A_ 3
	octave 2
	D_ 3
	D_ 3
	D_ 3
	D_ 6
	D_ 6
	D_ 3
	D_ 3
	octave 1
	A_ 3
	octave 2
	C_ 3
	octave 1
	A_ 3
	endchannel
OceanDriesUp_Ch2_sub_2:
	G# 2
	A# 2
	octave 4
	C_ 2
	octave 3
	A# 2
	octave 4
	C_ 2
	D_ 2
	D# 2
	D_ 2
	D# 2
	F_ 2
	G_ 2
	F_ 2
	G_ 2
	A# 2
	G_ 2
	A# 2
	octave 3
	C_ 2
	D# 2
	D_ 2
	C_ 2
	C_ 2
	D# 2
	D_ 2
	C_ 2
	C_ 2
	D# 2
	D_ 2
	C_ 2
	C_ 2
	D# 2
	D_ 2
	C_ 2
	octave 5
	C_ 2
	octave 4
	A# 2
	G# 2
	A# 2
	G# 2
	G_ 2
	G# 2
	G_ 2
	F_ 2
	G_ 2
	F_ 2
	D# 2
	F_ 2
	D# 2
	D_ 2
	octave 3
	A# 2
	C_ 2
	D# 2
	D_ 2
	C_ 2
	C_ 2
	D# 2
	D_ 2
	C_ 2
	C_ 2
	D# 2
	D_ 2
	C_ 2
	C_ 2
	D# 2
	D_ 2
	C_ 2
	endchannel
OceanDriesUp_Ch2_sub_3:
	F_ 1
	notetype 14, 12, 0
	F# 14
	notetype 8, 12, 0
	rest 1
	F_ 3
	F# 3
	F_ 3
	F# 3
	F_ 3
	F# 3
	F_ 3
	notetype 12, 12, 0
	D_ 1
	notetype 14, 12, 0
	D# 14
	notetype 8, 12, 0
	rest 1
	endchannel
OceanDriesUp_Ch2_sub_4:
	C_ 2
	octave 2
	A# 2
	octave 3
	C_ 2
	octave 2
	A# 2
	octave 3
	C_ 2
	octave 2
	A# 2
	endchannel
OceanDriesUp_Ch2::
	notetype 12, 0, 0
	rest 1
	vibrato 0, 0, 0
	duty 0
	notetype 6, 12, 2
	callchannel OceanDriesUp_Ch2_sub_1
	callchannel OceanDriesUp_Ch2_sub_1
	notetype 15, 12, 0
	G_ 16
	notetype 12, 12, 0
	G_ 4
	notetype 12, 12, 7
	G_ 16
	rest 16
	rest 16
	octave 2
	C_ 14
	C_ 2
	C_ 2
	D_ 2
	D# 2
	F_ 2
	G_ 2
	D# 2
	G_ 2
	A# 2
	octave 3
	C_ 14
	C_ 2
	C_ 2
	D# 2
	callchannel OceanDriesUp_Ch2_sub_4
	C_ 14
	C_ 2
	C_ 2
	A# 2
	octave 3
	callchannel OceanDriesUp_Ch2_sub_4
	G# 16
	octave 3
	C_ 1
	D_ 1
	G_ 1
	C_ 1
	D_ 1
	G_ 1
	D_ 1
	octave 2
	G_ 1
	B_ 8
	octave 4
	C_ 1
	D# 1
	G_ 1
	octave 5
	C_ 1
	octave 3
	G_ 1
	octave 4
	C_ 1
	D# 1
	G_ 1
	octave 3
	D# 1
	G_ 1
	octave 4
	C_ 1
	D# 1
	octave 3
	C_ 1
	D# 1
	G_ 1
	octave 4
	C_ 1
	octave 2
	G_ 1
	octave 3
	C_ 1
	D# 1
	G_ 1
	octave 2
	D# 1
	G_ 1
	octave 3
	C_ 1
	D# 1
	octave 2
	C_ 1
	D# 1
	G_ 1
	octave 3
	C_ 1
	octave 1
	G_ 1
	octave 2
	C_ 1
	D# 1
	G_ 1
	C_ 8
	G_ 8
	D# 8
	octave 3
	C_ 8
	octave 2
	G_ 8
	octave 3
	D# 8
	octave 5
	G_ 1
	D_ 1
	C_ 1
	D_ 1
	C_ 1
	octave 4
	G_ 1
	C_ 1
	D_ 1
	octave 2
	G_ 1
	octave 3
	D_ 1
	A_ 1
	D_ 1
	octave 2
	G_ 4
	octave 3
	callchannel OceanDriesUp_Ch2_sub_0
	callchannel OceanDriesUp_Ch2_sub_2
	callchannel OceanDriesUp_Ch2_sub_0
	callchannel OceanDriesUp_Ch2_sub_3
	octave 2
	A# 3
	B_ 3
	octave 3
	A# 3
	B_ 3
	A# 3
	G# 3
	F# 3
	notetype 12, 12, 0
	D_ 1
	D# 15
	E_ 1
	F_ 1
	G# 2
	octave 4
	D_ 2
	octave 3
	D# 4
	G_ 1
	G# 1
	F# 2
	F_ 2
	D_ 1
	notetype 14, 12, 0
	D# 14
	notetype 8, 12, 0
	rest 1
	A# 3
	G# 3
	A# 3
	B_ 3
	A# 3
	G# 3
	A# 3
	notetype 12, 12, 0
	A# 1
	B_ 9
	A# 2
	B_ 2
	octave 4
	C_ 2
	C# 10
	octave 3
	F# 2
	F_ 2
	C# 2
	D# 4
	C# 4
	D# 4
	C# 4
	octave 2
	A# 4
	octave 3
	C# 4
	octave 2
	A# 4
	octave 3
	G_ 1
	G# 3
	F# 2
	F_ 2
	F# 2
	G# 2
	F# 2
	F_ 2
	D# 2
	C# 2
	D# 2
	A# 2
	octave 4
	C# 2
	octave 3
	A# 2
	D# 4
	octave 2
	G_ 4
	octave 3
	callchannel OceanDriesUp_Ch2_sub_2
	callchannel OceanDriesUp_Ch2_sub_0
	callchannel OceanDriesUp_Ch2_sub_3
	notetype 12, 12, 0
	A# 1
	B_ 3
	A# 2
	G# 2
	F# 2
	F_ 2
	D# 2
	D_ 1
	D# 15
	D_ 2
	octave 2
	A# 2
	octave 3
	C_ 2
	C# 2
	D_ 2
	octave 2
	A# 2
	octave 3
	F# 2
	F_ 2
	D_ 1
	D# 15
	F# 2
	A# 2
	G# 2
	A# 2
	F# 2
	A# 2
	G# 2
	A# 2
	octave 6
	E_ 1
	octave 5
	D# 1
	F# 1
	octave 4
	B_ 1
	octave 5
	D# 1
	octave 4
	D# 1
	F# 1
	octave 3
	B_ 1
	octave 4
	D# 1
	octave 3
	F# 1
	B_ 1
	D# 1
	F# 1
	octave 2
	B_ 1
	D# 1
	F# 1
	octave 5
	A_ 1
	F_ 1
	C# 1
	F_ 1
	C# 1
	octave 4
	F_ 1
	G# 1
	C# 1
	F_ 1
	octave 3
	G# 1
	octave 4
	C# 1
	octave 3
	F_ 1
	G# 1
	C# 1
	octave 2
	F_ 1
	G# 1
	octave 3
	D# 1
	F_ 1
	G_ 1
	A# 1
	F_ 1
	G_ 1
	A# 1
	octave 4
	D# 1
	octave 3
	G_ 1
	A# 1
	octave 4
	D# 1
	G_ 1
	D# 1
	G_ 1
	A# 1
	octave 5
	D# 1
	octave 3
	D# 1
	A# 1
	octave 4
	D# 1
	octave 3
	A# 1
	octave 4
	F_ 1
	D# 1
	octave 3
	A# 1
	G_ 1
	endchannel
OceanDriesUp_Ch3_sub_0:
	C_ 2
	octave 3
	C_ 2
	octave 1
	G_ 2
	A# 2
	octave 2
	C_ 2
	octave 3
	C_ 2
	octave 1
	G_ 2
	A# 2
	octave 2
	C_ 2
	octave 1
	A# 2
	octave 2
	C_ 2
	octave 1
	A# 2
	octave 2
	C_ 2
	octave 1
	A# 2
	octave 2
	C_ 2
	octave 1
	A# 2
	G# 2
	octave 2
	G# 2
	D# 2
	F_ 2
	octave 1
	G# 2
	octave 2
	G# 2
	D# 2
	F_ 2
	octave 1
	G# 2
	octave 2
	G# 2
	octave 1
	G# 2
	G_ 2
	G# 2
	G_ 2
	G# 2
	G_ 2
	octave 2
	F_ 2
	octave 3
	F_ 2
	octave 2
	C_ 2
	D# 2
	F_ 2
	octave 3
	F_ 2
	octave 2
	C_ 2
	D# 2
	octave 1
	G_ 2
	octave 2
	G_ 2
	octave 1
	G_ 2
	octave 2
	F_ 4
	F_ 2
	D# 2
	D_ 2
	C_ 2
	octave 3
	C_ 2
	octave 1
	G_ 2
	A# 2
	octave 2
	C_ 2
	octave 3
	C_ 2
	octave 1
	G_ 2
	A# 2
	octave 2
	C_ 2
	octave 1
	A# 2
	octave 2
	C_ 2
	D_ 2
	D# 2
	D_ 2
	C_ 2
	octave 1
	A# 2
	G# 2
	octave 2
	G# 2
	D# 2
	F# 2
	octave 1
	G# 2
	octave 2
	G# 2
	D# 2
	F# 2
	octave 1
	A# 2
	octave 2
	A# 2
	octave 1
	F_ 2
	G# 2
	A# 2
	octave 2
	A# 2
	octave 1
	F_ 2
	G# 2
	octave 2
	C_ 2
	octave 3
	C_ 2
	octave 1
	G_ 2
	A# 2
	octave 2
	C_ 2
	octave 3
	C_ 2
	octave 1
	G_ 2
	A# 2
	octave 2
	C_ 2
	octave 3
	C_ 2
	octave 1
	G_ 2
	A# 2
	octave 2
	C_ 2
	octave 3
	C_ 2
	octave 1
	G_ 2
	A# 2
	octave 2
	C_ 2
	octave 3
	C_ 2
	octave 1
	G_ 2
	A# 2
	octave 2
	C_ 2
	octave 3
	C_ 2
	octave 1
	G_ 2
	A# 2
	octave 2
	C_ 2
	D# 2
	C_ 2
	octave 1
	A# 2
	octave 2
	endchannel
OceanDriesUp_Ch3_sub_1:
	octave 1
	G# 2
	G# 2
	octave 2
	G# 2
	octave 1
	G# 2
	G# 2
	G# 2
	octave 2
	G# 2
	octave 1
	G# 2
	G# 2
	G# 2
	octave 2
	G# 2
	octave 1
	G# 2
	G# 2
	G# 2
	octave 2
	G# 2
	octave 1
	G# 2
	octave 2
	C_ 4
	octave 3
	C_ 2
	octave 2
	C_ 4
	octave 3
	C_ 2
	octave 2
	C_ 4
	octave 3
	C_ 2
	octave 2
	C_ 4
	octave 3
	C_ 2
	octave 2
	C_ 2
	octave 3
	C_ 2
	octave 2
	C_ 2
	octave 3
	C_ 2
	endchannel
OceanDriesUp_Ch3_sub_2:
	D# 2
	octave 3
	D# 2
	octave 1
	A# 2
	octave 2
	C# 2
	D# 2
	octave 3
	D# 2
	octave 1
	A# 2
	octave 2
	C# 2
	endchannel
OceanDriesUp_Ch3_sub_3:
	C# 2
	D# 2
	C# 2
	D# 2
	C# 2
	D# 2
	C# 2
	octave 1
	B_ 2
	octave 2
	B_ 2
	F# 2
	G# 2
	octave 1
	B_ 2
	octave 2
	B_ 2
	F# 2
	G# 2
	octave 1
	B_ 2
	octave 2
	B_ 2
	octave 1
	B_ 2
	A# 2
	B_ 2
	A# 2
	B_ 2
	A# 2
	octave 2
	G# 2
	octave 3
	G# 2
	octave 2
	D# 2
	F# 2
	G# 2
	octave 3
	G# 2
	octave 2
	D# 2
	F# 2
	octave 1
	endchannel
OceanDriesUp_Ch3_sub_4:
	C_ 2
	octave 3
	C_ 2
	octave 1
	G_ 2
	A# 2
	octave 2
	C_ 2
	octave 3
	C_ 2
	octave 1
	G_ 2
	A# 2
	endchannel
OceanDriesUp_Ch3_sub_6:
	octave 2
	D_ 15
	octave 1
	A_ 6
	octave 2
	D_ 6
	octave 1
	A_ 3
	octave 2
	C_ 3
	octave 1
	A_ 3
	endchannel
OceanDriesUp_Ch3_sub_7:
	C_ 2
	octave 1
	A# 2
	octave 2
	C_ 2
	octave 1
	A# 2
	octave 2
	C_ 2
	octave 1
	A# 2
	endchannel
OceanDriesUp_Ch3_sub_8:
	octave 1
	B_ 2
	octave 2
	B_ 2
	endchannel
OceanDriesUp_Ch3::
	notetype 12, 0, 0
	rest 1
	rest 13
	notetype 6, 0, 0
	rest 1
	vibrato 0, 0, 0
	notetype 6, 1, 4
	octave 2
	D_ 3
	F_ 3
	D_ 3
	notetype 10, 1, 4
	G_ 16
	notetype 1, 1, 4
	rest 2
	notetype 6, 1, 4
	D_ 3
	F_ 3
	D_ 3
	notetype 10, 1, 4
	D# 16
	notetype 1, 1, 4
	rest 2
	notetype 6, 1, 4
	octave 1
	A# 3
	octave 2
	C# 3
	octave 1
	A# 3
	notetype 10, 1, 4
	octave 2
	C_ 16
	notetype 1, 1, 4
	rest 2
	notetype 6, 1, 4
	octave 1
	G_ 3
	A# 3
	G_ 3
	
	notetype 10, 1, 4
	octave 2
	D_ 16
	notetype 6, 1, 4
	octave 1
	A_ 3
	octave 2
	C_ 3
	octave 1
	A_ 3
	
	notetype 10, 1, 4
	octave 2
	D_ 16
	notetype 1, 1, 4
	rest 2
	notetype 6, 1, 4
	octave 1
	A_ 3
	octave 2
	C_ 3
	octave 1
	A_ 3
	
	octave 2
	G_ 15
	D_ 6
	G_ 6
	D_ 3
	F_ 3
	D_ 3
	G_ 15
	D_ 6
	G_ 6
	D_ 3
	F_ 3
	D_ 3
	D# 15
	octave 1
	A# 6
	octave 2
	D# 6
	octave 1
	A# 3
	octave 2
	C# 3
	octave 1
	A# 3
	octave 2
	C_ 15
	octave 1
	G_ 6
	octave 2
	C_ 6
	octave 1
	G_ 3
	A# 3
	G_ 3
	callchannel OceanDriesUp_Ch3_sub_6
	callchannel OceanDriesUp_Ch3_sub_6
	notetype 15, 1, 4
	G_ 16
	notetype 12, 1, 4
	G_ 4
	G_ 16
	rest 16
	rest 16
	notetype 12, 1, 3
	octave 2
	C_ 14
	C_ 2
	C_ 2
	octave 1
	D_ 2
	D# 2
	F_ 2
	G_ 2
	D# 2
	G_ 2
	A# 2
	octave 2
	C_ 14
	C_ 2
	C_ 2
	D# 2
	callchannel OceanDriesUp_Ch3_sub_7
	octave 2
	C_ 8
	octave 1
	C_ 2
	octave 2
	C_ 8
	octave 1
	A# 2
	octave 2
	callchannel OceanDriesUp_Ch3_sub_7
	G# 14
	octave 2
	G# 1
	F_ 1
	G_ 8
	G_ 2
	F_ 2
	D# 2
	D_ 2
	C_ 4
	C_ 4
	C_ 4
	C_ 4
	C_ 4
	C_ 4
	G_ 2
	F_ 2
	D# 2
	D_ 2
	callchannel OceanDriesUp_Ch3_sub_4
	octave 2
	callchannel OceanDriesUp_Ch3_sub_4
	octave 2
	callchannel OceanDriesUp_Ch3_sub_4
	G_ 2
	octave 2
	G_ 2
	octave 1
	G_ 2
	octave 2
	G_ 2
	G_ 2
	F_ 2
	D# 2
	D_ 2
	callchannel OceanDriesUp_Ch3_sub_0
	C_ 2
	rest 2
	octave 3
	C_ 4
	callchannel OceanDriesUp_Ch3_sub_1
	callchannel OceanDriesUp_Ch3_sub_1
	octave 2
	callchannel OceanDriesUp_Ch3_sub_0
	C_ 4
	octave 3
	C_ 4
	octave 2
	callchannel OceanDriesUp_Ch3_sub_2
	D# 2
	callchannel OceanDriesUp_Ch3_sub_3
	A# 2
	octave 2
	A# 2
	octave 1
	A# 2
	octave 2
	G# 4
	G# 2
	F# 2
	F_ 2
	callchannel OceanDriesUp_Ch3_sub_2
	D# 2
	C# 2
	D# 2
	F_ 2
	F# 2
	F_ 2
	D# 2
	C# 2
	callchannel OceanDriesUp_Ch3_sub_8
	F# 2
	A_ 2
	callchannel OceanDriesUp_Ch3_sub_8
	F# 2
	A_ 2
	C# 2
	octave 3
	C# 2
	octave 1
	G# 2
	B_ 2
	octave 2
	C# 2
	octave 3
	C# 2
	octave 1
	G# 2
	B_ 2
	octave 2
	callchannel OceanDriesUp_Ch3_sub_2
	callchannel OceanDriesUp_Ch3_sub_2
	callchannel OceanDriesUp_Ch3_sub_2
	D# 2
	F# 2
	D# 2
	C# 2
	D# 4
	octave 3
	D# 4
	callchannel OceanDriesUp_Ch3_sub_1
	callchannel OceanDriesUp_Ch3_sub_1
	octave 2
	callchannel OceanDriesUp_Ch3_sub_0
	C_ 4
	octave 3
	C_ 4
	octave 2
	callchannel OceanDriesUp_Ch3_sub_2
	D# 2
	callchannel OceanDriesUp_Ch3_sub_3
	A# 12
	octave 2
	A# 1
	octave 3
	C_ 1
	octave 2
	A# 2
	callchannel OceanDriesUp_Ch3_sub_2
	callchannel OceanDriesUp_Ch3_sub_2
	callchannel OceanDriesUp_Ch3_sub_8
	callchannel OceanDriesUp_Ch3_sub_8
	callchannel OceanDriesUp_Ch3_sub_8
	callchannel OceanDriesUp_Ch3_sub_8
	C# 2
	octave 3
	C# 2
	octave 2
	C# 2
	octave 3
	C# 2
	octave 2
	C# 2
	octave 3
	C# 2
	octave 2
	C# 2
	octave 3
	C# 2
	octave 2
	D# 2
	octave 3
	D# 1
	F_ 1
	D# 2
	octave 2
	A# 1
	octave 3
	C_ 1
	octave 2
	A# 2
	G_ 1
	A_ 1
	G_ 2
	F_ 2
	D# 2
	octave 3
	D# 1
	D# 1
	octave 2
	D# 2
	octave 3
	D# 1
	D# 1
	octave 2
	D# 4
	endchannel
OceanDriesUp_Ch4_sub_0:
	snare1 2
	snare3 2
	snare1 2
	snare3 2
	snare1 2
	snare3 2
	snare1 2
	snare3 2
	snare1 2
	snare3 2
	snare1 2
	snare3 2
	snare1 2
	snare3 2
	endchannel
OceanDriesUp_Ch4_sub_1:
	snare1 2
	snare3 2
	snare3 2
	snare1 2
	snare3 2
	snare3 2
	snare1 2
	snare3 2
	snare3 2
	snare1 2
	snare3 2
	snare3 2
	snare1 2
	snare3 2
	snare1 2
	endchannel
OceanDriesUp_Ch4_sub_2:
	snare1 2
	snare3 2
	snare1 2
	snare3 2
	snare1 2
	snare3 2
	snare1 2
	snare3 2
	snare1 2
	snare1 2
	snare3 2
	snare3 2
	endchannel
OceanDriesUp_Ch4_sub_3:
	snare1 2
	snare3 2
	snare1 2
	snare1 2
	endchannel
OceanDriesUp_Ch4::
	dspeed 12
	rest 1
	rest 16
	rest 16
	rest 16
	rest 16
	rest 16
	rest 16
	rest 16
	rest 16
	rest 16
	rest 16
	rest 16
	rest 16
	rest 16
	rest 16
	rest 16
	rest 16
	snare3 2
	snare3 6
	snare1 2
	snare1 6
	snare3 2
	snare3 2
	snare1 2
	snare6 1
	snare6 1
	snare7 2
	snare7 2
	snare8 2
	snare8 2
	snare3 4
	snare3 4
	snare3 4
	snare3 4
	snare3 4
	snare3 4
	snare3 4
	snare3 4
	snare3 4
	snare3 4
	snare3 4
	snare3 4
	snare3 4
	snare3 4
	snare3 4
	snare3 4
	snare3 4
	snare3 4
	snare3 4
	snare3 4
	snare3 4
	snare3 4
	snare3 4
	snare3 4
	snare3 4
	snare3 4
	snare3 4
	snare3 4
	snare3 2
	snare1 2
	snare3 2
	snare3 1
	snare3 1
	snare1 2
	snare3 2
	snare1 1
	snare3 1
	snare3 1
	snare3 1
	snare1 4
	snare1 4
	snare1 4
	snare1 4
	snare1 4
	snare1 4
	snare1 4
	snare1 2
	callchannel OceanDriesUp_Ch4_sub_0
	snare1 2
	snare3 2
	snare1 2
	snare3 2
	snare1 2
	snare3 2
	snare1 2
	snare3 2
	snare1 2
	snare3 2
	snare1 2
	snare3 2
	snare1 2
	snare3 1
	snare1 1
	snare1 2
	snare6 1
	snare6 1
	snare7 2
	snare7 1
	snare7 1
	snare8 2
	snare3 2
	callchannel OceanDriesUp_Ch4_sub_0
	callchannel OceanDriesUp_Ch4_sub_0
	snare1 2
	snare1 2
	callchannel OceanDriesUp_Ch4_sub_2
	snare1 4
	callchannel OceanDriesUp_Ch4_sub_0
	callchannel OceanDriesUp_Ch4_sub_3
	callchannel OceanDriesUp_Ch4_sub_0
	callchannel OceanDriesUp_Ch4_sub_0
	callchannel OceanDriesUp_Ch4_sub_0
	snare1 2
	snare1 2
	snare1 2
	snare1 4
	cymbal1 4
	snare3 2
	callchannel OceanDriesUp_Ch4_sub_0
	snare1 2
	callchannel OceanDriesUp_Ch4_sub_1
	callchannel OceanDriesUp_Ch4_sub_0
	snare1 2
	snare3 2
	snare1 2
	callchannel OceanDriesUp_Ch4_sub_1
	callchannel OceanDriesUp_Ch4_sub_0
	callchannel OceanDriesUp_Ch4_sub_0
	callchannel OceanDriesUp_Ch4_sub_3
	callchannel OceanDriesUp_Ch4_sub_2
	snare1 4
	callchannel OceanDriesUp_Ch4_sub_0
	callchannel OceanDriesUp_Ch4_sub_3
	callchannel OceanDriesUp_Ch4_sub_0
	callchannel OceanDriesUp_Ch4_sub_0
	callchannel OceanDriesUp_Ch4_sub_0
	snare1 2
	snare1 2
	snare1 2
	snare1 4
	cymbal1 4
	snare3 2
	callchannel OceanDriesUp_Ch4_sub_0
	callchannel OceanDriesUp_Ch4_sub_0
	snare1 2
	snare1 2
	callchannel OceanDriesUp_Ch4_sub_2
	snare1 4
	callchannel OceanDriesUp_Ch4_sub_0
	callchannel OceanDriesUp_Ch4_sub_3
	callchannel OceanDriesUp_Ch4_sub_0
	callchannel OceanDriesUp_Ch4_sub_0
	callchannel OceanDriesUp_Ch4_sub_0
	snare1 2
	snare1 2
	snare1 2
	snare1 4
	cymbal1 4
	snare3 2
	callchannel OceanDriesUp_Ch4_sub_0
	snare1 2
	callchannel OceanDriesUp_Ch4_sub_1
	callchannel OceanDriesUp_Ch4_sub_0
	snare1 2
	snare3 2
	snare1 2
	callchannel OceanDriesUp_Ch4_sub_1
	callchannel OceanDriesUp_Ch4_sub_0
	callchannel OceanDriesUp_Ch4_sub_0
	callchannel OceanDriesUp_Ch4_sub_3
	callchannel OceanDriesUp_Ch4_sub_2
	snare1 4
	callchannel OceanDriesUp_Ch4_sub_0
	callchannel OceanDriesUp_Ch4_sub_3
	callchannel OceanDriesUp_Ch4_sub_0
	callchannel OceanDriesUp_Ch4_sub_0
	callchannel OceanDriesUp_Ch4_sub_0
	snare1 2
	snare1 2
	snare1 2
	snare1 4
	cymbal1 4
	snare3 2
	callchannel OceanDriesUp_Ch4_sub_0
	callchannel OceanDriesUp_Ch4_sub_0
	snare1 2
	snare1 2
	callchannel OceanDriesUp_Ch4_sub_2
	snare1 2
	snare3 2
	snare3 2
	snare1 2
	callchannel OceanDriesUp_Ch4_sub_0
	snare1 2
	snare1 2
	callchannel OceanDriesUp_Ch4_sub_0
	snare1 2
	snare3 2
	snare1 2
	snare3 2
	snare1 1
	snare1 1
	snare6 2
	snare1 1
	snare1 1
	snare7 2
	snare1 1
	snare1 1
	snare8 2
	snare1 1
	snare1 1
	snare3 2
	snare6 1
	snare6 1
	snare7 2
	snare1 2
	snare6 2
	snare8 2
	cymbal1 2
	endchannel
