ClubBattle_Ch1::
	tempo 99
	vibrato 0, 0, 0
	duty 3
	notetype 12, 11, 3
	toggleperfectpitch
	octave 1
	D_ 4
	D_ 2
	D_ 4
	D_ 2
	D_ 4
	D_ 2
	D_ 4
	D_ 2
	D_ 4
	D_ 2
	D_ 4
	D_ 2
	D_ 4
	D_ 2
	D_ 4
	D_ 2
ClubBattle_Ch1_loop:
	octave 1
	D_ 4
	callchannel ClubBattle_Ch1_loop_sub_7
	D_ 4
	callchannel ClubBattle_Ch1_loop_sub_7
	callchannel ClubBattle_Ch1_loop_sub_3
	callchannel ClubBattle_Ch1_loop_sub_3
	callchannel ClubBattle_Ch1_loop_sub_3
	callchannel ClubBattle_Ch1_loop_sub_3
	callchannel ClubBattle_Ch1_loop_sub_3
	callchannel ClubBattle_Ch1_loop_sub_3
	callchannel ClubBattle_Ch1_loop_sub_3
	callchannel ClubBattle_Ch1_loop_sub_3
	callchannel ClubBattle_Ch1_loop_sub_0
	octave 1
	G_ 2
	octave 2
	C_ 2
	octave 1
	G_ 2
	octave 2
	C_ 2
	G_ 2
	octave 3
	C_ 2
	G_ 2
	notetype 12, 11, 0
	A_ 2
	rest 2
	D_ 2
	notetype 14, 11, 0
	D_ 15
	notetype 6, 11, 0
	D_ 1
	notetype 6, 11, 3
	octave 1
	A_ 4
	D_ 4
	A_ 4
	A_ 4
	D_ 4
	A_ 4
	A_ 4
	D_ 4
	A_ 4
	A_ 4
	D_ 4
	A_ 4
	notetype 15, 11, 0
	octave 2
	E_ 16
	notetype 12, 11, 0
	E_ 4
	G_ 12
	octave 3
	C_ 6
	octave 2
	A_ 1
	B_ 1
	octave 3
	C_ 1
	D_ 1
	E_ 1
	F# 1
	callchannel ClubBattle_Ch1_loop_sub_0
	octave 3
	notetype 12, 11, 0
	C_ 1
	D_ 1
	E_ 2
	rest 2
	C_ 2
	rest 2
	octave 2
	G_ 2
	rest 2
	A_ 2
	rest 2
	D_ 2
	notetype 14, 11, 0
	A_ 15
	notetype 6, 11, 0
	A_ 1
	notetype 6, 11, 3
	A_ 4
	D_ 4
	A_ 4
	D_ 4
	A_ 4
	D_ 4
	A_ 4
	D_ 4
	A_ 4
	D_ 4
	A_ 4
	A# 2
	B_ 2
	notetype 15, 11, 0
	octave 3
	C_ 16
	notetype 12, 11, 0
	C_ 4
	E_ 12
	G_ 6
	A_ 1
	B_ 1
	octave 4
	C_ 1
	D_ 1
	E_ 1
	F# 1
	A_ 2
	callchannel ClubBattle_Ch1_loop_sub_6
	callchannel ClubBattle_Ch1_loop_sub_6
	callchannel ClubBattle_Ch1_loop_sub_6
	rest 2
	octave 1
	callchannel ClubBattle_Ch1_loop_sub_7
	notetype 12, 11, 5
	octave 2
	E_ 4
	E_ 2
	F# 4
	F# 2
	G_ 4
	G_ 2
	G_ 6
	notetype 12, 11, 3
	callchannel ClubBattle_Ch1_loop_sub_2
	A_ 2
	callchannel ClubBattle_Ch1_loop_sub_2
	A_ 2
	callchannel ClubBattle_Ch1_loop_sub_1
	callchannel ClubBattle_Ch1_loop_sub_1
	callchannel ClubBattle_Ch1_loop_sub_1
	callchannel ClubBattle_Ch1_loop_sub_1
	callchannel ClubBattle_Ch1_loop_sub_2
	notetype 12, 11, 5
	A_ 4
	B_ 4
	B_ 8
	A_ 4
	A_ 6
	notetype 12, 11, 3
	callchannel ClubBattle_Ch1_loop_sub_2
	A_ 2
	callchannel ClubBattle_Ch1_loop_sub_2
	A_ 2
	callchannel ClubBattle_Ch1_loop_sub_1
	callchannel ClubBattle_Ch1_loop_sub_1
	octave 2
	B_ 2
	D_ 2
	G_ 2
	octave 1
	B_ 2
	notetype 6, 11, 0
	octave 2
	D_ 5
	octave 1
	G_ 4
	octave 2
	B_ 4
	D_ 4
	G_ 4
	octave 1
	B_ 4
	octave 2
	D_ 4
	octave 1
	G_ 4
	callchannel ClubBattle_Ch1_loop_sub_8
	callchannel ClubBattle_Ch1_loop_sub_8
	callchannel ClubBattle_Ch1_loop_sub_4
	E_ 4
	G_ 4
	C_ 4
	callchannel ClubBattle_Ch1_loop_sub_4
	A_ 2
	B_ 2
	octave 3
	C# 2
	D_ 2
	E_ 2
	F# 2
	notetype 6, 11, 0
	A_ 4
	rest 4
	octave 1
	notetype 6, 11, 3
	D_ 4
	D_ 8
	D_ 4
	D_ 8
	D_ 4
	D_ 8
	D_ 4
	callchannel ClubBattle_Ch1_loop_sub_5
	callchannel ClubBattle_Ch1_loop_sub_5
	callchannel ClubBattle_Ch1_loop_sub_5
	octave 4
	D_ 4
	C_ 4
	octave 3
	A_ 4
	octave 4
	C_ 4
	octave 3
	A_ 4
	G_ 4
	A_ 4
	G_ 4
	F_ 4
	G_ 4
	F_ 4
	C_ 4
	notetype 15, 11, 0
	D_ 16
	notetype 12, 11, 0
	D_ 16
	D_ 12
	loopchannel 0, ClubBattle_Ch1_loop
ClubBattle_Ch1_loop_sub_0:
	notetype 12, 11, 3
	octave 2
	D_ 2
	octave 1
	A_ 2
	octave 2
	D_ 2
	octave 1
	A_ 2
	octave 2
	D_ 2
	octave 1
	A_ 2
	octave 2
	D_ 2
	octave 1
	A_ 2
	octave 2
	D_ 2
	octave 1
	A_ 2
	octave 2
	D_ 2
	octave 1
	A_ 2
	octave 2
	D_ 2
	octave 1
	A_ 2
	octave 2
	D_ 2
	octave 1
	A_ 2
	octave 2
	D_ 2
	octave 1
	A_ 2
	octave 2
	D_ 2
	octave 1
	A_ 2
	octave 2
	D_ 2
	octave 1
	A_ 2
	octave 2
	D_ 2
	octave 1
	A_ 2
	octave 2
	C_ 2
	octave 1
	G_ 2
	octave 2
	C_ 2
	octave 1
	G_ 2
	octave 2
	C_ 2
	octave 1
	G_ 2
	octave 2
	C_ 2
	octave 1
	G_ 2
	octave 2
	C_ 2
	octave 1
	G_ 2
	octave 2
	C_ 2
	octave 1
	G_ 2
	octave 2
	C_ 2
	octave 1
	G_ 2
	octave 2
	C_ 2
	octave 1
	G_ 2
	octave 2
	C_ 2
	endchannel
ClubBattle_Ch1_loop_sub_1:
	octave 3
	D_ 2
	octave 2
	G_ 2
	B_ 2
	D_ 2
	G_ 2
	octave 1
	B_ 2
	octave 3
	D_ 2
	octave 2
	G_ 2
	B_ 2
	D_ 2
	G_ 2
	octave 1
	B_ 2
	endchannel
ClubBattle_Ch1_loop_sub_2:
	octave 3
	C# 2
	octave 2
	F# 2
	A_ 2
	D_ 2
	F# 2
	octave 1
	A_ 2
	octave 3
	C# 2
	octave 2
	F# 2
	A_ 2
	D_ 2
	F# 2
	octave 1
	endchannel
ClubBattle_Ch1_loop_sub_3:
	notetype 12, 11, 3
	octave 2
	D_ 4
	D_ 2
	octave 1
	A_ 2
	octave 2
	D_ 2
	octave 1
	A_ 2
	endchannel
ClubBattle_Ch1_loop_sub_4:
	octave 3
	D_ 4
	octave 2
	F_ 4
	A_ 4
	D_ 4
	F_ 4
	octave 1
	A_ 4
	octave 3
	D_ 4
	octave 2
	F_ 4
	A_ 4
	D_ 4
	F_ 4
	octave 1
	A_ 4
	octave 3
	E_ 4
	octave 2
	G_ 4
	octave 3
	C_ 4
	octave 2
	E_ 4
	G_ 4
	C_ 4
	octave 3
	E_ 4
	octave 2
	G_ 4
	octave 3
	C_ 4
	octave 2
	endchannel
ClubBattle_Ch1_loop_sub_5:
	D_ 8
	D_ 4
	D_ 8
	D_ 4
	D_ 8
	octave 4
	G_ 16
	A_ 4
	rest 4
	octave 1
	D_ 4
	D_ 8
	D_ 4
	D_ 8
	D_ 4
	D_ 8
	D_ 4
	endchannel
ClubBattle_Ch1_loop_sub_6:
	rest 2
	notetype 12, 11, 3
	octave 1
	D_ 2
	D_ 4
	D_ 2
	D_ 4
	D_ 2
	D_ 4
	D_ 2
	D_ 4
	D_ 2
	D_ 4
	D_ 2
	D_ 4
	octave 4
	notetype 12, 11, 0
	G_ 8
	A_ 2
	endchannel
ClubBattle_Ch1_loop_sub_7:
	notetype 12, 11, 3
	D_ 2
	D_ 4
	D_ 2
	D_ 4
	D_ 2
	D_ 4
	D_ 2
	endchannel
ClubBattle_Ch1_loop_sub_8:
	octave 3
	C# 4
	octave 2
	E_ 4
	A_ 4
	C# 4
	E_ 4
	octave 1
	A_ 4
	endchannel
ClubBattle_Ch2_sub_0:
	octave 1
	D_ 4
	D_ 2
	octave 2
	D_ 2
	octave 1
	D_ 2
	octave 2
	D_ 2
	endchannel
ClubBattle_Ch2::
	vibrato 9, 3, 4
	duty 3
	notetype 12, 13, 3
	callchannel ClubBattle_Ch2_sub_0
	callchannel ClubBattle_Ch2_sub_0
	callchannel ClubBattle_Ch2_sub_0
	callchannel ClubBattle_Ch2_sub_0
ClubBattle_Ch2_loop:
	notetype 12, 13, 3
	octave 1
	D_ 4
	callchannel ClubBattle_Ch2_loop_sub_0
	callchannel ClubBattle_Ch2_loop_sub_0
	callchannel ClubBattle_Ch2_loop_sub_0
	callchannel ClubBattle_Ch2_loop_sub_1
	octave 1
	D_ 4
	D_ 2
	callchannel ClubBattle_Ch2_loop_sub_3
	C_ 16
	notetype 12, 13, 0
	octave 3
	B_ 4
	G_ 4
	D_ 2
	rest 2
	octave 2
	A_ 2
	notetype 15, 13, 0
	A_ 16
	notetype 12, 13, 0
	A_ 16
	A_ 6
	notetype 15, 3, 10
	C_ 16
	notetype 12, 13, 0
	C_ 4
	E_ 12
	G_ 6
	notetype 12, 13, 3
	callchannel ClubBattle_Ch2_loop_sub_3
	notetype 12, 13, 0
	C_ 14
	E_ 1
	F_ 1
	G_ 2
	rest 2
	E_ 2
	rest 2
	C_ 2
	rest 2
	D_ 2
	rest 2
	octave 3
	A_ 2
	notetype 15, 13, 0
	octave 4
	D_ 16
	D_ 16
	notetype 12, 13, 0
	octave 3
	D_ 1
	D# 1
	notetype 15, 3, 10
	E_ 16
	notetype 12, 13, 0
	E_ 4
	G_ 12
	octave 4
	C_ 6
	D_ 1
	E_ 1
	F_ 1
	G_ 1
	A_ 1
	B_ 1
	octave 5
	D_ 2
	rest 2
	octave 1
	callchannel ClubBattle_Ch2_loop_sub_0
	callchannel ClubBattle_Ch2_loop_sub_4
	callchannel ClubBattle_Ch2_loop_sub_0
	callchannel ClubBattle_Ch2_loop_sub_4
	callchannel ClubBattle_Ch2_loop_sub_0
	callchannel ClubBattle_Ch2_loop_sub_4
	callchannel ClubBattle_Ch2_loop_sub_1
	notetype 12, 13, 5
	octave 3
	G_ 2
	octave 2
	B_ 2
	octave 3
	G_ 2
	A_ 2
	D_ 2
	A_ 2
	B_ 2
	D_ 2
	B_ 2
	notetype 12, 13, 0
	callchannel ClubBattle_Ch2_loop_sub_2
	notetype 14, 13, 0
	F# 15
	notetype 12, 13, 0
	F# 16
	rest 8
	notetype 6, 13, 0
	rest 1
	notetype 15, 13, 0
	C# 16
	notetype 12, 13, 0
	C# 2
	D_ 2
	E_ 6
	D_ 6
	C# 6
	octave 3
	B_ 6
	B_ 10
	octave 4
	C# 1
	octave 3
	B_ 1
	A_ 14
	D_ 4
	D_ 8
	C# 4
	callchannel ClubBattle_Ch2_loop_sub_2
	notetype 15, 13, 0
	F# 16
	rest 8
	notetype 12, 13, 0
	octave 3
	B_ 4
	octave 4
	C# 4
	D_ 4
	notetype 15, 13, 0
	D_ 16
	notetype 6, 13, 0
	D_ 1
	C# 4
	D_ 4
	E_ 12
	D_ 12
	C# 12
	octave 3
	A_ 12
	notetype 15, 13, 0
	octave 4
	F_ 16
	notetype 12, 13, 0
	E_ 2
	F_ 2
	G_ 6
	F_ 6
	E_ 6
	C_ 6
	notetype 15, 13, 0
	A_ 16
	notetype 12, 13, 0
	G_ 2
	F_ 2
	G_ 12
	octave 5
	C_ 6
	octave 4
	D_ 1
	E_ 1
	F# 1
	G_ 1
	A_ 1
	B_ 1
	octave 5
	D_ 2
	rest 2
	octave 1
	callchannel ClubBattle_Ch2_loop_sub_0
	callchannel ClubBattle_Ch2_loop_sub_4
	callchannel ClubBattle_Ch2_loop_sub_0
	callchannel ClubBattle_Ch2_loop_sub_4
	callchannel ClubBattle_Ch2_loop_sub_0
	callchannel ClubBattle_Ch2_loop_sub_4
	callchannel ClubBattle_Ch2_loop_sub_1
	notetype 12, 13, 0
	octave 3
	D_ 2
	C_ 2
	octave 2
	A_ 2
	octave 3
	C_ 2
	octave 2
	A_ 2
	G_ 2
	A_ 2
	G_ 2
	F_ 2
	G_ 2
	F_ 2
	C_ 2
	notetype 15, 13, 0
	A_ 16
	notetype 12, 13, 0
	A_ 16
	A_ 12
	loopchannel 0, ClubBattle_Ch2_loop
ClubBattle_Ch2_loop_sub_0:
	notetype 12, 13, 3
	D_ 2
	octave 2
	D_ 2
	octave 1
	D_ 2
	octave 2
	D_ 2
	octave 1
	D_ 4
	D_ 2
	octave 2
	D_ 2
	octave 1
	D_ 2
	octave 2
	D_ 2
	octave 1
	D_ 4
	D_ 2
	octave 2
	D_ 2
	octave 1
	D_ 2
	octave 2
	D_ 2
	octave 1
	D_ 4
	endchannel
ClubBattle_Ch2_loop_sub_1:
	D_ 2
	octave 2
	D_ 2
	octave 1
	D_ 2
	octave 2
	D_ 2
	octave 1
	D_ 4
	D_ 2
	octave 2
	D_ 2
	octave 1
	D_ 2
	octave 2
	D_ 2
	endchannel
ClubBattle_Ch2_loop_sub_2:
	D_ 1
	E_ 1
	F# 1
	G_ 1
	A_ 1
	B_ 1
	octave 4
	D_ 4
	C# 4
	octave 3
	A_ 4
	F# 12
	octave 4
	D_ 4
	C# 4
	octave 3
	A_ 4
	F# 4
	G_ 4
	A_ 4
	B_ 4
	octave 4
	F# 2
	endchannel
ClubBattle_Ch2_loop_sub_3:
	octave 3
	D_ 1
	E_ 1
	F_ 1
	G_ 1
	A_ 1
	B_ 1
	notetype 15, 13, 0
	octave 4
	D_ 16
	notetype 12, 13, 0
	D_ 16
	octave 3
	A_ 12
	notetype 15, 13, 0
	octave 4
	C_ 16
	endchannel
ClubBattle_Ch2_loop_sub_4:
	notetype 12, 13, 0
	octave 5
	C_ 8
	D_ 2
	rest 2
	notetype 12, 13, 3
	octave 1
	endchannel
ClubBattle_Ch3_sub_0:
	octave 2
	D_ 2
	D_ 2
	D_ 2
	octave 3
	D_ 2
	octave 2
	D_ 2
	octave 3
	D_ 2
	endchannel
ClubBattle_Ch3::
	vibrato 0, 0, 0
	notetype 12, 1, 4
	callchannel ClubBattle_Ch3_sub_0
	callchannel ClubBattle_Ch3_sub_0
	callchannel ClubBattle_Ch3_sub_0
	callchannel ClubBattle_Ch3_sub_0
ClubBattle_Ch3_loop:
	notetype 12, 1, 4
	callchannel ClubBattle_Ch3_loop_sub_0
	callchannel ClubBattle_Ch3_loop_sub_0
	callchannel ClubBattle_Ch3_loop_sub_0
	callchannel ClubBattle_Ch3_loop_sub_0
	callchannel ClubBattle_Ch3_loop_sub_0
	callchannel ClubBattle_Ch3_loop_sub_0
	callchannel ClubBattle_Ch3_loop_sub_0
	callchannel ClubBattle_Ch3_loop_sub_0
	callchannel ClubBattle_Ch3_loop_sub_0
	callchannel ClubBattle_Ch3_loop_sub_0
	callchannel ClubBattle_Ch3_loop_sub_0
	callchannel ClubBattle_Ch3_loop_sub_0
	callchannel ClubBattle_Ch3_loop_sub_0
	callchannel ClubBattle_Ch3_loop_sub_0
	callchannel ClubBattle_Ch3_loop_sub_0
	callchannel ClubBattle_Ch3_loop_sub_0
	callchannel ClubBattle_Ch3_loop_sub_2
	callchannel ClubBattle_Ch3_loop_sub_2
	callchannel ClubBattle_Ch3_loop_sub_4
	callchannel ClubBattle_Ch3_loop_sub_4
	callchannel ClubBattle_Ch3_loop_sub_4
	callchannel ClubBattle_Ch3_loop_sub_4
	callchannel ClubBattle_Ch3_loop_sub_0
	callchannel ClubBattle_Ch3_loop_sub_0
	callchannel ClubBattle_Ch3_loop_sub_2
	callchannel ClubBattle_Ch3_loop_sub_2
	octave 2
	G_ 2
	G_ 2
	G_ 2
	octave 3
	G_ 2
	notetype 6, 1, 4
	octave 2
	G_ 5
	octave 3
	callchannel ClubBattle_Ch3_loop_sub_5
	callchannel ClubBattle_Ch3_loop_sub_5
	callchannel ClubBattle_Ch3_loop_sub_5
	G_ 4
	octave 2
	A# 4
	A# 4
	callchannel ClubBattle_Ch3_loop_sub_3
	A# 4
	A# 4
	callchannel ClubBattle_Ch3_loop_sub_3
	D_ 4
	D_ 4
	D_ 4
	octave 3
	D_ 4
	octave 2
	D_ 4
	octave 3
	callchannel ClubBattle_Ch3_loop_sub_1
	callchannel ClubBattle_Ch3_loop_sub_1
	callchannel ClubBattle_Ch3_loop_sub_1
	callchannel ClubBattle_Ch3_loop_sub_1
	callchannel ClubBattle_Ch3_loop_sub_1
	callchannel ClubBattle_Ch3_loop_sub_1
	callchannel ClubBattle_Ch3_loop_sub_1
	callchannel ClubBattle_Ch3_loop_sub_1
	callchannel ClubBattle_Ch3_loop_sub_1
	D_ 4
	octave 2
	D_ 4
	D_ 4
	D_ 4
	octave 3
	D_ 4
	octave 2
	D_ 4
	octave 3
	D_ 4
	loopchannel 0, ClubBattle_Ch3_loop
ClubBattle_Ch3_loop_sub_0:
	octave 2
	D_ 2
	D_ 2
	D_ 2
	octave 3
	D_ 2
	octave 2
	D_ 2
	octave 3
	D_ 2
	octave 2
	D_ 2
	D_ 2
	D_ 2
	octave 3
	D_ 2
	octave 2
	D_ 2
	octave 3
	D_ 2
	octave 2
	D_ 2
	D_ 2
	D_ 2
	octave 3
	D_ 2
	octave 2
	D_ 2
	octave 3
	D_ 2
	octave 2
	D_ 2
	D_ 2
	D_ 2
	octave 3
	D_ 2
	octave 2
	D_ 2
	octave 3
	D_ 2
	endchannel
ClubBattle_Ch3_loop_sub_1:
	D_ 4
	octave 2
	D_ 4
	D_ 4
	D_ 4
	octave 3
	D_ 4
	octave 2
	D_ 4
	octave 3
	D_ 4
	octave 2
	D_ 4
	D_ 4
	D_ 4
	octave 3
	D_ 4
	octave 2
	D_ 4
	octave 3
	endchannel
ClubBattle_Ch3_loop_sub_2:
	octave 2
	E_ 2
	E_ 2
	E_ 2
	octave 3
	E_ 2
	octave 2
	E_ 2
	octave 3
	E_ 2
	octave 2
	E_ 2
	E_ 2
	E_ 2
	octave 3
	E_ 2
	octave 2
	E_ 2
	octave 3
	E_ 2
	endchannel
ClubBattle_Ch3_loop_sub_3:
	A# 4
	octave 3
	A# 4
	octave 2
	A# 4
	octave 3
	A# 4
	octave 2
	A# 4
	A# 4
	A# 4
	octave 3
	A# 4
	octave 2
	A# 4
	octave 3
	A# 4
	C_ 4
	C_ 4
	C_ 4
	octave 4
	C_ 4
	octave 3
	C_ 4
	octave 4
	C_ 4
	octave 3
	C_ 4
	C_ 4
	C_ 4
	octave 4
	C_ 4
	octave 3
	C_ 4
	octave 4
	C_ 4
	octave 2
	endchannel
ClubBattle_Ch3_loop_sub_4:
	octave 2
	A_ 2
	A_ 2
	A_ 2
	octave 3
	A_ 2
	octave 2
	A_ 2
	octave 3
	A_ 2
	endchannel
ClubBattle_Ch3_loop_sub_5:
	G_ 4
	octave 2
	G_ 4
	G_ 4
	G_ 4
	octave 3
	G_ 4
	octave 2
	G_ 4
	octave 3
	endchannel
