Touhou3Select_Ch1_sub_0:
	octave 3
	F_ 2
	F_ 2
	F_ 2
	F_ 3
	F_ 3
	F_ 2
	octave 4
	endchannel
Touhou3Select_Ch1::
	tempo 123
	volume 7, 7
	duty 3
	vibrato 0, 0, 0
	notetype 12, 11, 5
	toggleperfectpitch
	rest 1
	octave 3
	F_ 3
	F_ 3
	F_ 2
	octave 4
	F_ 2
	callchannel Touhou3Select_Ch1_sub_0
	F_ 2
	callchannel Touhou3Select_Ch1_sub_0
	F_ 2
	callchannel Touhou3Select_Ch1_sub_0
	F_ 2
	callchannel Touhou3Select_Ch1_sub_0
	G_ 2
	callchannel Touhou3Select_Ch1_sub_0
	G_ 2
	octave 3
	F_ 2
	F_ 2
	F_ 2
	octave 4
	E_ 2
	octave 3
	E_ 1
	E_ 3
	E_ 4
	E_ 2
	E_ 2
	E_ 2
	octave 4
	E_ 2
	octave 3
	E_ 1
	octave 4
	F_ 2
	octave 3
	E_ 1
	octave 4
	G_ 2
	G_ 2
	octave 3
	E_ 2
	E_ 2
	E_ 2
Touhou3Select_Ch1_loop:
	callchannel Touhou3Select_Ch1_loop_sub_3
	callchannel Touhou3Select_Ch1_loop_sub_3
	callchannel Touhou3Select_Ch1_loop_sub_3
	callchannel Touhou3Select_Ch1_loop_sub_3
	callchannel Touhou3Select_Ch1_loop_sub_3
	callchannel Touhou3Select_Ch1_loop_sub_3
	octave 4
	callchannel Touhou3Select_Ch1_loop_sub_7
	octave 4
	callchannel Touhou3Select_Ch1_loop_sub_7
	callchannel Touhou3Select_Ch1_loop_sub_1
	callchannel Touhou3Select_Ch1_loop_sub_1
	callchannel Touhou3Select_Ch1_loop_sub_1
	callchannel Touhou3Select_Ch1_loop_sub_1
	callchannel Touhou3Select_Ch1_loop_sub_1
	callchannel Touhou3Select_Ch1_loop_sub_1
	octave 4
	callchannel Touhou3Select_Ch1_loop_sub_6
	octave 4
	callchannel Touhou3Select_Ch1_loop_sub_6
	callchannel Touhou3Select_Ch1_loop_sub_0
	callchannel Touhou3Select_Ch1_loop_sub_0
	callchannel Touhou3Select_Ch1_loop_sub_0
	callchannel Touhou3Select_Ch1_loop_sub_0
	callchannel Touhou3Select_Ch1_loop_sub_0
	callchannel Touhou3Select_Ch1_loop_sub_0
	octave 4
	callchannel Touhou3Select_Ch1_loop_sub_5
	octave 4
	callchannel Touhou3Select_Ch1_loop_sub_5
	callchannel Touhou3Select_Ch1_loop_sub_2
	callchannel Touhou3Select_Ch1_loop_sub_2
	callchannel Touhou3Select_Ch1_loop_sub_2
	callchannel Touhou3Select_Ch1_loop_sub_2
	callchannel Touhou3Select_Ch1_loop_sub_2
	callchannel Touhou3Select_Ch1_loop_sub_2
	octave 4
	callchannel Touhou3Select_Ch1_loop_sub_4
	octave 4
	callchannel Touhou3Select_Ch1_loop_sub_4
	rest 16
	loopchannel 0, Touhou3Select_Ch1_loop
Touhou3Select_Ch1_loop_sub_0:
	octave 4
	E_ 2
	octave 3
	E_ 2
	octave 4
	E_ 2
	octave 3
	E_ 2
	octave 4
	E_ 2
	octave 3
	E_ 2
	octave 4
	E_ 2
	octave 3
	E_ 2
	endchannel
Touhou3Select_Ch1_loop_sub_1:
	octave 4
	D_ 2
	octave 3
	D_ 2
	octave 4
	D_ 2
	octave 3
	D_ 2
	octave 4
	D_ 2
	octave 3
	D_ 2
	octave 4
	D_ 2
	octave 3
	D_ 2
	endchannel
Touhou3Select_Ch1_loop_sub_2:
	octave 4
	G_ 2
	octave 3
	G_ 2
	octave 4
	G_ 2
	octave 3
	G_ 2
	octave 4
	G_ 2
	octave 3
	G_ 2
	octave 4
	G_ 2
	octave 3
	G_ 2
	endchannel
Touhou3Select_Ch1_loop_sub_3:
	octave 4
	F_ 2
	octave 3
	F_ 2
	octave 4
	F_ 2
	octave 3
	F_ 2
	octave 4
	F_ 2
	octave 3
	F_ 2
	octave 4
	F_ 2
	octave 3
	F_ 2
	endchannel
Touhou3Select_Ch1_loop_sub_4:
	A_ 2
	octave 3
	F# 2
	octave 4
	A_ 2
	octave 3
	F# 2
	octave 4
	A_ 2
	octave 3
	F# 2
	octave 4
	A_ 2
	octave 3
	F# 2
	endchannel
Touhou3Select_Ch1_loop_sub_5:
	F# 2
	octave 3
	D# 2
	octave 4
	F# 2
	octave 3
	D# 2
	octave 4
	F# 2
	octave 3
	D# 2
	octave 4
	F# 2
	octave 3
	D# 2
	endchannel
Touhou3Select_Ch1_loop_sub_6:
	E_ 2
	octave 3
	C# 2
	octave 4
	E_ 2
	octave 3
	C# 2
	octave 4
	E_ 2
	octave 3
	C# 2
	octave 4
	E_ 2
	octave 3
	C# 2
	endchannel
Touhou3Select_Ch1_loop_sub_7:
	G_ 2
	octave 3
	E_ 2
	octave 4
	G_ 2
	octave 3
	E_ 2
	octave 4
	G_ 2
	octave 3
	E_ 2
	octave 4
	G_ 2
	octave 3
	E_ 2
	endchannel
Touhou3Select_Ch2_sub_0:
	G# 3
	G_ 3
	A# 4
	G# 2
	G# 2
	G_ 2
	G# 3
	G_ 3
	A# 4
	G# 2
	endchannel
Touhou3Select_Ch2::
	vibrato 8, 3, 2
	duty 2
	notetype 12, 13, 6
	rest 1
	octave 3
	callchannel Touhou3Select_Ch2_sub_0
	G# 2
	G_ 2
	callchannel Touhou3Select_Ch2_sub_0
	G# 2
	G_ 2
	callchannel Touhou3Select_Ch2_sub_0
	A# 2
	octave 4
	C_ 2
	octave 3
	G_ 3
	G# 3
	G_ 4
	A# 2
	G# 2
	G_ 2
	G_ 3
	G# 3
	A# 4
	octave 4
	C_ 2
	C_ 2
	octave 3
	G_ 2
Touhou3Select_Ch2_loop:
	callchannel Touhou3Select_Ch2_loop_sub_3
	G# 2
	G_ 2
	callchannel Touhou3Select_Ch2_loop_sub_3
	G# 2
	G_ 2
	callchannel Touhou3Select_Ch2_loop_sub_3
	A# 2
	octave 4
	C_ 2
	octave 3
	G_ 3
	G# 3
	G_ 4
	A# 2
	G# 2
	G_ 2
	G_ 3
	G# 3
	A# 4
	octave 4
	C_ 2
	C_ 2
	octave 3
	G_ 2
	callchannel Touhou3Select_Ch2_loop_sub_1
	F_ 2
	E_ 2
	callchannel Touhou3Select_Ch2_loop_sub_1
	F_ 2
	E_ 2
	callchannel Touhou3Select_Ch2_loop_sub_1
	G_ 2
	A_ 2
	E_ 3
	F_ 3
	E_ 4
	G_ 2
	F_ 2
	E_ 2
	E_ 3
	F_ 3
	G_ 4
	A_ 2
	A_ 2
	E_ 2
	callchannel Touhou3Select_Ch2_loop_sub_2
	G_ 2
	F# 2
	callchannel Touhou3Select_Ch2_loop_sub_2
	G_ 2
	F# 2
	callchannel Touhou3Select_Ch2_loop_sub_2
	A_ 2
	B_ 2
	F# 3
	G_ 3
	F# 4
	A_ 2
	G_ 2
	F# 2
	F# 3
	G_ 3
	A_ 4
	B_ 2
	B_ 2
	F# 2
	callchannel Touhou3Select_Ch2_loop_sub_0
	A# 2
	A_ 2
	callchannel Touhou3Select_Ch2_loop_sub_0
	A# 2
	A_ 2
	callchannel Touhou3Select_Ch2_loop_sub_0
	octave 4
	C_ 2
	D_ 2
	octave 3
	A_ 3
	A# 3
	A_ 4
	octave 4
	C_ 2
	octave 3
	A# 2
	A_ 2
	A_ 3
	A# 3
	octave 4
	C_ 4
	D_ 2
	D_ 2
	octave 3
	A_ 2
	rest 16
	loopchannel 0, Touhou3Select_Ch2_loop
Touhou3Select_Ch2_loop_sub_0:
	A# 3
	A_ 3
	octave 4
	C_ 4
	octave 3
	A# 2
	A# 2
	A_ 2
	A# 3
	A_ 3
	octave 4
	C_ 4
	octave 3
	A# 2
	endchannel
Touhou3Select_Ch2_loop_sub_1:
	F_ 3
	E_ 3
	G_ 4
	F_ 2
	F_ 2
	E_ 2
	F_ 3
	E_ 3
	G_ 4
	F_ 2
	endchannel
Touhou3Select_Ch2_loop_sub_2:
	G_ 3
	F# 3
	A_ 4
	G_ 2
	G_ 2
	F# 2
	G_ 3
	F# 3
	A_ 4
	G_ 2
	endchannel
Touhou3Select_Ch2_loop_sub_3:
	G# 3
	G_ 3
	A# 4
	G# 2
	G# 2
	G_ 2
	G# 3
	G_ 3
	A# 4
	G# 2
	endchannel
Touhou3Select_Ch3_sub_0:
	C_ 1
	octave 2
	F_ 1
	F_ 1
	octave 3
	C_ 1
	octave 2
	F_ 1
	F_ 1
	F_ 1
	F_ 1
	octave 3
	endchannel
Touhou3Select_Ch3_sub_1:
	D# 1
	A# 1
	D# 1
	D# 1
	A# 1
	D# 1
	D# 1
	D# 1
	D# 1
	A# 1
	D# 1
	D# 1
	A# 1
	D# 1
	D# 1
	endchannel
Touhou3Select_Ch3_sub_2:
	C# 1
	G# 1
	C# 1
	C# 1
	G# 1
	C# 1
	C# 1
	C# 1
	C# 1
	G# 1
	C# 1
	C# 1
	G# 1
	C# 1
	C# 1
	endchannel
Touhou3Select_Ch3_sub_3:
	C_ 1
	G_ 1
	C_ 1
	C_ 1
	G_ 1
	C_ 1
	C_ 1
	C_ 1
	C_ 1
	G_ 1
	C_ 1
	C_ 1
	G_ 1
	C_ 1
	C_ 1
	endchannel
Touhou3Select_Ch3::
	vibrato 0, 0, 0
	notetype 12, 1, 4
	rest 1
	octave 2
	F_ 1
	F_ 1
	octave 3
	callchannel Touhou3Select_Ch3_sub_0
	callchannel Touhou3Select_Ch3_sub_0
	callchannel Touhou3Select_Ch3_sub_0
	C_ 1
	F_ 1
	F_ 1
	C_ 1
	octave 2
	A# 1
	G# 1
	C# 1
	callchannel Touhou3Select_Ch3_sub_2
	C# 1
	callchannel Touhou3Select_Ch3_sub_2
	D# 1
	callchannel Touhou3Select_Ch3_sub_1
	D# 1
	callchannel Touhou3Select_Ch3_sub_1
	C_ 1
	callchannel Touhou3Select_Ch3_sub_3
	C_ 1
	callchannel Touhou3Select_Ch3_sub_3
Touhou3Select_Ch3_loop:
	F_ 1
	callchannel Touhou3Select_Ch3_loop_sub_2
	F_ 1
	callchannel Touhou3Select_Ch3_loop_sub_2
	F_ 1
	callchannel Touhou3Select_Ch3_loop_sub_2
	F_ 1
	F_ 1
	octave 3
	C_ 1
	F_ 1
	F_ 1
	C_ 1
	octave 2
	A# 1
	G# 1
	C# 1
	callchannel Touhou3Select_Ch3_loop_sub_8
	C# 1
	callchannel Touhou3Select_Ch3_loop_sub_8
	D# 1
	callchannel Touhou3Select_Ch3_loop_sub_3
	D# 1
	callchannel Touhou3Select_Ch3_loop_sub_3
	C_ 1
	callchannel Touhou3Select_Ch3_loop_sub_0
	C_ 1
	callchannel Touhou3Select_Ch3_loop_sub_0
	D_ 1
	callchannel Touhou3Select_Ch3_loop_sub_1
	D_ 1
	D_ 1
	A_ 1
	D_ 1
	D_ 1
	A_ 1
	D_ 1
	D_ 1
	D_ 1
	D_ 1
	A_ 1
	octave 3
	D_ 1
	D_ 1
	octave 2
	A_ 1
	G_ 1
	F_ 1
	octave 1
	A# 1
	callchannel Touhou3Select_Ch3_loop_sub_6
	A# 1
	callchannel Touhou3Select_Ch3_loop_sub_6
	A# 1
	callchannel Touhou3Select_Ch3_loop_sub_6
	A# 1
	callchannel Touhou3Select_Ch3_loop_sub_6
	octave 2
	C_ 1
	callchannel Touhou3Select_Ch3_loop_sub_0
	C_ 1
	callchannel Touhou3Select_Ch3_loop_sub_0
	octave 1
	A_ 1
	callchannel Touhou3Select_Ch3_loop_sub_5
	A_ 1
	callchannel Touhou3Select_Ch3_loop_sub_5
	A_ 1
	callchannel Touhou3Select_Ch3_loop_sub_5
	A_ 1
	callchannel Touhou3Select_Ch3_loop_sub_5
	octave 2
	E_ 1
	callchannel Touhou3Select_Ch3_loop_sub_9
	callchannel Touhou3Select_Ch3_loop_sub_9
	callchannel Touhou3Select_Ch3_loop_sub_9
	E_ 1
	B_ 1
	octave 3
	E_ 1
	E_ 1
	octave 2
	B_ 1
	A_ 1
	G_ 1
	C_ 1
	callchannel Touhou3Select_Ch3_loop_sub_0
	C_ 1
	callchannel Touhou3Select_Ch3_loop_sub_0
	D_ 1
	callchannel Touhou3Select_Ch3_loop_sub_1
	D_ 1
	callchannel Touhou3Select_Ch3_loop_sub_1
	octave 1
	B_ 1
	callchannel Touhou3Select_Ch3_loop_sub_4
	B_ 1
	callchannel Touhou3Select_Ch3_loop_sub_4
	B_ 1
	callchannel Touhou3Select_Ch3_loop_sub_4
	B_ 1
	callchannel Touhou3Select_Ch3_loop_sub_4
	octave 2
	G_ 1
	callchannel Touhou3Select_Ch3_loop_sub_7
	callchannel Touhou3Select_Ch3_loop_sub_7
	callchannel Touhou3Select_Ch3_loop_sub_7
	G_ 1
	octave 3
	D_ 1
	G_ 1
	G_ 1
	D_ 1
	C_ 1
	octave 2
	A# 1
	D# 1
	callchannel Touhou3Select_Ch3_loop_sub_3
	D# 1
	callchannel Touhou3Select_Ch3_loop_sub_3
	F_ 1
	callchannel Touhou3Select_Ch3_loop_sub_2
	F_ 1
	callchannel Touhou3Select_Ch3_loop_sub_2
	F_ 1
	callchannel Touhou3Select_Ch3_loop_sub_2
	F_ 1
	callchannel Touhou3Select_Ch3_loop_sub_2
	D_ 1
	callchannel Touhou3Select_Ch3_loop_sub_1
	D_ 1
	callchannel Touhou3Select_Ch3_loop_sub_1
	rest 16
	loopchannel 0, Touhou3Select_Ch3_loop
Touhou3Select_Ch3_loop_sub_0:
	C_ 1
	G_ 1
	C_ 1
	C_ 1
	G_ 1
	C_ 1
	C_ 1
	C_ 1
	C_ 1
	G_ 1
	C_ 1
	C_ 1
	G_ 1
	C_ 1
	C_ 1
	endchannel
Touhou3Select_Ch3_loop_sub_1:
	D_ 1
	A_ 1
	D_ 1
	D_ 1
	A_ 1
	D_ 1
	D_ 1
	D_ 1
	D_ 1
	A_ 1
	D_ 1
	D_ 1
	A_ 1
	D_ 1
	D_ 1
	endchannel
Touhou3Select_Ch3_loop_sub_2:
	F_ 1
	octave 3
	C_ 1
	octave 2
	F_ 1
	F_ 1
	octave 3
	C_ 1
	octave 2
	F_ 1
	F_ 1
	endchannel
Touhou3Select_Ch3_loop_sub_3:
	D# 1
	A# 1
	D# 1
	D# 1
	A# 1
	D# 1
	D# 1
	D# 1
	D# 1
	A# 1
	D# 1
	D# 1
	A# 1
	D# 1
	D# 1
	endchannel
Touhou3Select_Ch3_loop_sub_4:
	B_ 1
	octave 2
	F# 1
	octave 1
	B_ 1
	B_ 1
	octave 2
	F# 1
	octave 1
	B_ 1
	B_ 1
	endchannel
Touhou3Select_Ch3_loop_sub_5:
	A_ 1
	octave 2
	E_ 1
	octave 1
	A_ 1
	A_ 1
	octave 2
	E_ 1
	octave 1
	A_ 1
	A_ 1
	endchannel
Touhou3Select_Ch3_loop_sub_6:
	A# 1
	octave 2
	F_ 1
	octave 1
	A# 1
	A# 1
	octave 2
	F_ 1
	octave 1
	A# 1
	A# 1
	endchannel
Touhou3Select_Ch3_loop_sub_7:
	G_ 1
	octave 3
	D_ 1
	octave 2
	G_ 1
	G_ 1
	octave 3
	D_ 1
	octave 2
	G_ 1
	G_ 1
	G_ 1
	endchannel
Touhou3Select_Ch3_loop_sub_8:
	C# 1
	G# 1
	C# 1
	C# 1
	G# 1
	C# 1
	C# 1
	C# 1
	C# 1
	G# 1
	C# 1
	C# 1
	G# 1
	C# 1
	C# 1
	endchannel
Touhou3Select_Ch3_loop_sub_9:
	E_ 1
	B_ 1
	E_ 1
	E_ 1
	B_ 1
	E_ 1
	E_ 1
	E_ 1
	endchannel
Touhou3Select_Ch4::
	dspeed 12
	rest 1
	snare3 2
	rest 16
	rest 10
	snare2 1
	snare2 1
	snare2 1
	snare2 1
	snare3 1
	rest 16
	rest 11
	snare2 1
	snare2 1
	snare2 1
	snare2 1
	snare3 1
	rest 15
	snare2 1
	snare2 1
	snare2 1
	snare2 1
	snare2 1
	snare2 1
	snare2 1
	snare2 1
	snare2 1
	snare2 1
	snare2 1
	snare2 1
	snare2 1
	snare2 1
	snare2 1
	snare2 1
	snare3 1
	snare2 1
	snare2 1
	snare2 1
	snare2 1
	snare2 1
	snare2 1
	snare2 1
	snare2 1
	snare2 1
	snare2 1
	snare2 1
	snare2 1
	snare2 1
	snare2 1
	snare2 1
	snare2 1
	snare2 1
	snare2 1
	snare2 1
	snare2 1
	snare2 1
	snare2 1
	snare2 1
	snare2 1
	snare2 1
	snare2 1
	snare2 1
	snare2 1
	snare2 1
	snare2 1
	snare2 1
Touhou3Select_Ch4_loop:
	callchannel Touhou3Select_Ch4_loop_sub0
	callchannel Touhou3Select_Ch4_loop_sub0
	callchannel Touhou3Select_Ch4_loop_sub0
	callchannel Touhou3Select_Ch4_loop_sub0
	snare1 1
	snare2 1
	snare2 1
	snare2 1
	snare1 1
	snare2 1
	snare2 1
	snare2 1
	snare1 1
	snare2 1
	snare2 1
	snare2 1
	snare1 1
	snare2 1
	snare2 1
	snare2 1
	loopchannel 0, Touhou3Select_Ch4_loop
	
Touhou3Select_Ch4_loop_sub0:
	snare1 1
	snare2 1
	snare2 1
	snare2 1
	snare1 1
	snare2 1
	snare2 1
	snare2 1
	snare1 1
	snare2 1
	snare2 1
	snare2 1
	snare1 1
	snare2 1
	snare2 1
	snare2 1
	snare1 1
	snare2 1
	snare2 1
	snare2 1
	snare1 1
	snare2 1
	snare2 1
	snare2 1
	snare1 1
	snare2 1
	snare2 1
	snare2 1
	snare1 1
	snare2 1
	snare2 1
	snare2 1
	snare1 1
	snare2 1
	snare2 1
	snare2 1
	snare1 1
	snare2 1
	snare2 1
	snare2 1
	snare1 1
	snare2 1
	snare2 1
	snare2 1
	snare1 1
	snare2 1
	snare2 1
	snare2 1
	snare1 1
	snare2 1
	snare2 1
	snare2 1
	snare1 1
	snare2 1
	snare2 1
	snare2 1
	snare1 1
	snare2 1
	snare2 1
	snare2 1
	snare1 1
	snare2 1
	snare2 1
	snare2 1
	snare1 1
	snare2 1
	snare2 1
	snare2 1
	snare1 1
	snare2 1
	snare2 1
	snare2 1
	snare1 1
	snare2 1
	snare2 1
	snare2 1
	snare1 1
	snare2 1
	snare2 1
	snare2 1
	snare1 1
	snare2 1
	snare2 1
	snare2 1
	snare1 1
	snare2 1
	snare2 1
	snare2 1
	snare1 1
	snare2 1
	snare2 1
	snare2 1
	snare1 1
	snare2 1
	snare2 1
	snare2 1
	snare1 1
	snare2 1
	snare2 1
	snare2 1
	snare1 1
	snare2 1
	snare2 1
	snare2 1
	snare1 1
	snare2 1
	snare2 1
	snare2 1
	snare1 1
	snare2 1
	snare2 1
	snare2 1
	snare1 1
	snare2 1
	snare2 1
	snare2 1
	snare1 1
	snare2 1
	snare2 1
	snare2 1
	snare1 1
	snare2 1
	snare2 1
	snare2 1
	snare1 1
	snare1 1
	snare1 1
	snare1 1
	endchannel
