Music_ToyWarrior_Ch1_sub_0:
	octave 2
	A_ 2
	A_ 6
	A_ 2
	A_ 6
	A_ 2
	A_ 6
	A_ 2
	A_ 6
	A# 2
	A# 6
	A# 2
	A# 6
	A# 2
	endchannel
Music_ToyWarrior_Ch1::
	tempo 148
	vibrato 10, 1, 2
	duty 3
	notetype 12, 11, 2
	toggleperfectpitch
	callchannel Music_ToyWarrior_Ch1_sub_0
	A# 6
	octave 3
	D_ 2
	D_ 6
	callchannel Music_ToyWarrior_Ch1_sub_0
	A# 2
	G_ 2
	G_ 2
	octave 3
	D_ 2
	D_ 2
	G_ 2
	G_ 2
Music_ToyWarrior_Ch1_loop:
	notetype 12, 11, 2
	callchannel Music_ToyWarrior_Ch1_loop_sub_3
	A# 6
	octave 3
	D_ 2
	D_ 6
	callchannel Music_ToyWarrior_Ch1_loop_sub_3
	A# 2
	G_ 2
	G_ 2
	octave 3
	D_ 2
	D_ 2
	G_ 2
	G_ 2
	notetype 12, 11, 4
	D_ 3
	D_ 3
	callchannel Music_ToyWarrior_Ch1_loop_sub_1
	D_ 3
	D_ 3
	callchannel Music_ToyWarrior_Ch1_loop_sub_1
	notetype 12, 11, 2
	F_ 1
	callchannel Music_ToyWarrior_Ch1_loop_sub_0
	F_ 1
	callchannel Music_ToyWarrior_Ch1_loop_sub_0
	F_ 1
	callchannel Music_ToyWarrior_Ch1_loop_sub_0
	F_ 1
	callchannel Music_ToyWarrior_Ch1_loop_sub_0
	octave 4
	notetype 12, 11, 3
	F_ 2
	F_ 2
	F_ 2
	F_ 2
	F_ 2
	F_ 2
	F_ 2
	F_ 2
	F_ 2
	F_ 2
	F_ 2
	F_ 2
	E_ 2
	E_ 2
	E_ 2
	callchannel Music_ToyWarrior_Ch1_loop_sub_2
	G_ 2
	G_ 2
	F_ 2
	callchannel Music_ToyWarrior_Ch1_loop_sub_2
	E_ 2
	E_ 2
	E_ 2
	callchannel Music_ToyWarrior_Ch1_loop_sub_2
	G_ 2
	G_ 2
	F_ 2
	E_ 2
	octave 3
	notetype 12, 11, 4
	D_ 3
	D_ 3
	callchannel Music_ToyWarrior_Ch1_loop_sub_1
	D_ 3
	D_ 3
	callchannel Music_ToyWarrior_Ch1_loop_sub_1
	D_ 3
	D_ 3
	callchannel Music_ToyWarrior_Ch1_loop_sub_1
	D_ 3
	D_ 3
	callchannel Music_ToyWarrior_Ch1_loop_sub_1
	loopchannel 0, Music_ToyWarrior_Ch1_loop
Music_ToyWarrior_Ch1_loop_sub_0:
	D_ 1
	F_ 1
	A_ 1
	octave 4
	C_ 1
	octave 3
	D_ 1
	A# 1
	D_ 1
	F_ 1
	D_ 1
	F_ 1
	A_ 1
	octave 4
	C_ 1
	octave 3
	D_ 1
	A# 1
	D_ 1
	E_ 1
	D_ 1
	E_ 1
	A_ 1
	octave 4
	C_ 1
	octave 3
	D_ 1
	A# 1
	D_ 1
	F_ 1
	D_ 1
	F_ 1
	A_ 1
	octave 4
	C_ 1
	octave 3
	D_ 1
	A# 1
	D_ 1
	endchannel
Music_ToyWarrior_Ch1_loop_sub_1:
	D_ 3
	D_ 5
	C_ 2
	octave 2
	A_ 3
	A_ 3
	A_ 3
	A_ 5
	A_ 2
	A# 3
	A# 3
	A# 3
	A# 5
	A# 2
	octave 3
	C_ 3
	C_ 3
	C_ 3
	D_ 3
	F_ 2
	E_ 2
	endchannel
Music_ToyWarrior_Ch1_loop_sub_2:
	E_ 2
	F_ 2
	F_ 2
	F_ 2
	F_ 2
	F_ 2
	F_ 2
	F_ 2
	F_ 2
	F_ 2
	F_ 2
	F_ 2
	F_ 2
	endchannel
Music_ToyWarrior_Ch1_loop_sub_3:
	octave 2
	A_ 2
	A_ 6
	A_ 2
	A_ 6
	A_ 2
	A_ 6
	A_ 2
	A_ 6
	A# 2
	A# 6
	A# 2
	A# 6
	A# 2
	endchannel
Music_ToyWarrior_Ch2::
	vibrato 9, 3, 4
	duty 3
	notetype 12, 13, 2
	octave 3
	D_ 2
	D_ 6
	D_ 2
	D_ 6
	D_ 2
	D_ 6
	D_ 2
	D_ 6
	D_ 2
	D_ 6
	D_ 2
	D_ 6
	D_ 2
	D_ 6
	G_ 2
	G_ 6
	D_ 2
	D_ 2
	notetype 12, 13, 5
	D_ 4
	notetype 12, 13, 2
	D_ 2
	D_ 2
	notetype 12, 13, 5
	D_ 4
	notetype 12, 13, 2
	D_ 2
	D_ 2
	notetype 12, 13, 5
	D_ 4
	notetype 12, 13, 2
	D_ 2
	D_ 2
	notetype 12, 13, 5
	E_ 4
	notetype 12, 13, 2
	D_ 2
	D_ 2
	notetype 12, 13, 5
	F_ 4
	notetype 12, 13, 2
	D_ 2
	D_ 2
	notetype 12, 13, 5
	F_ 4
	notetype 12, 13, 2
	D_ 2
	D_ 2
	notetype 12, 13, 5
	F_ 4
	notetype 12, 13, 2
	G_ 2
	G_ 2
	notetype 12, 13, 5
	A# 4
Music_ToyWarrior_Ch2_loop:
	callchannel Music_ToyWarrior_Ch2_loop_sub_0
	callchannel Music_ToyWarrior_Ch2_loop_sub_0
	loopchannel 0, Music_ToyWarrior_Ch2_loop
Music_ToyWarrior_Ch2_loop_sub_0:
	octave 3
	F_ 4
	octave 4
	C_ 1
	octave 3
	F_ 1
	A# 2
	F_ 4
	octave 4
	C_ 1
	octave 3
	F_ 1
	A# 2
	D_ 4
	octave 4
	C_ 1
	octave 3
	D_ 1
	A# 2
	E_ 4
	octave 4
	C_ 1
	octave 3
	E_ 1
	A# 2
	F_ 4
	octave 4
	C_ 1
	octave 3
	F_ 1
	A# 2
	F_ 4
	octave 4
	C_ 1
	octave 3
	F_ 1
	A# 2
	D_ 4
	octave 4
	C_ 1
	octave 3
	D_ 1
	A# 2
	G_ 4
	C_ 1
	G_ 1
	E_ 2
	F_ 4
	octave 4
	C_ 1
	octave 3
	F_ 1
	A# 2
	F_ 4
	octave 4
	C_ 1
	octave 3
	F_ 1
	A# 2
	D_ 4
	octave 4
	C_ 1
	octave 3
	D_ 1
	A# 2
	E_ 4
	octave 4
	C_ 1
	octave 3
	E_ 1
	A# 2
	F_ 4
	octave 4
	C_ 1
	octave 3
	F_ 1
	A# 2
	F_ 4
	octave 4
	C_ 1
	octave 3
	F_ 1
	A# 2
	D_ 4
	octave 4
	C_ 1
	octave 3
	D_ 1
	A# 2
	G_ 4
	C_ 1
	G_ 1
	E_ 2
	A_ 3
	F_ 3
	F_ 3
	F_ 5
	F_ 2
	E_ 3
	C_ 3
	C_ 3
	C_ 5
	C_ 2
	A_ 3
	F_ 3
	F_ 3
	F_ 5
	F_ 2
	E_ 3
	G_ 3
	G_ 3
	G_ 5
	G_ 2
	A_ 3
	F_ 3
	F_ 3
	F_ 5
	F_ 2
	E_ 3
	C_ 3
	C_ 3
	C_ 5
	C_ 2
	A_ 3
	F_ 3
	F_ 3
	F_ 5
	F_ 2
	E_ 3
	G_ 3
	G_ 3
	G_ 5
	G_ 2
	octave 4
	A_ 3
	F_ 3
	F_ 3
	F_ 5
	F_ 2
	E_ 3
	C_ 3
	C_ 3
	C_ 5
	C_ 2
	A_ 3
	F_ 3
	F_ 3
	F_ 5
	F_ 2
	E_ 3
	G_ 3
	G_ 3
	G_ 5
	G_ 2
	A_ 3
	F_ 3
	F_ 3
	F_ 5
	F_ 2
	E_ 3
	C_ 3
	C_ 3
	C_ 5
	C_ 2
	A_ 3
	F_ 3
	F_ 3
	F_ 5
	F_ 2
	E_ 3
	G_ 3
	G_ 3
	G_ 5
	G_ 2
	endchannel
Music_ToyWarrior_Ch3_sub_0:
	D_ 2
	rest 2
	D_ 2
	D_ 2
	D_ 2
	rest 2
	D_ 2
	D_ 2
	D_ 2
	rest 2
	D_ 2
	D_ 2
	D_ 2
	rest 2
	D_ 2
	octave 1
	A# 2
	A# 2
	rest 2
	A# 2
	A# 2
	A# 2
	rest 2
	A# 2
	A# 2
	A# 2
	rest 2
	G_ 2
	octave 2
	G_ 2
	G_ 2
	rest 2
	G_ 2
	endchannel
Music_ToyWarrior_Ch3::
	vibrato 0, 0, 0
	notetype 12, 1, 4
	octave 2
	D_ 2
	callchannel Music_ToyWarrior_Ch3_sub_0
	D_ 2
	callchannel Music_ToyWarrior_Ch3_sub_0
Music_ToyWarrior_Ch3_loop:
	D_ 2
	callchannel Music_ToyWarrior_Ch3_loop_sub_2
	D_ 2
	callchannel Music_ToyWarrior_Ch3_loop_sub_2
	callchannel Music_ToyWarrior_Ch3_loop_sub_1
	callchannel Music_ToyWarrior_Ch3_loop_sub_1
	D_ 2
	callchannel Music_ToyWarrior_Ch3_loop_sub_0
	D_ 2
	callchannel Music_ToyWarrior_Ch3_loop_sub_0
	D_ 2
	callchannel Music_ToyWarrior_Ch3_loop_sub_0
	D_ 2
	callchannel Music_ToyWarrior_Ch3_loop_sub_0
	D_ 2
	callchannel Music_ToyWarrior_Ch3_loop_sub_0
	D_ 2
	callchannel Music_ToyWarrior_Ch3_loop_sub_0
	D_ 2
	callchannel Music_ToyWarrior_Ch3_loop_sub_0
	D_ 2
	callchannel Music_ToyWarrior_Ch3_loop_sub_0
	loopchannel 0, Music_ToyWarrior_Ch3_loop
Music_ToyWarrior_Ch3_loop_sub_0:
	A_ 2
	D_ 2
	A_ 2
	D_ 2
	A_ 2
	D_ 2
	A_ 2
	D_ 2
	A_ 2
	D_ 2
	A_ 2
	E_ 2
	A_ 2
	E_ 2
	A_ 2
	F_ 2
	A_ 2
	F_ 2
	A_ 2
	F_ 2
	A_ 2
	F_ 2
	A_ 2
	G_ 2
	A# 2
	G_ 2
	A# 2
	G_ 2
	A# 2
	octave 3
	C_ 2
	octave 2
	A# 2
	endchannel
Music_ToyWarrior_Ch3_loop_sub_1:
	D_ 2
	rest 1
	D_ 2
	rest 1
	D_ 2
	rest 1
	D_ 2
	rest 1
	D_ 2
	F_ 2
	D_ 2
	rest 1
	D_ 2
	rest 1
	D_ 2
	rest 1
	D_ 2
	rest 1
	D_ 2
	E_ 2
	F_ 2
	rest 1
	F_ 2
	rest 1
	F_ 2
	rest 1
	F_ 2
	rest 1
	F_ 2
	F# 2
	G_ 2
	rest 1
	G_ 2
	rest 1
	G_ 2
	rest 1
	G_ 2
	rest 1
	G_ 2
	A_ 2
	endchannel
Music_ToyWarrior_Ch3_loop_sub_2:
	D_ 2
	rest 2
	D_ 2
	D_ 2
	D_ 2
	rest 2
	D_ 2
	D_ 2
	D_ 2
	rest 2
	D_ 2
	D_ 2
	D_ 2
	rest 2
	D_ 2
	octave 1
	A# 2
	A# 2
	rest 2
	A# 2
	A# 2
	A# 2
	rest 2
	A# 2
	A# 2
	A# 2
	rest 2
	G_ 2
	octave 2
	G_ 2
	G_ 2
	rest 2
	G_ 2
	endchannel
Music_ToyWarrior_Ch4::
	dspeed 12
	rest 16
	rest 16
	rest 16
	rest 12
	snare2 1
	snare4 1
	snare3 1
	snare3 1
	callchannel Music_ToyWarrior_Ch4_loop_sub_1
Music_ToyWarrior_Ch4_loop:
	dspeed 12
	callchannel Music_ToyWarrior_Ch4_loop_sub_1
	callchannel Music_ToyWarrior_Ch4_loop_sub_0
	snare2 2
	snare4 2
	snare2 2
	snare2 2
	snare2 8
	dspeed 12
	rest 16
	rest 16
	rest 16
	rest 16
	rest 16
	rest 16
	rest 16
	rest 8
	snare2 1
	snare4 1
	snare3 1
	snare3 1
	callchannel Music_ToyWarrior_Ch4_loop_sub_1
	callchannel Music_ToyWarrior_Ch4_loop_sub_0
	snare2 4
	snare2 4
	callchannel Music_ToyWarrior_Ch4_loop_sub_0
	snare2 2
	snare4 2
	snare2 2
	snare2 2
	callchannel Music_ToyWarrior_Ch4_loop_sub_0
	snare2 2
	snare4 2
	snare2 2
	snare2 2
	callchannel Music_ToyWarrior_Ch4_loop_sub_0
	snare2 2
	snare4 2
	snare2 2
	snare2 2
	callchannel Music_ToyWarrior_Ch4_loop_sub_0
	snare2 2
	snare4 2
	snare2 2
	snare2 2
	callchannel Music_ToyWarrior_Ch4_loop_sub_0
	snare2 2
	snare4 2
	snare2 2
	snare2 2
	callchannel Music_ToyWarrior_Ch4_loop_sub_0
	snare2 2
	snare4 2
	snare2 2
	snare2 2
	loopchannel 0, Music_ToyWarrior_Ch4_loop
Music_ToyWarrior_Ch4_loop_sub_0:
	snare2 12
	snare2 2
	snare2 2
	snare2 4
	snare2 8
	snare2 4
	snare2 4
	snare2 8
	snare2 2
	snare2 2
	snare2 4
	snare2 4
	snare2 1
	snare4 1
	snare4 1
	snare4 1
	snare3 1
	snare3 1
	snare3 1
	snare3 1
	snare2 12
	snare2 2
	snare2 2
	snare2 4
	snare2 8
	snare2 4
	snare2 4
	snare2 8
	snare2 2
	snare2 2
	snare2 4
	snare2 4
	endchannel
Music_ToyWarrior_Ch4_loop_sub_1:
	snare2 6
	snare2 1
	snare2 1
	snare2 2
	snare2 4
	snare2 2
	snare2 2
	snare2 4
	snare2 1
	snare2 1
	snare2 2
	snare2 2
	dspeed 6
	snare2 1
	snare4 1
	snare4 1
	snare4 1
	snare3 1
	snare3 1
	snare3 1
	snare3 1
	snare2 12
	snare2 2
	snare2 2
	snare2 4
	snare2 8
	snare2 4
	snare2 4
	snare2 8
	snare2 2
	snare2 2
	snare2 4
	snare2 4
	snare2 4
	snare2 4
	endchannel
