; another one of those shitty files made with pokemid
WCS_Ch1::
	tempo 105
	volume 7, 7
	vibrato 6, 3, 4
	toggleperfectpitch
	duty 3
	notetype 12, 12, 7
	octave 2
	callchannel WCS_Ch1_sub_2
	callchannel WCS_Ch1_sub_2
	G_ 12
	notetype 8, 12, 1
	G_ 2
	G_ 2
	G_ 2
	notetype 12, 12, 7
	G_ 12
	notetype 8, 12, 1
	G_ 2
	G_ 2
	G_ 2
	callchannel WCS_Ch1_sub_0
	callchannel WCS_Ch1_sub_0
	callchannel WCS_Ch1_sub_1
	callchannel WCS_Ch1_sub_1
	notetype 15, 6, 15
	octave 4
	F# 16
	notetype 12, 12, 7
	F# 12
	notetype 15, 6, 15
	F_ 16
	notetype 12, 12, 7
	F_ 12
	notetype 15, 6, 15
	D# 16
	notetype 12, 12, 7
	D# 12
	C# 16
	octave 3
	A# 8
	octave 4
	C# 8
	C_ 16
	G_ 16
WCS_Ch1_loop::
	tempo 111
	notetype 12, 12, 5
	octave 3
	callchannel WCS_Ch1_loop_sub_0
	notetype 12, 12, 1
	octave 2
	G_ 1
	F# 1
	D_ 1
	G_ 1
	A_ 1
	G_ 1
	F# 1
	A_ 1
	A# 1
	A_ 1
	G_ 1
	A# 1
	octave 3
	C_ 1
	octave 2
	G_ 1
	A# 1
	octave 3
	D# 1
	notetype 12, 12, 5
	callchannel WCS_Ch1_loop_sub_0
	F# 4
	notetype 12, 12, 7
	G_ 12
	rest 8
	F_ 8
	G# 8
	F_ 8
	notetype 12, 12, 1
	octave 4
	C_ 1
	C_ 1
	rest 6
	C_ 1
	C_ 1
	rest 6
	C_ 1
	C_ 1
	rest 6
	C_ 1
	C_ 1
	rest 6
	octave 5
	C_ 1
	C_ 1
	rest 2
	notetype 12, 12, 3
	octave 2
	A# 4
	octave 5
	notetype 12, 12, 1
	C_ 1
	C_ 1
	rest 2
	notetype 12, 12, 3
	octave 3
	C# 4
	notetype 12, 12, 1
	octave 5
	C_ 1
	C_ 1
	rest 2
	notetype 12, 12, 3
	octave 2
	A# 4
	octave 5
	notetype 12, 12, 1
	C_ 1
	notetype 12, 12, 5
	octave 3
	C_ 7
	notetype 12, 12, 1
	C_ 1
	octave 2
	B_ 1
	octave 3
	C_ 1
	C# 1
	D_ 1
	C# 1
	D_ 1
	D# 1
	E_ 1
	D# 1
	E_ 1
	F# 1
	G_ 1
	F# 1
	F_ 1
	D# 1
	G_ 1
	octave 2
	B_ 1
	octave 3
	C_ 1
	D_ 1
	D# 1
	D_ 1
	D# 1
	F_ 1
	G_ 1
	F# 1
	G_ 1
	G# 1
	octave 4
	C_ 1
	octave 3
	G_ 1
	F_ 1
	D# 1
	C# 1
	C_ 1
	C# 1
	D_ 1
	D# 1
	D_ 1
	D# 1
	E_ 1
	F_ 1
	E_ 1
	F_ 1
	G_ 1
	G# 1
	G_ 1
	F# 1
	E_ 1
	G# 1
	C_ 1
	C# 1
	D# 1
	E_ 1
	D# 1
	E_ 1
	F# 1
	G# 1
	G_ 1
	G# 1
	A_ 1
	octave 4
	C# 1
	octave 3
	G# 1
	F# 1
	E_ 1
	D_ 1
	C# 1
	D_ 1
	D# 1
	E_ 1
	D# 1
	E_ 1
	F_ 1
	F# 1
	F_ 1
	F# 1
	G# 1
	A_ 1
	G# 1
	G_ 1
	F_ 1
	A_ 1
	C# 1
	D_ 1
	E_ 1
	F_ 1
	E_ 1
	F_ 1
	G_ 1
	A_ 1
	G# 1
	A_ 1
	A# 1
	octave 4
	D_ 1
	octave 3
	A_ 1
	G_ 1
	F_ 1
	notetype 12, 12, 5
	A_ 14
	G_ 1
	G# 1
	A_ 16
	notetype 12, 6, 15
	D_ 14
	notetype 12, 12, 1
	C_ 1
	D_ 1
	D# 1
	rest 1
	octave 2
	A# 1
	rest 1
	octave 3
	D# 1
	rest 1
	G_ 1
	rest 1
	D# 1
	rest 1
	G_ 1
	rest 1
	A# 1
	rest 1
	D# 1
	rest 1
	notetype 12, 12, 5
	A# 6
	A_ 1
	G# 1
	G_ 8
	A_ 13
	rest 1
	notetype 12, 12, 1
	callchannel WCS_Ch1_loop_sub_1
	C_ 1
	rest 1
	F_ 1
	rest 1
	octave 4
	C_ 1
	rest 1
	notetype 12, 12, 5
	octave 3
	A# 8
	octave 4
	C# 8
	D# 8
	C# 8
	notetype 12, 12, 5
	C_ 14
	octave 3
	notetype 12, 12, 1
	callchannel WCS_Ch1_loop_sub_1
	F_ 1
	rest 1
	C_ 1
	rest 1
	A_ 1
	rest 1
	notetype 12, 12, 5
	A# 2
	A_ 2
	G_ 2
	A_ 2
	A# 2
	G_ 2
	octave 4
	D_ 2
	octave 3
	A# 2
	notetype 12, 12, 1
	A# 1
	rest 1
	A_ 1
	rest 1
	G_ 1
	rest 1
	A_ 1
	rest 1
	A# 1
	rest 1
	G_ 1
	rest 1
	octave 4
	D_ 1
	rest 1
	octave 3
	A# 1
	rest 1
	notetype 12, 12, 5
	callchannel WCS_Ch1_loop_sub_0
	notetype 12, 12, 7
	F_ 8
	D# 8
	notetype 12, 12, 5
	callchannel WCS_Ch1_loop_sub_0
	notetype 12, 12, 7
	F_ 8
	G# 8
	G_ 16
	octave 4
	C_ 16
	loopchannel 0, WCS_Ch1_loop
WCS_Ch2::
	duty 3
	vibrato 8, 2, 5
	notetype 12, 14, 7
	octave 2
	callchannel WCS_Ch2_sub_2
	callchannel WCS_Ch2_sub_2
	notetype 12, 14, 1
	octave 3
	A# 1
	octave 4
	C_ 1
	C# 1
	C_ 1
	D# 1
	C_ 1
	E_ 1
	C# 1
	octave 3
	A# 1
	octave 4
	C# 1
	notetype 12, 14, 7
	C_ 7
	notetype 12, 14, 2
	C_ 2
	C_ 2
	C_ 2
	C_ 2
	C_ 2
	C_ 2
	C_ 3
	octave 3
	callchannel WCS_Ch2_sub_1
	callchannel WCS_Ch2_sub_1
	callchannel WCS_Ch2_sub_0
	callchannel WCS_Ch2_sub_0
	notetype 12, 14, 2
	C# 2
	F# 2
	A# 2
	octave 4
	C_ 2
	C# 2
	C_ 2
	octave 3
	A# 2
	G# 2
	F# 2
	C# 2
	F# 2
	A# 2
	octave 4
	C# 2
	C_ 2
	octave 3
	A# 2
	G# 2
	C_ 2
	F_ 2
	A_ 2
	A# 2
	octave 4
	C_ 2
	octave 3
	A# 2
	A_ 2
	G_ 2
	F_ 2
	C_ 2
	F_ 2
	A_ 2
	octave 4
	C_ 2
	octave 3
	A# 2
	A_ 2
	G_ 2
	octave 2
	A# 2
	octave 3
	D# 2
	G_ 2
	G# 2
	A# 2
	G# 2
	G_ 2
	F_ 2
	D# 2
	octave 2
	A# 2
	octave 3
	D# 2
	G_ 2
	A# 2
	G# 2
	G_ 2
	F_ 2
	octave 2
	G# 2
	octave 3
	C# 2
	F_ 2
	F# 2
	G# 2
	F# 2
	F_ 2
	D# 2
	C# 2
	octave 2
	A# 2
	octave 3
	C# 2
	F_ 2
	G# 2
	F# 2
	F_ 2
	D# 2
	octave 2
	G_ 2
	octave 3
	C_ 2
	E_ 2
	F_ 2
	G_ 2
	F_ 2
	E_ 2
	D_ 2
	C_ 2
	octave 2
	G_ 2
	octave 3
	C_ 2
	E_ 2
	G_ 2
	F_ 2
	E_ 2
	D_ 2
WCS_Ch2_loop::
	notetype 12, 14, 7
	callchannel WCS_Ch2_loop_sub_0
	notetype 12, 14, 1
	octave 2
	A# 1
	A_ 1
	G_ 1
	A# 1
	octave 3
	C_ 1
	octave 2
	A# 1
	A_ 1
	octave 3
	C_ 1
	D_ 1
	C_ 1
	octave 2
	A# 1
	octave 3
	D_ 1
	D# 1
	octave 2
	A# 1
	octave 3
	D_ 1
	G_ 1
	notetype 12, 14, 7
	callchannel WCS_Ch2_loop_sub_0
	B_ 4
	octave 4
	C_ 12
	octave 3
	C_ 8
	octave 4
	A# 8
	octave 5
	C# 8
	octave 4
	A# 8
	callchannel WCS_Ch2_loop_sub_1
	rest 2
	notetype 12, 14, 4
	octave 3
	C# 4
	callchannel WCS_Ch2_loop_sub_1
	notetype 12, 14, 4
	octave 2
	G_ 4
	A# 2
	notetype 12, 14, 1
	octave 4
	C_ 1
	C_ 1
	octave 3
	A# 1
	octave 4
	C_ 1
	C# 1
	C_ 1
	octave 3
	A# 1
	octave 4
	C# 1
	C_ 1
	C_ 1
	D_ 1
	C# 1
	C_ 1
	octave 3
	A# 1
	octave 4
	C_ 1
	C# 1
	C_ 1
	C_ 1
	C# 1
	C_ 1
	octave 3
	B_ 1
	A_ 1
	A# 1
	B_ 1
	octave 4
	C_ 1
	C_ 1
	notetype 12, 14, 4
	octave 2
	G_ 4
	A# 2
	notetype 12, 14, 7
	octave 4
	C_ 4
	C# 2
	D_ 12
	notetype 12, 14, 1
	octave 3
	G_ 2
	G_ 2
	rest 2
	notetype 12, 14, 1
	G_ 2
	G_ 2
	rest 2
	G_ 2
	notetype 12, 14, 7
	octave 4
	C# 4
	D_ 2
	D# 12
	notetype 12, 14, 1
	octave 3
	G# 2
	G# 2
	rest 2
	notetype 12, 14, 1
	G# 2
	G# 2
	rest 2
	G# 2
	notetype 12, 14, 7
	octave 4
	D_ 4
	D# 2
	E_ 12
	notetype 12, 14, 1
	octave 3
	A_ 2
	A_ 2
	rest 2
	notetype 12, 14, 1
	A_ 2
	A_ 2
	rest 2
	A_ 2
	notetype 12, 14, 7
	octave 4
	D_ 14
	C_ 1
	C# 1
	D_ 16
	octave 3
	notetype 12, 6, 15
	D_ 8
	notetype 12, 14, 7
	D_ 8
	A_ 4
	notetype 15, 14, 7
	A# 16
	notetype 12, 14, 7
	rest 8
	octave 4
	C_ 16
	octave 3
	F_ 16
	octave 4
	C# 8
	F# 8
	G# 8
	F# 8
	notetype 15, 14, 7
	F_ 16
	notetype 12, 14, 7
	rest 12
	notetype 12, 14, 2
	octave 3
	A# 2
	A_ 2
	G_ 2
	A_ 2
	A# 2
	G_ 2
	octave 4
	D_ 2
	octave 3
	A# 2
	notetype 12, 14, 1
	A# 1
	rest 1
	A_ 1
	rest 1
	G_ 1
	rest 1
	A_ 1
	rest 1
	A# 1
	rest 1
	G_ 1
	rest 1
	octave 4
	D_ 1
	rest 1
	octave 3
	A# 1
	rest 1
	notetype 12, 14, 7
	callchannel WCS_Ch2_loop_sub_0
	A# 8
	G# 6
	A# 1
	B_ 1
	callchannel WCS_Ch2_loop_sub_0
	A# 8
	octave 4
	C# 8
	C_ 16
	F# 4
	notetype 12, 14, 0
	G_ 3
	notetype 12, 14, 7
	G_ 9
	loopchannel 0, WCS_Ch2_loop
WCS_Ch3::
	notetype 9, 1, 1
	octave 3
	callchannel WCS_Ch3_sub_1
	notetype 9, 1, 1
	callchannel WCS_Ch3_sub_1
	notetype 11, 1, 1
	G_ 16
	notetype 8, 1, 1
	rest 2
	notetype 10, 1, 1
	G_ 13
	notetype 1, 1, 1
	rest 14
	G_ 7
	rest 9
	G_ 7
	rest 9
	G_ 7
	rest 9
	notetype 12, 1, 1
	callchannel WCS_Ch3_sub_2
	octave 3
	callchannel WCS_Ch3_sub_2
	callchannel WCS_Ch3_sub_0
	callchannel WCS_Ch3_sub_0
	notetype 15, 1, 1
	F# 16
	notetype 12, 1, 1
	F# 12
	notetype 15, 1, 1
	F_ 16
	notetype 12, 1, 1
	F_ 12
	D# 16
	octave 3
	A# 16
	octave 4
	C# 16
	octave 3
	A# 8
	octave 4
	C# 8
	C_ 16
	C_ 16
WCS_Ch3_loop::
	octave 3
	C_ 1
	C_ 1
	rest 2
	octave 4
	D_ 4
	octave 2
	B_ 1
	B_ 1
	rest 2
	octave 4
	C# 4
	octave 2
	A# 1
	A# 1
	rest 2
	octave 4
	C_ 4
	octave 2
	G_ 1
	G_ 1
	rest 2
	octave 4
	D_ 4
	C# 4
	octave 3
	G_ 2
	octave 4
	callchannel WCS_Ch3_loop_sub_6
	callchannel WCS_Ch3_loop_sub_6
	D_ 2
	octave 3
	G_ 2
	octave 4
	callchannel WCS_Ch3_loop_sub_1
	callchannel WCS_Ch3_loop_sub_1
	callchannel WCS_Ch3_loop_sub_6
	D_ 2
	C_ 1
	octave 3
	B_ 1
	A# 1
	octave 4
	D_ 1
	octave 3
	G_ 2
	octave 4
	callchannel WCS_Ch3_loop_sub_1
	C_ 2
	octave 3
	A# 2
	octave 4
	F_ 2
	octave 3
	A# 2
	octave 4
	C# 2
	octave 3
	A# 2
	octave 4
	F_ 2
	C# 2
	C_ 2
	octave 3
	A# 2
	F_ 2
	A# 2
	octave 4
	C# 2
	C_ 1
	callchannel WCS_Ch3_loop_sub_3
	C_ 1
	callchannel WCS_Ch3_loop_sub_3
	callchannel WCS_Ch3_loop_sub_5
	C_ 2
	G_ 2
	G# 2
	G_ 2
	C# 2
	B_ 2
	C# 2
	B_ 2
	C# 2
	B_ 2
	C# 2
	B_ 2
	C# 2
	G# 2
	C# 2
	G# 2
	C# 2
	G# 2
	A# 2
	G# 2
	D_ 2
	callchannel WCS_Ch3_loop_sub_4
	A_ 2
	A# 2
	callchannel WCS_Ch3_loop_sub_4
	callchannel WCS_Ch3_loop_sub_4
	A_ 2
	callchannel WCS_Ch3_loop_sub_2
	D# 2
	G_ 2
	D# 2
	G_ 2
	D# 2
	G_ 2
	D# 2
	G_ 2
	callchannel WCS_Ch3_loop_sub_0
	octave 5
	C_ 2
	octave 4
	callchannel WCS_Ch3_loop_sub_0
	octave 5
	C_ 2
	octave 4
	callchannel WCS_Ch3_loop_sub_7
	callchannel WCS_Ch3_loop_sub_7
	F# 2
	octave 5
	C# 2
	C_ 2
	C# 2
	octave 4
	B_ 2
	A# 2
	A_ 2
	F# 2
	callchannel WCS_Ch3_loop_sub_0
	octave 5
	C_ 2
	octave 4
	callchannel WCS_Ch3_loop_sub_0
	E_ 2
	callchannel WCS_Ch3_loop_sub_2
	callchannel WCS_Ch3_loop_sub_2
	C_ 2
	F_ 2
	G_ 2
	C_ 2
	callchannel WCS_Ch3_loop_sub_5
	callchannel WCS_Ch3_loop_sub_2
	callchannel WCS_Ch3_loop_sub_2
	callchannel WCS_Ch3_loop_sub_5
	C_ 2
	C# 2
	D# 2
	D_ 2
	callchannel WCS_Ch3_loop_sub_2
	D# 2
	A# 2
	D# 2
	A# 2
	D# 2
	A# 2
	D_ 2
	C# 2
	C_ 1
	C_ 1
	rest 2
	G_ 4
	C_ 1
	C_ 1
	rest 2
	G_ 4
	C_ 1
	C_ 1
	rest 2
	G_ 4
	C_ 1
	C_ 1
	rest 2
	G_ 4
	loopchannel 0, WCS_Ch3_loop
WCS_Ch1_sub_0::
	octave 2
	notetype 12, 12, 1
	G_ 1
	G_ 3
	notetype 12, 12, 4
	octave 3
	G_ 4
	notetype 12, 12, 1
	octave 2
	G# 1
	G# 3
	notetype 12, 12, 4
	octave 3
	G# 4
	notetype 12, 12, 1
	octave 2
	A# 1
	A# 3
	notetype 12, 12, 4
	octave 3
	A# 4
	notetype 12, 12, 1
	octave 3
	C_ 1
	C_ 3
	notetype 12, 12, 4
	octave 4
	C_ 4
	endchannel
WCS_Ch1_sub_1::
	notetype 12, 12, 1
	octave 3
	C_ 1
	C_ 3
	notetype 12, 12, 4
	octave 4
	C_ 4
	notetype 12, 12, 1
	octave 3
	C# 1
	C# 3
	notetype 12, 12, 4
	octave 4
	C# 4
	notetype 12, 12, 1
	octave 3
	D# 1
	D# 3
	notetype 12, 12, 4
	octave 4
	D# 4
	notetype 12, 12, 1
	octave 3
	F_ 1
	F_ 3
	notetype 12, 12, 4
	octave 4
	F_ 4
	endchannel
WCS_Ch1_sub_2::
	F_ 12
	notetype 8, 12, 1
	F_ 2
	F_ 2
	F_ 2
	notetype 12, 12, 7
	endchannel
WCS_Ch1_loop_sub_0::
	C_ 4
	G_ 4
	octave 2
	B_ 4
	octave 3
	F# 4
	octave 2
	A# 4
	octave 3
	F_ 4
	octave 2
	G_ 4
	octave 3
	D_ 4
	C# 4
	D_ 12
	endchannel
WCS_Ch1_loop_sub_1::
	F_ 1
	G_ 1
	A_ 1
	rest 1
	F_ 1
	rest 1
	A_ 1
	rest 1
	octave 4
	C_ 1
	rest 1
	octave 3
	A_ 1
	rest 1
	endchannel
WCS_Ch2_sub_0::
	notetype 12, 14, 2
	G_ 1
	notetype 12, 14, 6
	G_ 7
	notetype 12, 14, 2
	G# 1
	notetype 12, 14, 6
	G# 7
	notetype 12, 14, 2
	A# 1
	notetype 12, 14, 6
	A# 7
	notetype 12, 14, 2
	octave 4
	C_ 1
	notetype 12, 14, 6
	C_ 7
	octave 3
	endchannel
WCS_Ch2_sub_1::
	notetype 12, 14, 2
	C_ 1
	notetype 12, 14, 6
	C_ 7
	notetype 12, 14, 2
	C# 1
	notetype 12, 14, 6
	C# 7
	notetype 12, 14, 2
	D# 1
	notetype 12, 14, 6
	D# 7
	notetype 12, 14, 2
	F_ 1
	notetype 12, 14, 6
	F_ 7
	endchannel
WCS_Ch2_sub_2::
	A# 12
	notetype 8, 14, 1
	A# 2
	A# 2
	A# 2
	notetype 12, 14, 7
	endchannel
WCS_Ch2_loop_sub_0::
	octave 4
	C_ 8
	octave 3
	B_ 8
	A# 8
	G_ 8
	F# 4
	G_ 12
	endchannel
WCS_Ch2_loop_sub_1::
	notetype 12, 14, 1
	octave 5
	C_ 1
	C_ 1
	rest 2
	notetype 12, 14, 4
	octave 2
	A# 4
	notetype 12, 14, 1
	octave 5
	C_ 1
	C_ 1
	endchannel
WCS_Ch3_sub_0::
	octave 3
	C_ 4
	octave 4
	C_ 4
	octave 3
	C# 4
	octave 4
	C# 4
	octave 3
	D# 4
	octave 4
	D# 4
	octave 3
	F_ 4
	octave 4
	F_ 4
	endchannel
WCS_Ch3_sub_1::
	F_ 15
	rest 1
	notetype 1, 1, 0
	F_ 7
	rest 9
	F_ 7
	rest 9
	F_ 7
	rest 9
	endchannel
WCS_Ch3_sub_2::
	C_ 4
	G_ 4
	C# 4
	G# 4
	D# 4
	A# 4
	F_ 4
	octave 4
	C_ 4
	endchannel
WCS_Ch3_loop_sub_0::
	F_ 2
	octave 5
	C_ 2
	octave 4
	F_ 2
	octave 5
	C_ 2
	octave 4
	F_ 2
	octave 5
	C_ 2
	octave 4
	F_ 2
	endchannel
WCS_Ch3_loop_sub_1::
	C_ 2
	octave 3
	G_ 2
	octave 4
	C_ 2
	octave 3
	G_ 2
	octave 4
	C_ 2
	octave 3
	G_ 2
	octave 4
	C_ 2
	octave 3
	G_ 2
	octave 4
	endchannel
WCS_Ch3_loop_sub_2::
	D# 2
	A# 2
	D# 2
	A# 2
	D# 2
	A# 2
	D# 2
	A# 2
	endchannel
WCS_Ch3_loop_sub_3::
	C_ 1
	rest 2
	octave 3
	A# 4
	octave 4
	C_ 1
	C_ 1
	rest 2
	C# 4
	C_ 1
	C_ 1
	rest 2
	octave 3
	A# 4
	octave 4
	C_ 1
	rest 1
	octave 3
	G_ 4
	A# 1
	rest 1
	octave 4
	endchannel
WCS_Ch3_loop_sub_4::
	A_ 2
	D_ 2
	A_ 2
	D_ 2
	A_ 2
	D_ 2
	A_ 2
	D_ 2
	A_ 2
	D_ 2
	A_ 2
	D_ 2
	endchannel
WCS_Ch3_loop_sub_5::
	C_ 2
	G_ 2
	C_ 2
	G_ 2
	C_ 2
	G_ 2
	C_ 2
	G_ 2
	C_ 2
	G_ 2
	C_ 2
	G_ 2
	endchannel
WCS_Ch3_loop_sub_6::
	D_ 2
	octave 3
	G_ 2
	octave 4
	D_ 2
	octave 3
	G_ 2
	octave 4
	D_ 2
	octave 3
	G_ 2
	octave 4
	endchannel
WCS_Ch3_loop_sub_7::
	F# 2
	octave 5
	C# 2
	octave 4
	F# 2
	octave 5
	C# 2
	octave 4
	endchannel
