Music_WildBattle_Ch1:
	tempo 104
	volume 7, 7
	duty 2
	vibrato 6, 3, 4
	notetype 12, 11, 3
.intro
	octave 3
	C_ 2
	octave 2
	C_ 2
	G_ 2
	octave 3
	C_ 2
	C# 2
	octave 2
	C# 2
	G_ 2
	octave 3
	C# 2
	D# 2
	octave 2
	D# 2
	G_ 2
	octave 3
	D# 2
	F_ 2
	octave 2
	G_ 2
	octave 3
	F_ 2
	D# 2
.looppoint
	duty 2
	notetype 12, 11, 3
	callchannel .loopC
	callchannel .loopC
	callchannel .loopG_a
	callchannel .loopG_a
	callchannel .loopF
	callchannel .loopG_b
	callchannel .loopF
	callchannel .loopG_b
	octave 3
.loop0
	duty 3
	notetype 12, 11, 4
	F_ 6
	D_ 6
	F_ 4
	F_ 6
	F_ 6
	F_ 4
	notetype 12, 11, 7
	G_ 16
	E_ 16
	loopchannel 2, .loop0
.loop1
	notetype 12, 11, 4
	E_ 6
	C_ 6
	E_ 4
	F_ 6
	rest 2
	G_ 4
	F_ 4
	E_ 6
	C_ 6
	E_ 4
	octave 4
	C_ 6
	octave 3
	E_ 4
	F_ 6
	loopchannel 2, .loop1
	loopchannel 0, .looppoint
.loopC
	octave 3
	C_ 2
	rest 2
	octave 2
	C_ 2
	octave 3
	C_ 2
	rest 2
	octave 2
	C_ 2
	octave 3
	C_ 2
	octave 2
	C_ 2
	octave 3
	C_ 2
	rest 2
	octave 2
	C_ 2
	octave 3
	C_ 2
	rest 2
	octave 2
	C_ 2
	octave 1
	G_ 2
	octave 2
	C_ 2
	endchannel

.loopG_a
	octave 3
	G_ 2
	rest 2
	octave 2
	G_ 2
	octave 3
	G_ 2
	rest 2
	octave 2
	G_ 2
	octave 3
	G_ 2
	octave 2
	G_ 2
	octave 3
	G_ 2
	rest 2
	octave 2
	G_ 2
	octave 3
	G_ 2
	rest 2
	octave 2
	G_ 2
	D_ 2
	G_ 2 
	endchannel

.loopF
	octave 3
	F_ 2
	rest 2
	octave 2
	F_ 2
	octave 3
	F_ 2
	rest 2
	octave 2
	F_ 2
	octave 3
	F_ 2
	octave 2
	F_ 2
	octave 3
	F_ 2
	rest 2
	octave 2
	F_ 2
	octave 3
	F_ 2
	rest 2
	octave 2
	F_ 2
	C_ 2
	F_ 2 
	endchannel

.loopG_b
	octave 3
	G_ 2
	rest 2
	octave 2
	G_ 2
	octave 3
	G_ 2
	rest 2
	octave 2
	G_ 2
	octave 3
	G_ 2
	octave 2
	G_ 2
	octave 3
	G_ 2
	rest 2
	octave 2
	G_ 2
	octave 3
	G_ 2
	rest 2
	octave 2
	G_ 2
	D_ 2
	G_ 2 
	endchannel

Music_WildBattle_Ch2:
	duty 3
	vibrato 8, 2, 5
	notetype 12, 12, 3
.intro
	octave 5
	C_ 1
	octave 4
	B_ 1
	A# 1
	A_ 1
	A# 1
	A_ 1
	G# 1
	G_ 1
	G# 1
	G_ 1
	F# 1
	F_ 1
	F# 1
	F_ 1
	E_ 1
	D# 1
	E_ 1
	D# 1
	D_ 1
	C# 1
	D_ 1
	C# 1
	C_ 1
	octave 3
	B_ 1
	octave 4
	C_ 1
	octave 3
	B_ 1
	A# 1
	A_ 1
	A# 1
	A_ 1
	G# 1
	G_ 1
.looppoint
	notetype 12, 12, 2
	octave 4
	G_ 2
	rest 4
	G_ 2
	rest 4
	G_ 2
	rest 2
	G_ 2
	rest 6
	G_ 2
	F# 2
	G_ 2
	D# 2
	G_ 2
	rest 4
	G_ 2
	rest 4
	G_ 2
	rest 2
	G_ 2
	rest 6
	G_ 2
	F# 2
	G_ 2
	A_ 2
	octave 5
	C_ 2
	rest 4
	C_ 2
	rest 4
	C_ 2
	rest 2
	C_ 2
	rest 6
	C_ 2
	octave 4
	D# 2
	octave 5
	C_ 2
	octave 4
	G_ 2
	octave 5
	C_ 2
	rest 4
	C_ 2
	rest 4
	C_ 2
	rest 2
	C_ 2
	rest 6
	C_ 2
	octave 4
	G_ 2
	octave 5
	C_ 2
	D_ 2
.loop0
	notetype 12, 12, 7
	octave 3
	A# 6
	G# 6
	A# 4
	octave 4
	C_ 6
	D_ 6
	F_ 4
	E_ 10
	D_ 2
	E_ 2
	D_ 2
	C_ 8
	C_ 4
	octave 3
	B_ 4
	A# 6
	G# 6
	A# 4
	octave 4
	C_ 4
	octave 3
	G# 2
	octave 4
	D_ 4
	octave 3
	G# 2
	octave 4
	F_ 2
	octave 3
	G# 2
	octave 4
	E_ 4
	rest 2
	E_ 4
	rest 2
	E_ 4
	octave 5
	C_ 2
	rest 2
	C_ 2
	rest 2
	C_ 2
	rest 4
	C_ 2
	loopchannel 2, .loop0
.loop1
	octave 4
	C_ 6
	octave 3
	G_ 6
	octave 4
	C_ 4
	C# 6
	rest 2
	D# 4
	C# 4
	C_ 6
	octave 3
	G_ 6
	octave 4
	C_ 4
	E_ 6
	C_ 4
	C# 6
	loopchannel 2, .loop1
	loopchannel 0, .looppoint
	endchannel

Music_WildBattle_Ch3:
	vibrato 0, 2, 0
	notetype 12, 1, 1
.intro
	octave 3
	C_ 8
	octave 2
	A# 8
	octave 3
	D# 2
	rest 2
	D# 2
	rest 2
        F_ 2
	rest 2
	F_ 2
	G_ 2
.looppoint
	callchannel .loopbass
	callchannel .loopbass
	callchannel .loopbass
	rest 2
	C_ 1
	rest 1
	C_ 1
	rest 1
	C_ 2
	rest 2
	C_ 2
	octave 2
	A# 2
	octave 3
	C_ 2
	rest 2
	C_ 2
	octave 2
	A# 2
	octave 3 
	C_ 2
	D# 2
	C_ 2
	D# 2
	C_ 2
.loop0
	octave 3
	F_ 1
	rest 1
	F_ 2
	F_ 1
	rest 1
	F_ 2
	F_ 1
	rest 1
	F_ 2
	D# 2
	F_ 2
	F_ 1
	rest 1
	F_ 2
	D# 2
	F_ 2
	A_ 2
	F_ 2
	A_ 2
	F_ 2
	G_ 1
	rest 1
	G_ 2
	G_ 1
	rest 1
	G_ 2
	G_ 1
	rest 1
	G_ 2
	F_ 2
	G_ 2
	G_ 1
	rest 1
	G_ 2
	F_ 2
	G_ 2
	octave 4
	C_ 2
	octave 3
	G_ 2
	octave 4
	C_ 2
	octave 3
	G_ 2
	loopchannel 2, .loop0
.continue
	octave 3
	F_ 12
	F_ 4
	A# 6
	A_ 6
	F_ 4
	E_ 16
	C_ 12
	D_ 4
	F_ 12
	F_ 4
	A# 6
	A_ 6
	F_ 4
	E_ 16
	C_ 12
	C# 4
	callchannel .loopbass
	callchannel .loopbass
	callchannel .loopbass
	callchannel .loopbass
	loopchannel 0, .looppoint
.loopbass
	octave 3
	C_ 2
	rest 2
	C_ 2
	rest 2
	C_ 1
	rest 1
	C_ 2
	octave 2
	A# 2
	octave 3
	C_ 2
	C_ 2
	rest 2
	octave 2
	A# 1
	rest 1
	octave 3
	C_ 2
	D# 2
	C_ 2
	D# 2
	C_ 2
	endchannel